<svg width="315" height="251" viewBox="0 0 315 251" fill="none" xmlns="http://www.w3.org/2000/svg">
<path fill-rule="evenodd" clip-rule="evenodd" d="M303.172 76.0596C291.3 55.6931 254.554 54.9065 230.015 42.4426C202.789 28.614 189.329 -3.06989 153.897 0.240829C117.712 3.62183 97.2243 34.4423 74.3467 56.988C49.9609 81.02 9.92367 106.427 19.6075 132.582C29.2564 158.643 82.5435 152.688 114.412 165.201C143.022 176.435 159.499 202.616 193.919 201.025C233.025 199.217 274.337 182.307 296.658 156.776C318.477 131.82 317.415 100.495 303.172 76.0596Z" fill="#D3F1FF"/>
<ellipse cx="185" cy="211.337" rx="130" ry="26" fill="#D3F1FF"/>
<path d="M94 74.0909V207.673C94 210.249 96.0879 212.337 98.6637 212.337H290.359C292.935 212.337 295.023 210.249 295.023 207.673V74.0909H94Z" fill="#E9E8E8"/>
<path d="M94.0001 50.4987V74.7682H295.023V50.4987C295.024 49.2612 294.532 48.0746 293.658 47.1992C292.783 46.3243 291.597 45.8323 290.359 45.8323H98.6638C97.4263 45.8323 96.2397 46.3243 95.3652 47.1992C94.4902 48.0746 93.9996 49.2612 94.0001 50.4987ZM143.749 57.6783C141.693 57.6783 140.026 56.0115 140.026 53.9554C140.026 51.8993 141.693 50.2325 143.749 50.2325C145.804 50.2325 147.471 51.8993 147.471 53.9554C147.471 54.9426 147.079 55.8898 146.381 56.588C145.683 57.2858 144.736 57.6783 143.749 57.6783ZM245.274 57.6783C243.769 57.6783 242.411 56.7711 241.835 55.3801C241.259 53.989 241.577 52.3877 242.642 51.3228C243.707 50.2584 245.308 49.94 246.699 50.516C248.09 51.092 248.997 52.4499 248.997 53.9554C248.997 54.9439 248.604 55.8916 247.905 56.5898C247.205 57.2885 246.257 57.6797 245.269 57.6783H245.274Z" fill="#FC6681"/>
<g opacity="0.1">
<path d="M143.749 49.5554C141.968 49.554 140.363 50.6257 139.681 52.2697C138.999 53.9138 139.375 55.8068 140.633 57.0661C141.891 58.3249 143.784 58.702 145.429 58.021C147.073 57.3405 148.146 55.7355 148.146 53.9556C148.147 52.789 147.684 51.6696 146.859 50.8442C146.034 50.0192 144.915 49.5554 143.749 49.5554ZM143.749 57.6785C141.693 57.6785 140.026 56.0117 140.026 53.9556C140.026 51.8995 141.693 50.2327 143.749 50.2327C145.804 50.2327 147.471 51.8995 147.471 53.9556C147.471 54.9428 147.079 55.89 146.381 56.5882C145.683 57.286 144.736 57.6785 143.749 57.6785Z" fill="black"/>
</g>
<g opacity="0.1">
<path d="M245.268 49.5554C243.489 49.5554 241.884 50.6275 241.203 52.2716C240.522 53.9161 240.899 55.8086 242.157 57.067C243.415 58.3254 245.308 58.702 246.952 58.021C248.597 57.34 249.669 55.7355 249.669 53.9556C249.669 51.5256 247.698 49.5554 245.268 49.5554ZM245.268 57.6785C243.763 57.6785 242.405 56.7713 241.829 55.3802C241.253 53.9892 241.571 52.3879 242.636 51.323C243.701 50.2586 245.302 49.9401 246.693 50.5162C248.084 51.0922 248.991 52.4501 248.991 53.9556C248.991 56.0117 247.325 57.6785 245.268 57.6785Z" fill="black"/>
</g>
<path d="M157.305 89.7847H188.306C189.351 89.7847 190.2 90.9567 190.2 92.4005V115.376C190.2 116.819 189.351 117.991 188.306 117.991H157.305C156.26 117.991 155.412 116.819 155.412 115.376V92.4005C155.412 90.9567 156.26 89.7847 157.305 89.7847Z" fill="white"/>
<path d="M201.161 89.7847H232.162C233.207 89.7847 234.055 90.9567 234.055 92.4005V115.376C234.055 116.819 233.207 117.991 232.162 117.991H201.161C200.116 117.991 199.267 116.819 199.267 115.376V92.4005C199.267 90.9567 200.116 89.7847 201.161 89.7847Z" fill="white"/>
<path d="M245.333 89.7847H276.334C277.379 89.7847 278.228 90.9567 278.228 92.4005V115.376C278.228 116.819 277.379 117.991 276.334 117.991H245.333C244.288 117.991 243.44 116.819 243.44 115.376V92.4005C243.44 90.9567 244.288 89.7847 245.333 89.7847Z" fill="white"/>
<path d="M157.795 129.776H187.816C188.861 129.776 189.71 130.948 189.71 132.392V154.572C189.71 156.016 188.861 157.188 187.816 157.188H157.795C156.75 157.188 155.902 156.016 155.902 154.572V132.392C155.902 130.948 156.75 129.776 157.795 129.776Z" fill="white"/>
<path d="M275.526 157.188H245.503C244.457 157.188 243.609 156.016 243.609 154.572V132.392C243.609 130.948 244.457 129.776 245.503 129.776H275.526C276.572 129.776 277.42 130.948 277.42 132.392V154.572C277.42 156.016 276.572 157.188 275.526 157.188Z" fill="white"/>
<path d="M231.671 157.188H201.648C200.602 157.188 199.754 156.016 199.754 154.572V132.392C199.754 130.948 200.602 129.776 201.648 129.776H231.671C232.717 129.776 233.565 130.948 233.565 132.392V154.572C233.565 156.016 232.717 157.188 231.671 157.188Z" fill="white"/>
<path d="M157.795 169.371H187.816C188.861 169.371 189.71 170.544 189.71 171.987V194.167C189.71 195.611 188.861 196.783 187.816 196.783H157.795C156.75 196.783 155.902 195.611 155.902 194.167V171.987C155.902 170.544 156.75 169.371 157.795 169.371Z" fill="white"/>
<path d="M113.27 89.7846H144.271C145.316 89.7846 146.165 90.9567 146.165 92.4004V115.376C146.165 116.819 145.316 117.991 144.271 117.991H113.27C112.225 117.991 111.376 116.819 111.376 115.376V92.4004C111.376 90.9567 112.225 89.7846 113.27 89.7846Z" fill="white"/>
<path d="M113.76 129.776H143.781C144.826 129.776 145.675 130.948 145.675 132.392V154.572C145.675 156.016 144.826 157.188 143.781 157.188H113.76C112.715 157.188 111.867 156.016 111.867 154.572V132.392C111.867 130.948 112.715 129.776 113.76 129.776Z" fill="white"/>
<path d="M113.76 169.371H143.781C144.826 169.371 145.675 170.544 145.675 171.987V194.167C145.675 195.611 144.826 196.783 143.781 196.783H113.76C112.715 196.783 111.867 195.611 111.867 194.167V171.987C111.867 170.544 112.715 169.371 113.76 169.371Z" fill="white"/>
<path d="M275.416 196.759H245.464C244.421 196.759 243.574 195.594 243.574 194.158V172.103C243.574 170.667 244.421 169.502 245.464 169.502H275.416C276.459 169.502 277.305 170.667 277.305 172.103V194.158C277.305 195.594 276.459 196.759 275.416 196.759Z" fill="white"/>
<path d="M231.671 196.788H201.648C200.602 196.788 199.754 195.616 199.754 194.172V171.992C199.754 170.548 200.602 169.376 201.648 169.376H231.671C232.717 169.376 233.565 170.548 233.565 171.992V194.172C233.565 195.616 232.717 196.788 231.671 196.788Z" fill="white"/>
<path d="M280.247 167.638L277.266 165.297C276.969 165.062 276.59 164.957 276.215 165.003C275.839 165.05 275.498 165.245 275.267 165.545L260.684 184.134L252.764 177.903C252.147 177.422 251.259 177.532 250.779 178.149L248.431 181.137C247.953 181.76 248.064 182.654 248.68 183.141L260.709 192.606C261.33 193.086 262.219 192.975 262.704 192.358L280.496 169.641C280.729 169.343 280.835 168.963 280.788 168.588C280.741 168.211 280.546 167.869 280.247 167.638Z" fill="#FC6681"/>
<rect x="139.315" y="38.3369" width="8.85862" height="21.8058" rx="4.42931" fill="#CFCFCF"/>
<rect x="240.849" y="38.3369" width="8.85862" height="21.8058" rx="4.42931" fill="#CFCFCF"/>
<ellipse cx="67" cy="234.337" rx="67" ry="16" fill="#D3F1FF"/>
<path d="M138.401 224.6L147.358 224.003L144.372 237.438L134.221 233.259L138.401 224.6Z" fill="#FFB9B9"/>
<path d="M56.2946 199.52L77.1942 179.218L89.1366 188.473L112.724 216.837L110.037 221.017L81.3738 201.611L61.9672 226.989L43.4562 217.733L56.2946 199.52Z" fill="#2F2E41"/>
<path d="M54.5029 212.956L57.19 215.046L78.9852 207.582L84.0613 205.492L94.2126 207.582C94.2126 207.582 94.2126 199.222 84.6583 199.52L74.8056 201.909L63.1612 202.805L54.5029 212.956Z" fill="#FFB9B9"/>
<path d="M35.0959 235.05L41.6646 239.23H49.4273L85.5539 225.794L138.401 235.349L139.894 224.003L91.5256 202.805L49.1283 216.837L35.0959 235.05Z" fill="#2F2E41"/>
<path d="M77.4927 181.904L81.9714 182.8L82.9472 181.661C84.5268 179.819 84.8481 177.208 83.7624 175.038L71.2225 158.616C71.2225 158.616 65.7782 148.911 61.9672 153.839C58.1562 158.766 66.7444 162.498 66.7444 162.498L73.0141 172.35L72.4171 177.426L77.4927 181.904Z" fill="#FFB9B9"/>
<path d="M43.949 144.502C39.1661 149.5 37.1078 149.387 39.6228 157.435C41.247 162.632 51.5269 164.756 56.2214 165.65C60.296 166.427 64.437 153.076 63.431 143.686C58.0136 138.503 48.7314 139.503 43.949 144.502Z" fill="#FFB9B9"/>
<path d="M54.3538 159.362L48.9796 172.201L36.1407 166.827C36.1407 166.827 41.1317 163.303 39.9581 157.603C42.6132 158.158 54.3538 159.362 54.3538 159.362Z" fill="#FFB9B9"/>
<path d="M19.0001 197.343C19.0001 204.371 20.1076 211.355 22.2813 218.037L23.1531 220.719L27.3333 239.827L31.8119 241.021L35.096 236.841L41.6646 232.064L46.4418 224.301L50.5378 217.476L51.816 215.345L56.2941 192.952L73.3126 183.398L78.9853 182.502L77.7913 179.217L72.7156 172.351L67.6399 171.753L66.1469 170.559L64.9529 171.156L60.1757 168.469L58.6827 169.066L49.9526 169.878L44.6502 168.768L37.0249 164.674L33.9019 165.185L23.1531 174.142C20.4057 181.569 18.9992 189.425 19.0001 197.343Z" fill="#3669A4"/>
<path d="M144.608 229.223C144.608 229.223 141.934 224.691 143.064 224.162L148.99 221.523L156.025 219.192C156.025 219.192 166.175 204.106 166.398 217.225C166.62 230.344 159.007 233.497 159.007 233.497C159.007 233.497 152.217 248.111 148.37 245.781C144.524 243.45 140.675 235.54 140.675 235.54C140.675 235.54 147.611 231.811 144.608 229.223Z" fill="#2F2E41"/>
<path d="M45.2473 178.62L54.503 195.638H57.7871L59.8772 201.61L64.6544 202.804L51.816 216.837L33.6029 200.415L22.2576 192.952L45.2473 178.62Z" fill="#3669A4"/>
<path d="M42.8093 138.824C31.274 143.251 36.7175 154.64 40.1267 160.117C40.1267 154.249 43.9201 152.237 43.6476 150.058C44.6536 151.567 43.5358 153.076 43.1446 153.914C44.3742 154.417 47.5374 154.082 50.3542 148.716C53.1709 143.351 57.0048 142.792 58.5697 143.183C58.5697 145.732 61.6994 147.487 63.2643 148.046C70.6415 145.195 68.2942 142.177 58.5697 135.303C50.7901 129.804 44.8213 135.359 42.8093 138.824Z" fill="#2F2E41"/>
</svg>
