<svg width="270" height="253" viewBox="0 0 270 253" fill="none" xmlns="http://www.w3.org/2000/svg">
<ellipse cx="134.759" cy="230.902" rx="134.759" ry="21.0996" fill="#D3F1FF"/>
<path fill-rule="evenodd" clip-rule="evenodd" d="M21.0688 100.573C23.1753 79.7182 51.6124 69.4485 71.5674 55.7886C92.7883 41.2622 110.071 21.0152 139.048 19.8122C171.592 18.4611 205.874 29.4075 226.955 49.3374C247.765 69.0097 248.525 95.5639 245.075 120.047C241.795 143.332 235.018 169.722 208.464 180.587C183.541 190.786 154.437 173.796 126.103 168.73C103.488 164.687 79.5805 165.991 61.6138 154.332C40.1336 140.394 18.9534 121.516 21.0688 100.573Z" fill="#D3F1FF"/>
<path d="M127.97 53.7905C130.781 50.9279 134.537 50.0589 136.358 51.8494C138.179 53.6398 137.375 57.4111 134.562 60.2743C133.454 61.4334 132.084 62.3102 130.568 62.8314L118.501 74.8097L113.003 69.0251L125.482 57.8308C125.977 56.3046 126.83 54.9192 127.97 53.7905V53.7905Z" fill="#9E616A"/>
<path d="M148.026 59.7523C145.089 57.0185 144.119 53.2865 145.858 51.417C147.597 49.5474 151.388 50.2483 154.325 52.9835C155.514 54.06 156.427 55.4055 156.99 56.9076L169.288 68.6481L163.657 74.304L152.131 62.1295C150.593 61.6764 149.185 60.8613 148.026 59.7523V59.7523Z" fill="#FFB9B9"/>
<path d="M209.974 61.5622L186.237 86.8445C186.237 86.8445 180.906 92.1209 172.136 84.5117C163.365 76.9025 153.615 64.4187 153.615 64.4187L159.085 58.4629L168.774 67.1107C168.774 67.1107 174.683 71.3054 175.083 72.8037C184.83 77.7873 181.083 77.184 182.881 76.7039C184.678 76.2237 185.367 70.5293 185.48 72.1537C185.592 73.778 181.458 74.4259 183.535 72.587C185.611 70.7482 181.738 73.5996 181.738 73.5996L196.91 53.4949C196.91 53.4949 206.714 45.7395 209.532 52.6914C212.35 59.6433 209.974 61.5622 209.974 61.5622Z" fill="#FC6681"/>
<path d="M83.8309 231.031L93.0561 231.03L97.4446 195.433L83.8291 195.434L83.8309 231.031Z" fill="#9E616A"/>
<path d="M115.438 230.822C115.725 231.306 115.876 232.868 115.876 233.431C115.876 235.161 114.475 236.563 112.745 236.563H84.176C82.9963 236.563 82.0399 235.606 82.0399 234.426V233.236C82.0399 233.236 80.6266 229.66 83.5364 225.252C83.5364 225.252 87.1528 228.704 92.5566 223.298L94.1501 220.41L105.685 228.849L112.079 229.636C113.478 229.809 114.718 229.61 115.437 230.822H115.438Z" fill="#2F2E41"/>
<path d="M190.155 66.7612H213.017V32.9671H190.155V66.7612Z" fill="#2F2E41"/>
<path d="M207.885 56.4568C206.923 52.8693 206.056 51.5692 206.056 47.4524L196.439 46.7776C196.922 52.0107 196.708 54.5198 194.079 57.0325L207.885 56.4568Z" fill="#FFB9B9"/>
<path d="M201.075 52.2192C207.501 52.2192 209.305 44.6454 209.305 38.2163C209.305 31.7871 206.512 26.5753 200.085 26.5753C193.659 26.5753 190.461 31.7871 190.461 38.2163C190.461 44.6454 194.648 52.2192 201.075 52.2192Z" fill="#FFB9B9"/>
<path d="M198.515 24.9455C198.515 24.9455 192.032 26.3109 189.643 32.7966C187.255 39.2824 188.461 40.4892 188.461 40.4892C188.461 40.4892 187.933 44.3946 185.035 45.7641C182.136 47.1335 184.525 52.9365 184.525 52.9365C184.525 52.9365 182.014 56.553 180.498 62.8367C178.284 72.0145 183.964 75.6206 183.964 75.6206C183.964 75.6206 187.212 75.6206 194.244 70.7877C203.798 70.4464 192.373 52.9365 192.373 52.9365V41.6024C192.373 41.6024 195.366 32.042 201.508 30.3352C207.65 28.6284 198.515 24.9455 198.515 24.9455Z" fill="#2F2E41"/>
<path d="M79.4067 20.9024C77.8928 25.1673 78.8389 29.7087 81.507 32.9757L73.3826 43.4601C78.1293 46.6597 93.2515 53.8146 91.8887 49.6992C90.9949 47 91.5787 42.4376 92.6427 38.9848C96.3387 40.0083 99.4685 38.9278 102.903 29.2514C105.207 22.7616 101.814 15.6315 95.3261 13.326C88.8377 11.0205 81.7103 14.4125 79.4067 20.9024Z" fill="#9E616A"/>
<path d="M82.4984 33.5792C84.2176 30.9119 82.9736 23.4163 84.6928 20.749C85.857 18.9427 90.0159 21.9296 91.7052 20.6017C93.3946 19.2737 95.6986 18.5303 97.7314 19.227C100.068 20.0279 101.745 22.5684 104.215 22.6054C106.712 22.6429 108.508 19.8428 108.281 17.3551C108.054 14.8674 106.415 12.7509 104.696 10.9383C101.77 7.85163 98.0818 5.0466 93.8321 4.89072C91.2631 4.79648 88.7718 5.68501 86.3551 6.56112C84.1522 7.35974 81.9093 8.18 80.0577 9.61623C76.4303 12.4299 74.8288 17.3885 75.4607 21.9368C76.0926 26.4852 78.7272 30.5943 82.1517 33.653" fill="#2F2E41"/>
<path d="M109.446 128.013L96.7341 214.55H80.7853L82.906 165.153L84.0222 139.179L80.7853 126.816C80.7853 126.816 79.3095 124.068 78.0662 120.737C76.6648 116.978 75.5579 112.471 77.2011 110.334C77.8057 109.546 79.3777 108.963 81.5139 108.529C82.8192 108.262 84.3384 108.054 85.9786 107.893C95.4102 106.959 108.826 107.542 108.826 107.542L109.167 118.801L109.356 125.088L109.446 128.013V128.013Z" fill="#3669A4"/>
<path d="M31.3059 217.244L39.4329 221.611L60.1397 192.331L48.1452 185.885L31.3059 217.244Z" fill="#9E616A"/>
<path d="M59.2476 232.024C59.2717 232.586 58.6662 234.034 58.4 234.529C57.5816 236.053 55.6832 236.625 54.1599 235.806L28.9929 222.28C27.9538 221.721 27.5639 220.426 28.1222 219.386L28.6852 218.338C28.6852 218.338 29.1321 214.518 33.7807 212.013C33.7807 212.013 35.3335 216.766 42.6514 214.562L45.4214 212.773L51.5901 225.668L56.8499 229.389C58.0006 230.203 59.1872 230.615 59.2475 232.024L59.2476 232.024V232.024Z" fill="#2F2E41"/>
<path d="M109.356 125.088L102.61 138.621L82.9061 165.152L50.4689 208.833L36.4207 201.284L74.9285 136.422L77.9298 123.996C77.9298 123.996 77.9298 122.653 78.0662 120.737C78.3329 116.943 79.1328 110.898 81.5139 108.528C81.8364 108.206 82.1868 107.952 82.5681 107.781C83.2843 107.458 84.4749 107.536 85.9786 107.893C92.2602 109.394 103.983 115.842 109.167 118.801L109.356 125.088Z" fill="#3669A4"/>
<path d="M207.018 232.117L199.087 232.116L195.313 201.509L207.02 201.51L207.018 232.117Z" fill="#FFB9B9"/>
<path d="M179.843 231.937C179.596 232.353 179.465 233.696 179.465 234.18C179.465 235.667 180.671 236.873 182.158 236.873H206.722C207.736 236.873 208.558 236.05 208.558 235.035V234.012C208.558 234.012 209.774 230.937 207.272 227.148C207.272 227.148 204.162 230.115 199.516 225.467L198.146 222.984L188.228 230.24L182.731 230.917C181.528 231.065 180.462 230.894 179.843 231.937H179.843H179.843Z" fill="#2F2E41"/>
<path d="M238.266 222.766L230.933 225.792L215.775 198.939L226.597 194.473L238.266 222.766Z" fill="#FFB9B9"/>
<path d="M213.076 232.969C213.006 233.448 213.398 234.739 213.583 235.187C214.15 236.562 215.724 237.216 217.098 236.649L239.805 227.275C240.743 226.888 241.189 225.814 240.802 224.876L240.412 223.93C240.412 223.93 240.363 220.624 236.605 218.076C236.605 218.076 234.862 222.005 228.795 219.482L226.582 217.709L220.18 228.201L215.357 230.925C214.302 231.521 213.251 231.77 213.076 232.969L213.076 232.969H213.076Z" fill="#2F2E41"/>
<path d="M210.658 127.126L207.421 139.489L208.283 159.551L209.712 192.872L209.752 193.812L209.914 197.559L210.658 214.86H194.709L187.609 166.527L181.997 128.323L182.586 108.87L182.617 107.852C182.617 107.852 209.02 106.257 212.121 110.289C215.221 114.321 210.658 127.126 210.658 127.126Z" fill="#2F2E41"/>
<path d="M232.848 202.422L230.144 203.821L220.145 208.997L218.682 209.754L209.914 197.558L187.609 166.526L181.997 128.323L182.586 108.87C185.11 108.066 187.128 107.737 188.151 108.215C192.759 110.371 192.539 124.502 192.539 124.502L195.344 136.971L208.283 159.551L232.848 202.422V202.422Z" fill="#2F2E41"/>
<path d="M73.8889 40.2326C75.5258 37.8274 78.6752 36.9802 81.2979 38.2396L92.2384 43.4931C92.2384 43.4931 108.671 92.1891 108.671 94.6704C108.671 97.1518 113.322 98.7026 110.531 101.494C107.741 104.286 115.725 106.65 111.423 108.879C107.121 111.109 80.2833 123.306 77.2991 122.206C69.0686 119.172 77.6479 108.026 77.6479 108.026V108.026C77.6479 108.026 72.3759 97.3785 71.7353 91.1131C70.9171 83.1114 69.5211 71.7459 68.4246 63.0928C67.4067 55.0598 69.333 46.9266 73.8889 40.2326V40.2326Z" fill="#4EC2F5"/>
<path d="M193.314 56.5199L193.598 56.4397L207.576 52.4878L218.738 67.6859L211.296 99.3228L210.171 107.255C210.171 107.255 191.453 106.146 182.462 111.109C182.462 111.109 181.842 108.281 182.462 106.904C183.082 105.526 184.012 99.7942 183.082 97.2323C182.152 94.6704 184.942 82.5739 184.942 82.5739C184.942 82.5739 184.012 74.5096 188.043 70.4774C192.073 66.4453 193.314 56.5199 193.314 56.5199Z" fill="#FC6681"/>
<path d="M89.2234 43.2848L101.875 71.3627L122.078 60.4228L129.308 64.2616C129.308 64.2616 112.793 91.8831 101.485 88.7387C90.1766 85.5944 70.0963 57.0837 73.7143 48.2844C77.3322 39.4851 89.2234 43.2848 89.2234 43.2848Z" fill="#4EC2F5"/>
<path d="M123.192 50.5475L156.766 48.169C157.272 48.1333 157.711 48.5144 157.746 49.02L161.114 96.6638C161.15 97.1691 160.769 97.6087 160.263 97.6443L126.69 100.023C126.184 100.059 125.745 99.6773 125.709 99.1719L122.341 51.5279C122.306 51.0225 122.687 50.5833 123.192 50.5475Z" fill="#313145"/>
<path d="M124.92 51.877L155.243 49.7289C155.708 49.696 156.114 50.0475 156.146 50.5134L159.316 95.3507C159.349 95.8167 158.997 96.2217 158.531 96.2547L128.209 98.4029C127.743 98.4358 127.338 98.0844 127.305 97.6183L124.135 52.7811C124.102 52.3152 124.454 51.91 124.92 51.877Z" fill="white"/>
<path d="M143.491 47.5254L143.365 45.7424C143.219 43.7034 141.45 42.1682 139.411 42.3125C137.372 42.457 135.836 44.2263 135.979 46.2656L136.105 48.0484L129.734 48.4999C129.385 48.5246 129.122 48.8279 129.146 49.1768L129.336 51.8608C129.361 52.2096 129.664 52.4728 130.013 52.448L150.141 51.0221C150.49 50.9974 150.753 50.6942 150.729 50.3454L150.539 47.6614C150.514 47.3125 150.211 47.0492 149.862 47.0739L143.491 47.5254ZM139.483 43.3293C140.678 43.2446 141.716 44.1453 141.801 45.3412C141.885 46.5368 140.984 47.5749 139.789 47.6596C138.593 47.7443 137.556 46.8435 137.471 45.6478C137.431 45.0735 137.62 44.5066 137.997 44.0718C138.374 43.637 138.909 43.37 139.483 43.3293Z" fill="#FFD037"/>
<path d="M131.738 77.8074C131.564 77.8074 131.396 77.7479 131.257 77.6355L131.25 77.6291L129.435 76.1392C129.081 75.8484 129.016 75.3072 129.285 74.9273C129.556 74.5474 130.06 74.4773 130.415 74.766L131.59 75.7317L134.366 71.8477C134.637 71.4699 135.141 71.3978 135.496 71.6885L135.478 71.714L135.496 71.6885C135.848 71.9793 135.915 72.5205 135.644 72.9004L132.379 77.4678C132.227 77.6821 131.99 77.8052 131.738 77.8052V77.8074Z" fill="#07D8B4"/>
<path d="M131.738 77.8074C131.564 77.8074 131.396 77.7479 131.257 77.6355L131.25 77.6291L129.435 76.1392C129.081 75.8484 129.016 75.3072 129.285 74.9273C129.556 74.5474 130.06 74.4773 130.415 74.766L131.59 75.7317L134.366 71.8477C134.637 71.4699 135.141 71.3978 135.496 71.6885L135.478 71.714L135.496 71.6885C135.848 71.9793 135.915 72.5205 135.644 72.9004L132.379 77.4678C132.227 77.6821 131.99 77.8052 131.738 77.8052V77.8074Z" fill="#07D8B4"/>
<path d="M130.786 65.9278C130.612 65.9278 130.444 65.8684 130.305 65.7559L130.298 65.7495L128.483 64.2596C128.129 63.9688 128.064 63.4276 128.333 63.0477C128.604 62.6678 129.108 62.5978 129.463 62.8864L130.638 63.8521L133.414 59.9681C133.685 59.5904 134.189 59.5182 134.543 59.809L134.526 59.8344L134.543 59.809C134.896 60.0997 134.963 60.6409 134.692 61.0208L131.427 65.5882C131.275 65.8026 131.038 65.9257 130.786 65.9257V65.9278Z" fill="#07D8B4"/>
<rect x="137.778" y="73.3197" width="14.9564" height="1.36771" rx="0.683855" transform="rotate(-3.9195 137.778 73.3197)" fill="#D9D9D9"/>
<rect x="138.172" y="76.1165" width="9.80924" height="1.36771" rx="0.683855" transform="rotate(-3.9195 138.172 76.1165)" fill="#D9D9D9"/>
<rect x="136.99" y="61.9628" width="14.9564" height="1.36771" rx="0.683855" transform="rotate(-4.35703 136.99 61.9628)" fill="#D9D9D9"/>
<path d="M202.047 35.1654C198.396 34.5529 197.674 29.6851 197.674 26.6222C198.434 23.7507 207.751 22.531 212.314 31.3368C216.877 40.1426 208.701 39.3769 216.687 46.4599C224.673 53.5428 216.687 66.943 216.687 65.7944C216.687 64.6458 206.04 50.8628 205.469 50.8628C205.013 50.8628 204.899 49.2037 204.899 48.3742C209.082 44.5456 206.61 35.9312 202.047 35.1654Z" fill="#2F2E41"/>
<path d="M125.243 82.3931C129.09 81.2561 132.795 82.3203 133.518 84.7698C134.241 87.2193 131.709 90.1261 127.86 91.2631C126.328 91.7383 124.706 91.8399 123.127 91.5591L106.765 96.171L104.765 88.4437L121.108 84.7175C122.281 83.6235 123.699 82.8264 125.243 82.3931Z" fill="#9E616A"/>
<path d="M96.3023 55.0075L93.7378 85.6992L116.709 85.9463L121.167 92.8137C121.167 92.8137 93.3248 108.941 84.9644 100.701C76.604 92.46 72.8841 57.7823 80.3172 51.8465C87.7503 45.9107 96.3023 55.0075 96.3023 55.0075V55.0075Z" fill="#4EC2F5"/>
<path d="M170.283 106.791C166.283 106.49 163.196 104.18 163.388 101.634C163.58 99.0867 166.979 97.2671 170.98 97.5692C172.581 97.6679 174.134 98.1486 175.51 98.971L192.444 100.462L191.575 108.397L174.974 106.084C173.489 106.691 171.881 106.934 170.283 106.791Z" fill="#FFB9B9"/>
<path d="M219.807 72.1005L220.825 82.9242V89.6152V94.9287L219.807 98.8009C219.807 98.8009 216.168 111.543 204.568 111.076C192.969 110.609 177.561 106.946 177.561 106.946L178.118 98.8772L191.084 99.5817C191.084 99.5817 197.023 97.798 198.27 98.7188C199.518 99.6395 199.031 100.822 200.135 99.3244C201.24 97.8269 200.599 96.9683 201.7 98.1669C202.802 99.3655 203.129 101.534 203.604 98.8009C204.078 96.0676 205.26 96.5546 205.26 96.5546L204.567 71.3738C204.567 71.3738 207.385 59.1928 213.925 62.8635C220.465 66.5341 219.807 72.1005 219.807 72.1005Z" fill="#FC6681"/>
</svg>
