<svg width="316" height="242" viewBox="0 0 316 242" fill="none" xmlns="http://www.w3.org/2000/svg">
<path d="M220.507 13.0226C182.968 25.7625 148.311 62.1002 106.295 56.8765C86.1045 54.3663 67.0911 41.827 46.9358 44.6087C-27.1255 54.8319 -9.06527 212.482 194.276 187.917C224.782 184.232 255.194 171.622 275.241 148.173C326.211 88.5505 306.399 -16.1268 220.508 13.0226H220.507Z" fill="#D3F1FF"/>
<path d="M282.969 217.181H35.285C33.0878 217.184 30.9791 216.293 29.4225 214.703C27.8659 213.113 26.9888 210.955 26.9839 208.702C116.771 198.047 204.867 198.047 291.27 208.702C291.275 209.814 291.067 210.916 290.657 211.945C290.024 213.496 288.958 214.819 287.593 215.751C286.229 216.682 284.626 217.18 282.987 217.181H282.969Z" fill="#B7B7B7"/>
<path d="M291.27 209.212L26.9839 208.709L57.6379 155.809L57.785 155.558L259.052 156.356L291.27 209.212Z" fill="#E0E0E0"/>
<path d="M57.5575 39.3574V156.62H258.997V39.3574C258.997 37.9428 258.726 36.542 258.198 35.235C257.67 33.928 256.896 32.7406 255.92 31.7407C254.944 30.7407 253.785 29.9478 252.51 29.4075C251.235 28.8671 249.868 28.5898 248.488 28.5914H68.0657C66.6855 28.589 65.3185 28.8657 64.0429 29.4058C62.7673 29.9459 61.6082 30.7387 60.632 31.7388C59.6559 32.7389 58.8818 33.9267 58.3542 35.234C57.8266 36.5414 57.5559 37.9426 57.5575 39.3574V39.3574Z" fill="#231F20"/>
<path d="M65.2641 161.886C64.9739 161.886 64.6893 161.969 64.4425 162.125C64.2009 162.277 64.0055 162.494 63.8785 162.754L54.0693 184.122C53.9635 184.356 53.9171 184.613 53.9344 184.87C53.9523 185.126 54.0346 185.373 54.1735 185.587C54.3122 185.803 54.502 185.981 54.7252 186.102C54.9499 186.225 55.2003 186.289 55.4548 186.291H261.792C262.054 186.29 262.311 186.223 262.54 186.096C262.767 185.971 262.958 185.787 263.092 185.562C263.227 185.342 263.305 185.091 263.319 184.832C263.331 184.571 263.276 184.311 263.16 184.078L252.492 162.71C252.371 162.448 252.177 162.23 251.934 162.081C251.693 161.929 251.414 161.85 251.131 161.855L65.2641 161.886ZM139.103 190.036C138.78 190.037 138.467 190.15 138.214 190.357C137.96 190.563 137.778 190.847 137.693 191.168L135.339 200.331C135.283 200.557 135.276 200.794 135.32 201.023C135.363 201.252 135.456 201.469 135.59 201.657C135.723 201.847 135.896 202.002 136.097 202.111C136.298 202.221 136.522 202.28 136.749 202.285H181.504C181.735 202.285 181.964 202.227 182.169 202.118C182.375 202.009 182.553 201.851 182.687 201.657C182.824 201.459 182.912 201.231 182.944 200.991C182.977 200.75 182.954 200.504 182.877 200.274L179.855 191.111C179.755 190.812 179.569 190.551 179.321 190.363C179.075 190.18 178.779 190.081 178.475 190.08L139.103 190.036Z" fill="#B7B7B7"/>
<rect x="79.4412" y="47.9009" width="157.372" height="91.7201" rx="10" fill="white"/>
<mask id="mask0_993_248" style="mask-type:alpha" maskUnits="userSpaceOnUse" x="66" y="38" width="184" height="109">
<path d="M69.4834 38.6975C67.6406 38.6975 66.1835 40.2056 66.1835 42.0153V142.97C66.1835 144.823 67.6834 146.288 69.4834 146.288H246.179C248.022 146.288 249.479 144.78 249.479 142.97V42.0153C249.479 40.1625 247.979 38.6975 246.179 38.6975H69.4834Z" fill="#03A9F4"/>
</mask>
<g mask="url(#mask0_993_248)">
<path d="M253.262 26.2233H62.4006V146.288H253.262V26.2233Z" fill="#EDECEC"/>
<path d="M230.463 65.3139H82.1602V138.874H230.463V65.3139Z" fill="#CDD0DE"/>
<path d="M234.208 61.5609H86.6542V135.872H234.208V61.5609Z" fill="white"/>
<path d="M97.4634 82.5834L112.545 82.5779C112.723 82.5779 112.868 82.728 112.868 82.9128L112.87 85.2399C112.87 85.4247 112.725 85.5747 112.547 85.5749L97.4654 85.5804C97.2871 85.5804 97.1421 85.4304 97.142 85.2455L97.1405 82.9185C97.1403 82.7336 97.2851 82.5836 97.4634 82.5834Z" fill="#808185"/>
<path d="M120.64 82.5817L131.312 82.5779C131.467 82.5779 131.593 82.7012 131.593 82.8532L131.595 85.3012C131.595 85.4532 131.469 85.5766 131.314 85.5766L120.642 85.5804C120.487 85.5804 120.361 85.4572 120.361 85.3051L120.36 82.8572C120.359 82.7052 120.485 82.5817 120.64 82.5817Z" fill="#808185"/>
<path d="M181.375 82.5836L197.907 82.5779C198.099 82.5779 198.254 82.731 198.254 82.9194L198.256 85.2328C198.256 85.4215 198.101 85.5745 197.909 85.5747L181.377 85.5804C181.186 85.5804 181.031 85.4273 181.03 85.2389L181.029 82.9255C181.029 82.7369 181.184 82.5838 181.375 82.5836Z" fill="#808185"/>
<path d="M155.933 82.5849L175.414 82.5779C175.618 82.5779 175.784 82.7462 175.784 82.9534L175.786 85.1975C175.786 85.4049 175.62 85.5734 175.416 85.5734L155.935 85.5804C155.73 85.5804 155.564 85.4121 155.564 85.2049L155.563 82.9608C155.562 82.7534 155.728 82.5849 155.933 82.5849Z" fill="#808185"/>
<path d="M204.615 82.5851L224.103 82.5779C224.305 82.5779 224.47 82.7477 224.47 82.9572L224.471 85.1937C224.471 85.403 224.307 85.5732 224.105 85.5732L204.616 85.5804C204.414 85.5804 204.25 85.4106 204.25 85.2011L204.248 82.9646C204.248 82.7553 204.412 82.5851 204.615 82.5851Z" fill="#808185"/>
<path d="M91.5005 68.3165H126C126.194 68.3165 126.352 68.4769 126.352 68.6747V71.7113C126.352 71.9091 126.194 72.0695 126 72.0695H91.5005C91.3062 72.0695 91.1486 71.9091 91.1486 71.7113V68.6747C91.1486 68.4769 91.3062 68.3165 91.5005 68.3165Z" fill="#808185"/>
<path d="M253.262 37.658H62.4006V52.731H253.262V37.658Z" fill="#03A9F4"/>
<path d="M241.311 49.4387C243.341 49.4387 244.987 47.7893 244.987 45.7547C244.987 43.72 243.341 42.0706 241.311 42.0706C239.28 42.0706 237.635 43.72 237.635 45.7547C237.635 47.7893 239.28 49.4387 241.311 49.4387Z" fill="white"/>
<path d="M91.4797 89.3336H227.136C227.319 89.3336 227.467 89.4837 227.467 89.6685V98.7566C227.467 98.9414 227.319 99.0915 227.136 99.0915H91.4797C91.297 99.0915 91.1486 98.9414 91.1486 98.7566V89.6685C91.1486 89.4837 91.297 89.3336 91.4797 89.3336Z" fill="#E8E9EB"/>
<path d="M206.951 93.0866L221.771 93.1163C222.021 93.1168 222.224 93.3262 222.224 93.5839L222.222 95.6233C222.222 95.8808 222.018 96.0896 221.768 96.0891L206.948 96.0594C206.698 96.0588 206.495 95.8494 206.495 95.5918L206.497 93.5524C206.497 93.2949 206.701 93.086 206.951 93.0866Z" fill="#FFC107"/>
<path d="M91.4797 99.0915H227.136C227.319 99.0915 227.467 99.2416 227.467 99.4264V108.514C227.467 108.699 227.319 108.849 227.136 108.849H91.4797C91.297 108.849 91.1486 108.699 91.1486 108.514V99.4264C91.1486 99.2416 91.297 99.0915 91.4797 99.0915Z" fill="white"/>
<path d="M91.4797 109.6H227.136C227.319 109.6 227.467 109.75 227.467 109.935V119.023C227.467 119.208 227.319 119.358 227.136 119.358H91.4797C91.297 119.358 91.1486 119.208 91.1486 119.023V109.935C91.1486 109.75 91.297 109.6 91.4797 109.6Z" fill="#E8E9EB"/>
<path d="M97.4148 93.0906L108.099 93.0866C108.251 93.0866 108.374 93.2127 108.374 93.3682L108.376 95.8033C108.376 95.9589 108.253 96.0851 108.101 96.0851L97.4168 96.0891C97.2653 96.0891 97.1421 95.963 97.1421 95.8074L97.1405 93.3724C97.1403 93.2168 97.2633 93.0906 97.4148 93.0906Z" fill="#B9B9B9"/>
<path d="M120.733 93.0902L130.47 93.0866C130.676 93.0866 130.844 93.2612 130.844 93.4765L130.846 95.6952C130.846 95.9106 130.678 96.0853 130.472 96.0855L120.735 96.0891C120.529 96.0891 120.361 95.9145 120.361 95.6992L120.36 93.4804C120.359 93.2651 120.527 93.0904 120.733 93.0902Z" fill="#808185"/>
<path d="M187.422 93.0902L197.853 93.0866C198.075 93.0866 198.254 93.2612 198.254 93.4765L198.256 95.6952C198.256 95.9106 198.077 96.0853 197.855 96.0855L187.424 96.0891C187.202 96.0891 187.023 95.9145 187.022 95.6992L187.021 93.4804C187.021 93.2651 187.2 93.0904 187.422 93.0902Z" fill="#808185"/>
<path d="M184.474 102.098L197.805 102.094C198.053 102.094 198.255 102.291 198.255 102.534L198.256 104.651C198.256 104.894 198.055 105.092 197.807 105.092L184.476 105.096C184.228 105.096 184.027 104.899 184.026 104.656L184.025 102.539C184.025 102.296 184.226 102.098 184.474 102.098Z" fill="#808185"/>
<path d="M120.641 102.097L131.311 102.094C131.466 102.094 131.593 102.217 131.593 102.368L131.595 104.818C131.595 104.97 131.469 105.092 131.313 105.092L120.643 105.096C120.488 105.096 120.361 104.973 120.361 104.822L120.36 102.372C120.359 102.22 120.486 102.097 120.641 102.097Z" fill="#808185"/>
<path d="M97.4147 102.848L108.099 102.845C108.251 102.845 108.374 102.939 108.374 103.056L108.376 104.882C108.376 104.999 108.253 105.093 108.101 105.093L97.4167 105.096C97.2653 105.096 97.1421 105.002 97.1421 104.885L97.1405 103.059C97.1403 102.942 97.2632 102.848 97.4147 102.848Z" fill="#B9B9B9"/>
<path d="M138.617 82.5834L149.288 82.5779C149.444 82.5779 149.57 82.701 149.57 82.8526L149.571 85.3C149.571 85.4517 149.445 85.5749 149.29 85.5749L138.618 85.5804C138.463 85.5804 138.337 85.4573 138.337 85.3057L138.336 82.8583C138.336 82.7067 138.462 82.5834 138.617 82.5834Z" fill="#808185"/>
<path d="M138.652 93.0937L152.25 93.0866C152.424 93.0866 152.566 93.2253 152.566 93.3962L152.567 95.7721C152.567 95.9431 152.425 96.0819 152.251 96.0819L138.653 96.0891C138.479 96.0891 138.337 95.9504 138.337 95.7794L138.336 93.4036C138.336 93.2326 138.477 93.0937 138.652 93.0937Z" fill="#B9B9B9"/>
<path d="M138.631 102.849L150.772 102.845C150.935 102.845 151.068 102.944 151.068 103.067L151.069 104.869C151.069 104.992 150.937 105.091 150.774 105.092L138.632 105.096C138.469 105.096 138.337 104.997 138.337 104.874L138.336 103.072C138.336 102.949 138.468 102.849 138.631 102.849Z" fill="#B9B9B9"/>
<path d="M159.599 93.091L171.747 93.0866C171.908 93.0866 172.039 93.221 172.039 93.3867L172.041 95.7843C172.041 95.9499 171.91 96.0845 171.749 96.0847L159.601 96.0891C159.44 96.0891 159.309 95.9547 159.309 95.789L159.308 93.3914C159.307 93.2257 159.438 93.0912 159.599 93.091Z" fill="#808185"/>
<path d="M159.599 102.098L171.747 102.094C171.908 102.094 172.039 102.228 172.039 102.394L172.041 104.791C172.041 104.957 171.91 105.092 171.749 105.092L159.601 105.096C159.44 105.096 159.309 104.962 159.309 104.796L159.308 102.399C159.307 102.233 159.438 102.098 159.599 102.098Z" fill="#808185"/>
<path d="M206.951 102.094L221.771 102.123C222.021 102.124 222.224 102.333 222.224 102.591L222.222 104.63C222.222 104.888 222.018 105.097 221.768 105.096L206.948 105.067C206.698 105.066 206.495 104.857 206.495 104.599L206.497 102.56C206.497 102.302 206.701 102.093 206.951 102.094Z" fill="#FFC107"/>
<path d="M184.474 112.607L197.805 112.602C198.053 112.602 198.255 112.8 198.255 113.043L198.256 115.159C198.256 115.403 198.055 115.6 197.807 115.6L184.476 115.605C184.228 115.605 184.027 115.407 184.026 115.164L184.025 113.048C184.025 112.805 184.226 112.607 184.474 112.607Z" fill="#808185"/>
<path d="M120.641 112.606L131.311 112.602C131.466 112.602 131.593 112.725 131.593 112.876L131.595 115.327C131.595 115.478 131.469 115.601 131.313 115.601L120.643 115.605C120.488 115.605 120.361 115.482 120.361 115.331L120.36 112.88C120.359 112.729 120.486 112.606 120.641 112.606Z" fill="#808185"/>
<path d="M97.4147 113.357L108.099 113.353C108.251 113.353 108.374 113.479 108.374 113.635L108.376 116.07C108.376 116.225 108.253 116.352 108.101 116.352L97.4167 116.356C97.2653 116.356 97.1421 116.229 97.1421 116.074L97.1405 113.639C97.1403 113.483 97.2632 113.357 97.4147 113.357Z" fill="#B9B9B9"/>
<path d="M138.631 113.36L150.772 113.353C150.935 113.353 151.068 113.486 151.068 113.65L151.069 116.052C151.069 116.216 150.937 116.349 150.774 116.349L138.632 116.356C138.469 116.356 138.337 116.223 138.337 116.059L138.336 113.656C138.336 113.493 138.468 113.36 138.631 113.36Z" fill="#B9B9B9"/>
<path d="M159.599 112.607L171.747 112.602C171.908 112.602 172.039 112.737 172.039 112.902L172.041 115.3C172.041 115.466 171.91 115.6 171.749 115.6L159.601 115.605C159.44 115.605 159.309 115.47 159.309 115.305L159.308 112.907C159.307 112.741 159.438 112.607 159.599 112.607Z" fill="#808185"/>
<path d="M206.951 112.602L221.771 112.632C222.021 112.633 222.224 112.842 222.224 113.1L222.222 115.139C222.222 115.397 222.018 115.605 221.768 115.605L206.948 115.575C206.698 115.575 206.495 115.365 206.495 115.108L206.497 113.068C206.497 112.811 206.701 112.602 206.951 112.602Z" fill="#FFC107"/>
<path d="M96.7662 129.867C98.214 129.867 99.3877 128.69 99.3877 127.239C99.3877 125.788 98.214 124.612 96.7662 124.612C95.3183 124.612 94.1447 125.788 94.1447 127.239C94.1447 128.69 95.3183 129.867 96.7662 129.867Z" fill="#B9B9B9"/>
<path d="M104.256 129.867C105.704 129.867 106.877 128.69 106.877 127.239C106.877 125.788 105.704 124.612 104.256 124.612C102.808 124.612 101.634 125.788 101.634 127.239C101.634 128.69 102.808 129.867 104.256 129.867Z" fill="#B9B9B9"/>
<path d="M111.746 129.867C113.194 129.867 114.368 128.69 114.368 127.239C114.368 125.788 113.194 124.612 111.746 124.612C110.298 124.612 109.125 125.788 109.125 127.239C109.125 128.69 110.298 129.867 111.746 129.867Z" fill="#03A2EA"/>
<path d="M119.236 129.867C120.684 129.867 121.858 128.69 121.858 127.239C121.858 125.788 120.684 124.612 119.236 124.612C117.788 124.612 116.615 125.788 116.615 127.239C116.615 128.69 117.788 129.867 119.236 129.867Z" fill="#B9B9B9"/>
<path d="M126.352 129.867C128.006 129.867 129.348 128.69 129.348 127.239C129.348 125.788 128.006 124.612 126.352 124.612C124.697 124.612 123.356 125.788 123.356 127.239C123.356 128.69 124.697 129.867 126.352 129.867Z" fill="#B9B9B9"/>
<path d="M190.766 69.8176H131.595V70.5682H190.766V69.8176Z" fill="#E8E9EB"/>
<path d="M227.467 72.82C229.122 72.82 230.463 71.4757 230.463 69.8175C230.463 68.1593 229.122 66.8151 227.467 66.8151C225.812 66.8151 224.471 68.1593 224.471 69.8175C224.471 71.4757 225.812 72.82 227.467 72.82Z" fill="#03A2EA"/>
<path d="M219.977 72.82C221.632 72.82 222.973 71.4757 222.973 69.8175C222.973 68.1593 221.632 66.8151 219.977 66.8151C218.322 66.8151 216.981 68.1593 216.981 69.8175C216.981 71.4757 218.322 72.82 219.977 72.82Z" fill="#03A2EA"/>
<path d="M211.738 72.82C213.393 72.82 214.734 71.4757 214.734 69.8175C214.734 68.1593 213.393 66.8151 211.738 66.8151C210.083 66.8151 208.742 68.1593 208.742 69.8175C208.742 71.4757 210.083 72.82 211.738 72.82Z" fill="#459E48"/>
<path d="M204.248 72.82C205.903 72.82 207.244 71.4757 207.244 69.8175C207.244 68.1593 205.903 66.8151 204.248 66.8151C202.593 66.8151 201.252 68.1593 201.252 69.8175C201.252 71.4757 202.593 72.82 204.248 72.82Z" fill="#03A2EA"/>
<path d="M177.713 123.862H227.038C227.275 123.862 227.467 124.047 227.467 124.275V130.204C227.467 130.432 227.275 130.617 227.038 130.617H177.713C177.476 130.617 177.284 130.432 177.284 130.204V124.275C177.284 124.047 177.476 123.862 177.713 123.862Z" fill="white"/>
<path fill-rule="evenodd" clip-rule="evenodd" d="M177.803 124.054C177.618 124.054 177.468 124.212 177.468 124.406V130.824C177.468 131.018 177.618 131.175 177.803 131.175H226.948C227.133 131.175 227.283 131.018 227.283 130.824V124.406C227.283 124.212 227.133 124.054 226.948 124.054H177.803ZM177.284 124.406C177.284 124.105 177.516 123.862 177.803 123.862H226.948C227.234 123.862 227.467 124.105 227.467 124.406V130.824C227.467 131.124 227.234 131.368 226.948 131.368H177.803C177.516 131.368 177.284 131.124 177.284 130.824V124.406Z" fill="#B9B9B9"/>
<path d="M73.7839 41.0184L70.6329 42.8604V46.5444L73.7839 48.3865L76.9349 46.5444V42.8604L73.7839 41.0184ZM74.5919 45.1613L73.7839 45.6329L72.976 45.1613V44.2183L73.7839 43.7468L74.5919 44.2183V45.1613Z" fill="white"/>
<path d="M72.7336 49.9633V48.9142L71.6833 48.3862L70.6329 48.9142V49.9633L71.6833 50.4913L72.7336 49.9633Z" fill="white"/>
</g>
<path d="M279.076 36.0203C277.363 42.5603 273.348 48.2625 267.767 52.0793C262.187 55.8961 255.416 57.571 248.698 56.7963C241.981 56.0216 235.769 52.8493 231.203 47.8624C226.637 42.8754 224.024 36.4088 223.844 29.6507C223.665 22.8926 225.931 16.2969 230.225 11.0756C234.52 5.85438 240.555 2.35821 247.222 1.22958C253.889 0.10095 260.74 1.41566 266.515 4.93212C272.29 8.44858 276.603 13.9306 278.66 20.3709C280.276 25.4433 280.42 30.8696 279.076 36.0203Z" fill="#07D8B4"/>
<rect x="239.968" y="28.0863" width="13.4274" height="7.14667" rx="1.64187" transform="rotate(48.4799 239.968 28.0863)" fill="white"/>
<rect width="32.8183" height="7.0081" rx="1.64187" transform="matrix(-0.748724 0.662882 0.662882 0.748724 264.307 15.4661)" fill="white"/>
<path d="M316 212C316 228.569 243.918 242 155 242C66.0822 242 0 223.569 0 207C0 190.431 72.0822 177 161 177C249.918 177 316 195.431 316 212Z" fill="#D3F1FF"/>
<path d="M282.969 217.181H35.285C33.0878 217.184 30.9791 216.293 29.4225 214.703C27.8659 213.113 26.9888 210.955 26.9839 208.702C116.771 198.047 204.867 198.047 291.27 208.702C291.275 209.814 291.067 210.916 290.657 211.945C290.024 213.496 288.958 214.819 287.593 215.751C286.229 216.682 284.626 217.18 282.987 217.181H282.969Z" fill="#B7B7B7"/>
<path d="M291.27 209.212L26.9839 208.709L57.6379 155.809L57.785 155.558L259.052 156.356L291.27 209.212Z" fill="#E0E0E0"/>
<path d="M57.5575 39.3574V156.62H258.997V39.3574C258.997 37.9428 258.726 36.542 258.198 35.235C257.67 33.928 256.896 32.7406 255.92 31.7406C254.944 30.7407 253.785 29.9478 252.51 29.4074C251.235 28.8671 249.868 28.5898 248.488 28.5914H68.0657C66.6855 28.5889 65.3185 28.8657 64.0429 29.4057C62.7673 29.9458 61.6082 30.7387 60.632 31.7388C59.6559 32.7389 58.8818 33.9267 58.3542 35.234C57.8266 36.5413 57.5559 37.9426 57.5575 39.3574V39.3574Z" fill="#231F20"/>
<path d="M65.2641 161.886C64.9739 161.886 64.6893 161.969 64.4425 162.125C64.2009 162.277 64.0055 162.494 63.8785 162.754L54.0693 184.122C53.9635 184.356 53.9171 184.613 53.9344 184.87C53.9523 185.126 54.0346 185.373 54.1735 185.587C54.3122 185.803 54.502 185.981 54.7252 186.102C54.9499 186.225 55.2003 186.289 55.4548 186.291H261.792C262.054 186.29 262.311 186.223 262.54 186.096C262.767 185.971 262.958 185.787 263.092 185.562C263.227 185.342 263.305 185.091 263.319 184.832C263.331 184.571 263.276 184.311 263.16 184.078L252.492 162.71C252.371 162.448 252.177 162.23 251.934 162.081C251.693 161.929 251.414 161.85 251.131 161.855L65.2641 161.886ZM139.103 190.036C138.78 190.037 138.467 190.15 138.214 190.357C137.96 190.563 137.778 190.847 137.693 191.168L135.339 200.331C135.283 200.557 135.276 200.794 135.32 201.023C135.363 201.252 135.456 201.469 135.59 201.657C135.723 201.847 135.896 202.002 136.097 202.111C136.298 202.221 136.522 202.28 136.749 202.285H181.504C181.735 202.285 181.964 202.227 182.169 202.118C182.375 202.009 182.553 201.851 182.687 201.657C182.824 201.459 182.912 201.231 182.944 200.991C182.977 200.75 182.954 200.504 182.877 200.274L179.855 191.111C179.755 190.812 179.569 190.551 179.321 190.363C179.075 190.18 178.779 190.081 178.475 190.08L139.103 190.036Z" fill="#B7B7B7"/>
<rect x="79.4412" y="47.9009" width="157.372" height="91.7201" rx="10" fill="white"/>
<mask id="mask1_993_248" style="mask-type:alpha" maskUnits="userSpaceOnUse" x="66" y="38" width="184" height="109">
<path d="M69.4834 38.6975C67.6406 38.6975 66.1835 40.2056 66.1835 42.0152V142.97C66.1835 144.823 67.6834 146.288 69.4834 146.288H246.179C248.022 146.288 249.479 144.78 249.479 142.97V42.0152C249.479 40.1625 247.979 38.6975 246.179 38.6975H69.4834Z" fill="#03A9F4"/>
</mask>
<g mask="url(#mask1_993_248)">
<path d="M253.262 26.2233H62.4006V146.288H253.262V26.2233Z" fill="#EDECEC"/>
<path d="M230.463 65.3138H82.1602V138.874H230.463V65.3138Z" fill="#CDD0DE"/>
<path d="M234.208 61.5609H86.6542V135.872H234.208V61.5609Z" fill="white"/>
<path d="M97.4634 82.5834L112.545 82.5779C112.723 82.5779 112.868 82.728 112.868 82.9128L112.87 85.2399C112.87 85.4247 112.725 85.5747 112.547 85.5749L97.4654 85.5804C97.2871 85.5804 97.1421 85.4304 97.142 85.2455L97.1405 82.9185C97.1403 82.7336 97.2851 82.5836 97.4634 82.5834Z" fill="#808185"/>
<path d="M120.64 82.5817L131.312 82.5779C131.467 82.5779 131.593 82.7012 131.593 82.8532L131.595 85.3012C131.595 85.4532 131.469 85.5766 131.314 85.5766L120.642 85.5804C120.487 85.5804 120.361 85.4572 120.361 85.3051L120.36 82.8572C120.359 82.7052 120.485 82.5817 120.64 82.5817Z" fill="#808185"/>
<path d="M181.375 82.5836L197.907 82.5779C198.099 82.5779 198.254 82.731 198.254 82.9194L198.256 85.2328C198.256 85.4215 198.101 85.5745 197.909 85.5747L181.377 85.5804C181.186 85.5804 181.031 85.4273 181.03 85.2389L181.029 82.9255C181.029 82.7369 181.184 82.5838 181.375 82.5836Z" fill="#808185"/>
<path d="M155.933 82.5849L175.414 82.5779C175.618 82.5779 175.784 82.7462 175.784 82.9534L175.786 85.1975C175.786 85.4049 175.62 85.5734 175.416 85.5734L155.935 85.5804C155.73 85.5804 155.564 85.4121 155.564 85.2049L155.563 82.9608C155.562 82.7534 155.728 82.5849 155.933 82.5849Z" fill="#808185"/>
<path d="M204.615 82.5851L224.103 82.5779C224.305 82.5779 224.47 82.7477 224.47 82.9572L224.471 85.1937C224.471 85.403 224.307 85.5732 224.105 85.5732L204.616 85.5804C204.414 85.5804 204.25 85.4106 204.25 85.2011L204.248 82.9646C204.248 82.7553 204.412 82.5851 204.615 82.5851Z" fill="#808185"/>
<path d="M91.5005 68.3164H126C126.194 68.3164 126.352 68.4768 126.352 68.6746V71.7112C126.352 71.909 126.194 72.0695 126 72.0695H91.5005C91.3062 72.0695 91.1486 71.909 91.1486 71.7112V68.6746C91.1486 68.4768 91.3062 68.3164 91.5005 68.3164Z" fill="#808185"/>
<path d="M253.262 37.658H62.4006V52.731H253.262V37.658Z" fill="#03A9F4"/>
<path d="M241.311 49.4387C243.341 49.4387 244.987 47.7893 244.987 45.7547C244.987 43.72 243.341 42.0706 241.311 42.0706C239.28 42.0706 237.635 43.72 237.635 45.7547C237.635 47.7893 239.28 49.4387 241.311 49.4387Z" fill="white"/>
<path d="M91.4797 89.3335H227.136C227.319 89.3335 227.467 89.4836 227.467 89.6685V98.7565C227.467 98.9413 227.319 99.0915 227.136 99.0915H91.4797C91.297 99.0915 91.1486 98.9413 91.1486 98.7565V89.6685C91.1486 89.4836 91.297 89.3335 91.4797 89.3335Z" fill="#E8E9EB"/>
<path d="M206.951 93.0865L221.771 93.1162C222.021 93.1168 222.224 93.3262 222.224 93.5838L222.222 95.6232C222.222 95.8807 222.018 96.0896 221.768 96.089L206.948 96.0593C206.698 96.0588 206.495 95.8494 206.495 95.5917L206.497 93.5523C206.497 93.2948 206.701 93.086 206.951 93.0865Z" fill="#FFC107"/>
<path d="M91.4797 99.0915H227.136C227.319 99.0915 227.467 99.2416 227.467 99.4264V108.514C227.467 108.699 227.319 108.849 227.136 108.849H91.4797C91.297 108.849 91.1486 108.699 91.1486 108.514V99.4264C91.1486 99.2416 91.297 99.0915 91.4797 99.0915Z" fill="white"/>
<path d="M91.4797 109.6H227.136C227.319 109.6 227.467 109.75 227.467 109.935V119.023C227.467 119.208 227.319 119.358 227.136 119.358H91.4797C91.297 119.358 91.1486 119.208 91.1486 119.023V109.935C91.1486 109.75 91.297 109.6 91.4797 109.6Z" fill="#E8E9EB"/>
<path d="M97.4148 93.0905L108.099 93.0865C108.251 93.0865 108.374 93.2126 108.374 93.3682L108.376 95.8032C108.376 95.9588 108.253 96.0851 108.101 96.0851L97.4168 96.089C97.2653 96.089 97.1421 95.9629 97.1421 95.8073L97.1405 93.3723C97.1403 93.2168 97.2633 93.0905 97.4148 93.0905Z" fill="#B9B9B9"/>
<path d="M120.733 93.0901L130.47 93.0865C130.676 93.0865 130.844 93.2611 130.844 93.4764L130.846 95.6952C130.846 95.9105 130.678 96.0852 130.472 96.0854L120.735 96.089C120.529 96.089 120.361 95.9144 120.361 95.6991L120.36 93.4804C120.359 93.265 120.527 93.0903 120.733 93.0901Z" fill="#808185"/>
<path d="M187.422 93.0901L197.853 93.0865C198.075 93.0865 198.254 93.2611 198.254 93.4764L198.256 95.6952C198.256 95.9105 198.077 96.0852 197.855 96.0854L187.424 96.089C187.202 96.089 187.023 95.9145 187.022 95.6991L187.021 93.4804C187.021 93.265 187.2 93.0903 187.422 93.0901Z" fill="#808185"/>
<path d="M184.474 102.098L197.805 102.094C198.053 102.094 198.255 102.291 198.255 102.534L198.256 104.651C198.256 104.894 198.055 105.092 197.807 105.092L184.476 105.096C184.228 105.096 184.027 104.899 184.026 104.656L184.025 102.539C184.025 102.296 184.226 102.098 184.474 102.098Z" fill="#808185"/>
<path d="M120.641 102.097L131.311 102.094C131.466 102.094 131.593 102.217 131.593 102.368L131.595 104.818C131.595 104.97 131.469 105.092 131.313 105.092L120.643 105.096C120.488 105.096 120.361 104.973 120.361 104.822L120.36 102.372C120.359 102.22 120.486 102.097 120.641 102.097Z" fill="#808185"/>
<path d="M97.4147 102.847L108.099 102.844C108.251 102.844 108.374 102.939 108.374 103.056L108.376 104.882C108.376 104.999 108.253 105.093 108.101 105.093L97.4167 105.096C97.2653 105.096 97.1421 105.002 97.1421 104.885L97.1405 103.059C97.1403 102.942 97.2632 102.847 97.4147 102.847Z" fill="#B9B9B9"/>
<path d="M138.617 82.5834L149.288 82.5779C149.444 82.5779 149.57 82.701 149.57 82.8526L149.571 85.3C149.571 85.4517 149.445 85.5749 149.29 85.5749L138.618 85.5804C138.463 85.5804 138.337 85.4573 138.337 85.3057L138.336 82.8583C138.336 82.7067 138.462 82.5834 138.617 82.5834Z" fill="#808185"/>
<path d="M138.652 93.0937L152.25 93.0865C152.424 93.0865 152.566 93.2252 152.566 93.3962L152.567 95.772C152.567 95.943 152.425 96.0819 152.251 96.0819L138.653 96.089C138.479 96.089 138.337 95.9503 138.337 95.7794L138.336 93.4035C138.336 93.2325 138.477 93.0937 138.652 93.0937Z" fill="#B9B9B9"/>
<path d="M138.631 102.849L150.772 102.844C150.935 102.844 151.068 102.944 151.068 103.067L151.069 104.869C151.069 104.992 150.937 105.091 150.774 105.092L138.632 105.096C138.469 105.096 138.337 104.997 138.337 104.874L138.336 103.072C138.336 102.949 138.468 102.849 138.631 102.849Z" fill="#B9B9B9"/>
<path d="M159.599 93.0909L171.747 93.0865C171.908 93.0865 172.039 93.221 172.039 93.3866L172.041 95.7842C172.041 95.9499 171.91 96.0845 171.749 96.0846L159.601 96.089C159.44 96.089 159.309 95.9546 159.309 95.7889L159.308 93.3913C159.307 93.2257 159.438 93.0911 159.599 93.0909Z" fill="#808185"/>
<path d="M159.599 102.098L171.747 102.094C171.908 102.094 172.039 102.228 172.039 102.394L172.041 104.791C172.041 104.957 171.91 105.092 171.749 105.092L159.601 105.096C159.44 105.096 159.309 104.962 159.309 104.796L159.308 102.399C159.307 102.233 159.438 102.098 159.599 102.098Z" fill="#808185"/>
<path d="M206.951 102.094L221.771 102.123C222.021 102.124 222.224 102.333 222.224 102.591L222.222 104.63C222.222 104.888 222.018 105.097 221.768 105.096L206.948 105.067C206.698 105.066 206.495 104.857 206.495 104.599L206.497 102.56C206.497 102.302 206.701 102.093 206.951 102.094Z" fill="#FFC107"/>
<path d="M184.474 112.607L197.805 112.602C198.053 112.602 198.255 112.8 198.255 113.043L198.256 115.159C198.256 115.403 198.055 115.6 197.807 115.6L184.476 115.605C184.228 115.605 184.027 115.407 184.026 115.164L184.025 113.048C184.025 112.805 184.226 112.607 184.474 112.607Z" fill="#808185"/>
<path d="M120.641 112.606L131.311 112.602C131.466 112.602 131.593 112.725 131.593 112.876L131.595 115.327C131.595 115.478 131.469 115.601 131.313 115.601L120.643 115.605C120.488 115.605 120.361 115.482 120.361 115.331L120.36 112.88C120.359 112.729 120.486 112.606 120.641 112.606Z" fill="#808185"/>
<path d="M97.4147 113.357L108.099 113.353C108.251 113.353 108.374 113.479 108.374 113.635L108.376 116.07C108.376 116.225 108.253 116.352 108.101 116.352L97.4167 116.356C97.2653 116.356 97.1421 116.229 97.1421 116.074L97.1405 113.639C97.1403 113.483 97.2632 113.357 97.4147 113.357Z" fill="#B9B9B9"/>
<path d="M138.631 113.359L150.772 113.353C150.935 113.353 151.068 113.486 151.068 113.65L151.069 116.052C151.069 116.216 150.937 116.349 150.774 116.349L138.632 116.356C138.469 116.356 138.337 116.223 138.337 116.059L138.336 113.656C138.336 113.493 138.468 113.36 138.631 113.359Z" fill="#B9B9B9"/>
<path d="M159.599 112.607L171.747 112.602C171.908 112.602 172.039 112.737 172.039 112.902L172.041 115.3C172.041 115.466 171.91 115.6 171.749 115.6L159.601 115.605C159.44 115.605 159.309 115.47 159.309 115.305L159.308 112.907C159.307 112.741 159.438 112.607 159.599 112.607Z" fill="#808185"/>
<path d="M206.951 112.602L221.771 112.632C222.021 112.633 222.224 112.842 222.224 113.1L222.222 115.139C222.222 115.397 222.018 115.605 221.768 115.605L206.948 115.575C206.698 115.575 206.495 115.365 206.495 115.108L206.497 113.068C206.497 112.811 206.701 112.602 206.951 112.602Z" fill="#FFC107"/>
<path d="M96.7662 129.866C98.214 129.866 99.3877 128.69 99.3877 127.239C99.3877 125.788 98.214 124.612 96.7662 124.612C95.3183 124.612 94.1447 125.788 94.1447 127.239C94.1447 128.69 95.3183 129.866 96.7662 129.866Z" fill="#B9B9B9"/>
<path d="M104.256 129.866C105.704 129.866 106.877 128.69 106.877 127.239C106.877 125.788 105.704 124.612 104.256 124.612C102.808 124.612 101.634 125.788 101.634 127.239C101.634 128.69 102.808 129.866 104.256 129.866Z" fill="#B9B9B9"/>
<path d="M111.746 129.866C113.194 129.866 114.368 128.69 114.368 127.239C114.368 125.788 113.194 124.612 111.746 124.612C110.298 124.612 109.125 125.788 109.125 127.239C109.125 128.69 110.298 129.866 111.746 129.866Z" fill="#03A2EA"/>
<path d="M119.236 129.866C120.684 129.866 121.858 128.69 121.858 127.239C121.858 125.788 120.684 124.612 119.236 124.612C117.788 124.612 116.615 125.788 116.615 127.239C116.615 128.69 117.788 129.866 119.236 129.866Z" fill="#B9B9B9"/>
<path d="M126.352 129.866C128.006 129.866 129.348 128.69 129.348 127.239C129.348 125.788 128.006 124.612 126.352 124.612C124.697 124.612 123.356 125.788 123.356 127.239C123.356 128.69 124.697 129.866 126.352 129.866Z" fill="#B9B9B9"/>
<path d="M190.766 69.8176H131.595V70.5682H190.766V69.8176Z" fill="#E8E9EB"/>
<path d="M227.467 72.82C229.122 72.82 230.463 71.4757 230.463 69.8175C230.463 68.1593 229.122 66.8151 227.467 66.8151C225.812 66.8151 224.471 68.1593 224.471 69.8175C224.471 71.4757 225.812 72.82 227.467 72.82Z" fill="#03A2EA"/>
<path d="M219.977 72.82C221.632 72.82 222.973 71.4757 222.973 69.8175C222.973 68.1593 221.632 66.8151 219.977 66.8151C218.322 66.8151 216.981 68.1593 216.981 69.8175C216.981 71.4757 218.322 72.82 219.977 72.82Z" fill="#03A2EA"/>
<path d="M211.738 72.82C213.393 72.82 214.734 71.4757 214.734 69.8175C214.734 68.1593 213.393 66.8151 211.738 66.8151C210.083 66.8151 208.742 68.1593 208.742 69.8175C208.742 71.4757 210.083 72.82 211.738 72.82Z" fill="#459E48"/>
<path d="M204.248 72.82C205.903 72.82 207.244 71.4757 207.244 69.8175C207.244 68.1593 205.903 66.8151 204.248 66.8151C202.593 66.8151 201.252 68.1593 201.252 69.8175C201.252 71.4757 202.593 72.82 204.248 72.82Z" fill="#03A2EA"/>
<path d="M177.713 123.862H227.038C227.275 123.862 227.467 124.047 227.467 124.275V130.204C227.467 130.432 227.275 130.617 227.038 130.617H177.713C177.476 130.617 177.284 130.432 177.284 130.204V124.275C177.284 124.047 177.476 123.862 177.713 123.862Z" fill="white"/>
<path fill-rule="evenodd" clip-rule="evenodd" d="M177.803 124.054C177.618 124.054 177.468 124.212 177.468 124.405V130.824C177.468 131.018 177.618 131.175 177.803 131.175H226.948C227.133 131.175 227.283 131.018 227.283 130.824V124.405C227.283 124.212 227.133 124.054 226.948 124.054H177.803ZM177.284 124.405C177.284 124.105 177.516 123.862 177.803 123.862H226.948C227.234 123.862 227.467 124.105 227.467 124.405V130.824C227.467 131.124 227.234 131.368 226.948 131.368H177.803C177.516 131.368 177.284 131.124 177.284 130.824V124.405Z" fill="#B9B9B9"/>
<path d="M73.7839 41.0184L70.6329 42.8604V46.5444L73.7839 48.3865L76.9349 46.5444V42.8604L73.7839 41.0184ZM74.5919 45.1613L73.7839 45.6329L72.976 45.1613V44.2183L73.7839 43.7468L74.5919 44.2183V45.1613Z" fill="white"/>
<path d="M72.7336 49.9633V48.9142L71.6833 48.3862L70.6329 48.9142V49.9633L71.6833 50.4913L72.7336 49.9633Z" fill="white"/>
</g>
<path d="M279.076 36.0203C277.363 42.5602 273.348 48.2625 267.767 52.0792C262.187 55.896 255.416 57.571 248.698 56.7963C241.981 56.0216 235.769 52.8493 231.203 47.8624C226.637 42.8754 224.024 36.4088 223.844 29.6507C223.665 22.8925 225.931 16.2969 230.226 11.0756C234.52 5.85434 240.556 2.35817 247.222 1.22954C253.889 0.100913 260.74 1.41562 266.515 4.93208C272.291 8.44854 276.603 13.9306 278.66 20.3708C280.276 25.4432 280.42 30.8696 279.076 36.0203Z" fill="#07D8B4"/>
<rect x="239.968" y="28.0863" width="13.4274" height="7.14667" rx="1.64187" transform="rotate(48.4799 239.968 28.0863)" fill="white"/>
<rect width="32.8183" height="7.0081" rx="1.64187" transform="matrix(-0.748724 0.662882 0.662882 0.748724 264.307 15.466)" fill="white"/>
</svg>
