<svg width="306" height="253" viewBox="0 0 306 253" fill="none" xmlns="http://www.w3.org/2000/svg">
<path fill-rule="evenodd" clip-rule="evenodd" d="M159.949 195.052C128.883 193.371 97.0545 199.276 70.9024 185.282C38.7439 168.074 0.057479 143.586 4.5521 111.9C9.02218 80.3874 60.371 74.0824 89.5768 53.6341C113.531 36.8624 127.458 10.226 157.953 4.49726C194.532 -2.3747 235.771 0.600401 264.209 20.827C293.972 41.9957 304.606 76.0982 304.541 108.758C304.478 141.058 295.444 176.876 263.864 195.724C234.538 213.226 195.875 196.997 159.949 195.052Z" fill="#D3F1FF"/>
<ellipse cx="251.322" cy="234.482" rx="51.6493" ry="11.9191" fill="#D3F1FF"/>
<path d="M144.547 237.462C224.363 237.462 289.066 232.571 289.066 226.536C289.066 220.502 224.363 215.611 144.547 215.611C64.7318 215.611 0.0285645 220.502 0.0285645 226.536C0.0285645 232.571 64.7318 237.462 144.547 237.462Z" fill="#D3F1FF"/>
<path d="M235.737 34.5101H91.6899C88.7285 34.5101 86.3279 36.9118 86.3279 39.8744V218.433C86.3279 221.396 88.7285 223.798 91.6899 223.798H235.737C238.698 223.798 241.099 221.396 241.099 218.433V39.8744C241.099 36.9118 238.698 34.5101 235.737 34.5101Z" fill="#2F2E41"/>
<path d="M222.909 43.8727H104.484C99.5138 43.8727 95.4844 47.9022 95.4844 52.8727V205.881C95.4844 210.852 99.5138 214.881 104.484 214.881H222.909C227.879 214.881 231.909 210.852 231.909 205.881V52.8727C231.909 47.9022 227.879 43.8727 222.909 43.8727Z" fill="white"/>
<path d="M231.559 225.193V231.084C231.559 236.239 244.121 240.412 259.63 240.412C275.14 240.412 287.702 236.239 287.702 231.084V225.193H231.559Z" fill="#DCB533"/>
<path d="M259.651 234.521C244.148 234.521 231.58 230.345 231.58 225.193C231.58 220.041 244.148 215.865 259.651 215.865C275.155 215.865 287.723 220.041 287.723 225.193C287.723 230.345 275.155 234.521 259.651 234.521Z" fill="#FFD037"/>
<path d="M282.497 225.193C282.497 229.386 272.255 232.782 259.652 232.782C247.047 232.782 236.785 229.386 236.785 225.193C236.785 221 247.027 217.604 259.63 217.604C272.234 217.604 282.497 221 282.497 225.193Z" fill="#F0B238"/>
<path d="M234.486 217.501V223.393C234.486 228.547 247.048 232.72 262.557 232.72C278.066 232.72 290.628 228.547 290.628 223.393V217.501H234.486Z" fill="#DCB533"/>
<path d="M262.557 226.829C247.053 226.829 234.485 222.653 234.485 217.501C234.485 212.35 247.053 208.173 262.557 208.173C278.06 208.173 290.628 212.35 290.628 217.501C290.628 222.653 278.06 226.829 262.557 226.829Z" fill="#FFD037"/>
<path d="M232.542 209.831V215.722C232.542 220.877 245.104 225.05 260.613 225.05C276.122 225.05 288.684 220.877 288.684 215.722V209.831H232.542Z" fill="#DCB533"/>
<path d="M260.613 219.158C245.11 219.158 232.542 214.982 232.542 209.83C232.542 204.679 245.11 200.503 260.613 200.503C276.116 200.503 288.684 204.679 288.684 209.83C288.684 214.982 276.116 219.158 260.613 219.158Z" fill="#FFD037"/>
<path d="M227.693 202.139V208.031C227.693 213.185 240.254 217.359 255.764 217.359C271.273 217.359 283.835 213.185 283.835 208.031V202.139H227.693Z" fill="#DCB533"/>
<path d="M255.763 211.467C240.26 211.467 227.692 207.291 227.692 202.139C227.692 196.988 240.26 192.811 255.763 192.811C271.267 192.811 283.835 196.988 283.835 202.139C283.835 207.291 271.267 211.467 255.763 211.467Z" fill="#FFD037"/>
<path d="M255.764 209.728C243.146 209.728 232.918 206.331 232.918 202.139C232.918 197.948 243.146 194.55 255.764 194.55C268.381 194.55 278.61 197.948 278.61 202.139C278.61 206.331 268.381 209.728 255.764 209.728Z" fill="#F0B238"/>
<path d="M230.598 194.448V200.339C230.598 205.494 243.16 209.667 258.669 209.667C274.178 209.667 286.74 205.494 286.74 200.339V194.448H230.598Z" fill="#DCB533"/>
<path d="M258.669 203.776C243.166 203.776 230.598 199.599 230.598 194.448C230.598 189.296 243.166 185.12 258.669 185.12C274.172 185.12 286.74 189.296 286.74 194.448C286.74 199.599 274.172 203.776 258.669 203.776Z" fill="#FFD037"/>
<path d="M258.669 202.037C246.052 202.037 235.823 198.639 235.823 194.448C235.823 190.256 246.052 186.859 258.669 186.859C271.287 186.859 281.515 190.256 281.515 194.448C281.515 198.639 271.287 202.037 258.669 202.037Z" fill="#DCB533"/>
<path d="M234.498 187.318V193.209C234.498 198.364 247.06 202.537 262.569 202.537C278.078 202.537 290.641 198.364 290.641 193.209V187.318H234.498Z" fill="#DCB533"/>
<path d="M262.569 196.646C247.066 196.646 234.498 192.469 234.498 187.318C234.498 182.166 247.066 177.99 262.569 177.99C278.073 177.99 290.641 182.166 290.641 187.318C290.641 192.469 278.073 196.646 262.569 196.646Z" fill="#FFD037"/>
<path d="M262.57 194.907C249.952 194.907 239.724 191.509 239.724 187.318C239.724 183.127 249.952 179.729 262.57 179.729C275.187 179.729 285.415 183.127 285.415 187.318C285.415 191.509 275.187 194.907 262.57 194.907Z" fill="#DCB533"/>
<path d="M218.207 236.651L213.665 241.308L207.392 244.636L208.04 250.399L219.934 249.07L221.448 245.965L221.017 243.302L221.883 239.091L218.207 236.651Z" fill="#FFB9B9"/>
<path d="M209.005 248.149L208.627 243.339L195.656 249.456C195.656 249.456 194.651 252.289 197.777 252.727C200.902 253.165 221.686 253.161 221.686 252.074C221.686 250.986 222.255 245.403 222.255 245.403L209.652 249.022L208.997 248.149H209.005Z" fill="#2F2E41"/>
<path d="M235.26 222.881L238.572 228.348L240.185 235.16L245.838 235.908L247.521 224.17L244.941 221.979L242.298 221.764L238.498 219.931L235.26 222.881Z" fill="#FFB9B9"/>
<path d="M243.982 234.505L239.347 233.71L242.029 247.337C242.029 247.337 244.47 248.956 245.627 246.128C246.785 243.299 251.755 223.799 250.726 223.542C249.698 223.285 244.558 221.417 244.558 221.417L244.966 234.104L243.986 234.509L243.982 234.505Z" fill="#2F2E41"/>
<path d="M271.408 168.654C271.408 168.654 276.746 182.513 272.864 188.104C268.983 193.695 250.778 196.856 250.778 196.856L243.253 203.905L223.354 242.317L211.704 239.644L228.209 200.261C228.209 200.261 237.916 184.46 241.558 182.269C245.201 180.079 251.977 171.866 251.977 171.866L271.408 168.654Z" fill="#3669A4"/>
<path d="M246.406 168.283L240.833 172.556L234.145 174.971C234.145 174.971 204.418 182.269 212.912 198.802C221.406 215.334 234.029 227.247 234.029 227.247L245.192 220.925L227.231 195.641L258.785 176.435L246.406 168.283Z" fill="#3669A4"/>
<path d="M233.575 148.601C233.575 148.601 230.959 158.008 231.153 159.891L226.638 173.812L234.2 174.263C234.2 174.263 239.639 159.993 239.639 159.007C239.639 158.021 242.87 149.108 242.87 149.108L233.575 148.602V148.601Z" fill="#FFB9B9"/>
<path d="M242.657 129.158C242.657 129.158 239.204 130.158 236.764 133.918C234.323 137.679 231.176 149.815 231.176 149.815L243.326 151.056L249.168 141.806L242.657 129.157V129.158Z" fill="#07D8B4"/>
<path d="M267.342 125.881L250.784 127.219L242.658 129.067C242.658 129.067 242.209 136.771 241.217 143.753C241.216 149.92 245.192 152.399 245.989 168.206C251.16 175.713 264.681 173.056 269.951 167.607C275.468 156.636 273.061 151.844 275.468 146.002C279.492 136.234 277.348 128.2 277.348 128.2L267.343 125.882L267.342 125.881Z" fill="#07D8B4"/>
<path d="M252.127 120.392C252.127 120.392 253.274 122.985 252.629 124.962C252.129 126.496 250.784 127.312 250.784 127.312C250.784 127.312 249.692 131.944 255.193 132.084C260.902 132.228 267.343 125.973 267.343 125.973L264.528 125.493L261.999 109.816L252.129 120.394L252.127 120.392Z" fill="#FFB9B9"/>
<path d="M277.354 128.199C277.354 128.199 282.899 129.351 283.713 134.431C284.318 138.205 285.421 151.907 285.421 151.907L271.516 150.733C271.516 150.733 271.516 134.949 277.354 128.199Z" fill="#07D8B4"/>
<path d="M258.919 175.279C258.299 172.745 235.57 171.566 235.57 171.566L243.197 185.196C243.197 185.196 259.538 177.813 258.918 175.279H258.919Z" fill="#C1C0C0"/>
<path d="M243.178 185.27L207.734 184.117L201.894 165.676C201.558 164.568 202.386 163.452 203.542 163.452H234.524C235.735 163.452 236.803 164.244 237.154 165.403L243.177 185.27H243.178Z" fill="#D8D8D8"/>
<path d="M219.567 175.541C220.34 175.541 220.966 174.914 220.966 174.141C220.966 173.368 220.34 172.741 219.567 172.741C218.794 172.741 218.167 173.368 218.167 174.141C218.167 174.914 218.794 175.541 219.567 175.541Z" fill="#C1C0C0"/>
<path d="M271.788 162.455L272.808 150.841L282.19 151.634C282.19 151.634 281.386 165.315 280.171 167.455C278.956 169.595 258.792 173.282 257.099 173.482C256.142 173.572 254.808 173.803 253.324 174.412C252.01 174.952 250.997 175.616 250.284 176.164C248.212 178.694 242.033 178.399 241.448 177.112C241.021 176.174 241.629 174.77 242.657 173.634C242.657 173.634 246.082 170.287 249.713 169.658L271.788 162.455Z" fill="#FFB9B9"/>
<path d="M256.748 122.6C263.148 122.6 268.337 117.404 268.337 110.995C268.337 104.587 263.148 99.3911 256.748 99.3911C250.347 99.3911 245.158 104.587 245.158 110.995C245.158 117.404 250.347 122.6 256.748 122.6Z" fill="#FFB9B9"/>
<path d="M257.67 95.3918C257.336 95.5883 256.885 95.2935 256.777 94.9152C256.669 94.5369 256.797 94.1439 256.919 93.7754L257.543 91.9183C257.984 90.6017 258.455 89.2408 259.417 88.2385C260.869 86.7254 263.17 86.3422 265.246 86.6222C267.91 86.9808 270.54 88.4252 271.776 90.8129C273.013 93.2006 272.488 96.5316 270.25 98.0251C273.439 101.685 274.553 105.768 274.377 110.622C274.2 115.476 268.916 119.947 265.471 123.366C264.701 122.899 264.004 120.708 264.426 119.917C264.848 119.121 264.245 118.203 264.765 117.471C265.29 116.739 265.727 117.903 265.197 117.176C264.863 116.714 266.168 115.658 265.673 115.383C263.268 114.051 262.469 111.054 260.957 108.755C259.137 105.984 256.022 104.107 252.719 103.798C250.904 103.626 248.986 103.935 247.494 104.992C246.003 106.048 245.041 107.935 245.384 109.728C244.491 108.819 244.045 107.487 244.212 106.22C244.378 104.952 245.159 103.783 246.258 103.139C245.59 100.924 246.16 98.3739 247.715 96.6593C249.27 94.9447 255.57 95.2346 257.837 95.6866" fill="#2F2E41"/>
<path d="M258.023 103.862C261.026 104.186 263.195 106.79 265.025 109.197C266.08 110.583 267.184 112.116 267.159 113.86C267.135 115.624 265.957 117.132 265.393 118.802C264.475 121.534 265.368 124.781 267.556 126.648C265.393 127.061 263.057 125.435 262.684 123.263C262.248 120.733 264.166 118.296 263.935 115.741C263.734 113.491 261.963 111.757 260.457 110.077C258.951 108.392 257.537 106.161 258.229 104.009" fill="#2F2E41"/>
<rect x="113.682" y="65.5677" width="92.9891" height="6.57498" rx="3.28749" fill="#E6E6E6"/>
<rect x="116.5" y="95" width="85.4748" height="7.51427" rx="3.75713" fill="#E6E6E6"/>
<rect x="117.439" y="126" width="70.4463" height="6.57498" rx="3.28749" fill="#E6E6E6"/>
<rect x="95.8354" y="156" width="100.503" height="6.57498" rx="3.28749" fill="#E6E6E6"/>
<path d="M45.4077 151.075H133.347V226.42C133.347 228.297 131.824 229.823 129.946 229.823H48.8077C46.9311 229.823 45.4062 228.299 45.4062 226.42V151.075H45.4077Z" fill="#D8D8D8"/>
<path d="M48.7901 109.523H129.946C131.822 109.523 133.347 111.047 133.347 112.926V151.077H45.3901V112.926C45.3901 111.048 46.9135 109.523 48.7916 109.523H48.7901Z" fill="#4B5561"/>
<path d="M122.411 117.265H56.3451C55.4063 117.265 54.6451 118.027 54.6451 118.966V141.865C54.6451 142.804 55.4063 143.566 56.3451 143.566H122.411C123.35 143.566 124.111 142.804 124.111 141.865V118.966C124.111 118.027 123.35 117.265 122.411 117.265Z" fill="#95DAF9"/>
<path d="M121.666 117.265H57.0871C55.7374 117.265 54.6438 118.36 54.6438 119.71V120.443H124.11V119.71C124.11 118.36 123.016 117.265 121.666 117.265Z" fill="#4EC2F5"/>
<path d="M71.4715 161.745H56.7102C55.5697 161.745 54.6451 162.67 54.6451 163.811V175.971C54.6451 177.112 55.5697 178.037 56.7102 178.037H71.4715C72.6119 178.037 73.5365 177.112 73.5365 175.971V163.811C73.5365 162.67 72.6119 161.745 71.4715 161.745Z" fill="#B9B9B9"/>
<path d="M71.4715 183.158H56.7102C55.5697 183.158 54.6451 184.083 54.6451 185.224V197.384C54.6451 198.525 55.5697 199.45 56.7102 199.45H71.4715C72.6119 199.45 73.5365 198.525 73.5365 197.384V185.224C73.5365 184.083 72.6119 183.158 71.4715 183.158Z" fill="#B9B9B9"/>
<path d="M71.4715 204.57H56.7102C55.5697 204.57 54.6451 205.495 54.6451 206.635V218.795C54.6451 219.936 55.5697 220.861 56.7102 220.861H71.4715C72.6119 220.861 73.5365 219.936 73.5365 218.795V206.635C73.5365 205.495 72.6119 204.57 71.4715 204.57Z" fill="#B9B9B9"/>
<path d="M97.2202 161.745H82.4589C81.3185 161.745 80.3939 162.67 80.3939 163.811V175.971C80.3939 177.112 81.3185 178.037 82.4589 178.037H97.2202C98.3607 178.037 99.2853 177.112 99.2853 175.971V163.811C99.2853 162.67 98.3607 161.745 97.2202 161.745Z" fill="#B9B9B9"/>
<path d="M97.2202 183.158H82.4589C81.3185 183.158 80.3939 184.083 80.3939 185.224V197.384C80.3939 198.525 81.3185 199.45 82.4589 199.45H97.2202C98.3607 199.45 99.2853 198.525 99.2853 197.384V185.224C99.2853 184.083 98.3607 183.158 97.2202 183.158Z" fill="#B9B9B9"/>
<path d="M97.2202 204.57H82.4589C81.3185 204.57 80.3939 205.495 80.3939 206.635V218.795C80.3939 219.936 81.3185 220.861 82.4589 220.861H97.2202C98.3607 220.861 99.2853 219.936 99.2853 218.795V206.635C99.2853 205.495 98.3607 204.57 97.2202 204.57Z" fill="#B9B9B9"/>
<path d="M122.045 161.745H107.283C106.143 161.745 105.218 162.67 105.218 163.811V175.971C105.218 177.112 106.143 178.037 107.283 178.037H122.045C123.185 178.037 124.11 177.112 124.11 175.971V163.811C124.11 162.67 123.185 161.745 122.045 161.745Z" fill="#B9B9B9"/>
<path d="M108.186 183.158C106.546 183.158 105.218 184.488 105.218 186.126V217.894C105.218 219.534 106.547 220.863 108.186 220.863H121.142C122.782 220.863 124.11 219.533 124.11 217.894V186.126C124.11 184.486 122.781 183.158 121.142 183.158H108.186Z" fill="#07D8B4"/>
<path d="M118.793 203.069H115.775V206.02H113.536V203.069H110.535V200.952H113.536V198.001H115.775V200.952H118.793V203.069Z" fill="white"/>
<path d="M136.471 22.5893H189.877C196.282 22.5893 201.482 27.572 201.482 33.7086V37.1938C201.482 37.599 201.139 37.9249 200.719 37.9249H125.629C125.206 37.9249 124.866 37.5961 124.866 37.1938V33.7086C124.866 27.572 130.067 22.5893 136.471 22.5893Z" fill="#EDCC2B"/>
<path d="M124.863 34.1106V37.1965C124.863 37.6017 125.206 37.9276 125.626 37.9276H200.716C201.139 37.9276 201.479 37.5988 201.479 37.1965V34.1106H124.86H124.863Z" fill="#EAB42D"/>
<path d="M166.294 11H160.052C153.252 11 147.742 16.2822 147.742 22.7946C147.742 23.2556 148.131 23.6285 148.612 23.6285H177.736C178.217 23.6285 178.607 23.2556 178.607 22.7946C178.607 16.2792 173.094 11 166.297 11H166.294ZM163.18 21.3207C160.876 21.3207 159.007 19.5296 159.007 17.3216C159.007 15.1136 160.876 13.3225 163.18 13.3225C165.485 13.3225 167.354 15.1136 167.354 17.3216C167.354 19.5296 165.485 21.3207 163.18 21.3207Z" fill="#EDCC2B"/>
</svg>
