<svg width="275" height="242" viewBox="0 0 275 242" fill="none" xmlns="http://www.w3.org/2000/svg">
<ellipse cx="69.6841" cy="228.5" rx="53.5" ry="13.5" fill="#D3F1FF"/>
<path fill-rule="evenodd" clip-rule="evenodd" d="M143.299 189.27C115.064 188.068 88.3787 183.317 65.3672 169.946C37.8619 153.963 0.379694 135.974 3.61154 108.103C6.84012 80.2605 53.8222 75.0448 78.6037 55.7967C100.181 39.0377 107.79 5.90014 137.169 4.36775C166.585 2.83342 179.574 33.5894 201.762 49.3728C225.799 66.4705 263.716 73.555 270.56 99.2521C277.997 127.177 262.319 158.449 235.806 177.202C211.037 194.722 175.624 190.646 143.299 189.27Z" fill="#D3F1FF"/>
<ellipse cx="211.684" cy="210.5" rx="60.5" ry="14.5" fill="#D3F1FF"/>
<path d="M83.9088 68.543L82.6603 82.6299L102.12 104.082C102.12 104.082 112.928 112.935 111.276 116.403C109.8 119.493 100.455 116.807 98.702 111.056L73.9458 91.5966L69.103 70.8509L83.9088 68.543V68.543Z" fill="#BE6F72"/>
<path d="M83.2025 207.874L82.1432 222.755L71.9027 222.049L73.6683 207.874H83.2025Z" fill="#BE6F72"/>
<path d="M80.3777 218.152C80.3777 218.152 81.7902 212.842 83.2027 213.196L85.3214 217.092C85.3214 217.092 94.8556 225.946 97.6806 226.299C97.6806 226.299 106.862 229.136 97.6806 233.386H87.087C87.087 233.386 80.0246 233.033 78.6121 233.386C77.1996 233.74 69.0779 233.74 68.7248 231.621C68.3716 229.502 69.7841 225.239 69.7841 225.239C69.7841 225.239 71.0831 214.785 72.5586 216.828C73.3279 217.925 74.1729 218.959 75.0809 219.93L80.3777 218.164V218.152Z" fill="#2F2E41"/>
<path d="M56.7188 208.05L55.6594 222.932L45.4189 222.226L47.1845 208.05H56.7188Z" fill="#BE6F72"/>
<path d="M53.8937 218.329C53.8937 218.329 55.3062 213.019 56.7187 213.372L58.8374 217.269C58.8374 217.269 68.3716 226.122 71.1966 226.476C71.1966 226.476 80.3777 229.313 71.1966 233.563H60.603C60.603 233.563 53.5406 232.857 52.1281 233.21C50.7156 233.563 42.5939 233.563 42.2408 231.444C41.8876 229.326 43.3001 225.416 43.3001 225.416C43.3001 225.416 44.5991 214.961 46.0746 217.004C46.8439 218.102 47.6889 219.136 48.5969 220.107L53.8937 218.341V218.329Z" fill="#2F2E41"/>
<path d="M96.9742 116.655L98.7398 119.14V124.096L87.44 166.256L85.3213 175.462C85.3213 175.462 85.3213 210.888 83.2026 210.888C81.0839 210.888 71.5496 211.947 71.5496 209.828C71.5496 207.697 72.2559 159.522 72.2559 159.522L62.7216 177.594C62.7216 177.594 58.4842 209.475 57.0717 209.828C55.6593 210.182 45.7719 209.828 45.0657 207.697L47.1844 187.506C47.1844 187.506 46.8313 164.831 52.8343 159.875C52.8343 159.875 53.8937 153.846 54.953 151.375C56.0124 148.89 57.778 147.478 56.7186 145.712C55.6593 143.946 58.1311 124.462 58.1311 124.462C58.1311 124.462 57.4249 118.434 58.8373 116.668C60.2498 114.902 96.9742 116.668 96.9742 116.668V116.655Z" fill="#2F2E41"/>
<path d="M85.3213 23.9866C84.8925 30.9859 81.891 39.8517 74.3746 36.6863C68.8003 34.3406 63.4279 30.9985 63.4279 23.9866C63.4279 16.9746 68.3337 11.2869 74.3746 11.2869C80.4154 11.2869 86.2167 9.28169 85.3213 23.9866V23.9866Z" fill="#BE6F72"/>
<path d="M67.4888 31.806L68.1951 38.8936L65.3701 41.3781L83.3792 49.8782C78.94 42.2735 77.6284 35.3498 79.848 30.3936L67.4888 31.806V31.806Z" fill="#BE6F72"/>
<path d="M79.848 42.4374C79.848 42.4374 82.6729 48.0999 79.1417 46.6874L68.195 38.8936C68.195 38.8936 56.189 43.4967 51.9515 48.8187L55.4827 86.3755L58.3077 112.948C58.3077 112.948 56.5421 116.138 56.8952 116.492C57.2483 116.845 57.6014 116.138 57.2483 117.198C56.8952 118.257 55.8359 117.198 56.8952 118.257C57.9546 119.316 58.4212 117.954 57.3618 119.026C56.3025 120.098 57.9546 120.742 57.9546 120.742C57.9546 120.742 60.3507 115.029 71.7262 118.61C84.9808 122.785 89.3822 126.757 98.5633 118.963L87.9697 78.5816L87.1121 63.3471C86.8221 58.2647 85.9267 53.2201 84.4259 48.3521C83.6188 45.7163 82.2063 43.1436 79.848 41.7311V42.4374V42.4374Z" fill="#4EC2F5"/>
<path d="M60.956 73.4361L55.6592 86.5394L68.0184 112.758C68.0184 112.758 70.8434 115.949 69.0778 119.846C68.1697 121.927 67.0978 123.945 65.8997 125.874C65.8997 125.874 62.7216 124.462 62.7216 118.434L44.7125 92.5676L46.125 71.3174L60.956 73.4487V73.4361Z" fill="#BE6F72"/>
<path d="M61.6623 50.0547C64.7269 53.5355 65.7862 58.353 64.4872 62.8048C62.3685 70.5987 60.6029 76.6269 60.6029 76.6269C60.6029 76.6269 52.1281 70.2456 45.0657 74.1425C45.0657 74.1425 46.125 51.1141 52.1281 48.9953C58.1311 46.864 61.6623 50.0547 61.6623 50.0547V50.0547Z" fill="#4EC2F5"/>
<path d="M65.3827 12.8383C65.3827 12.8383 68.7247 5.57411 75.1313 7.25142C81.5379 8.92874 85.17 11.451 85.4474 13.9607C85.5861 16.0542 85.5357 18.1603 85.3087 20.2538C85.3087 20.2538 84.6151 15.0831 80.1506 16.2055C75.6862 17.3279 68.7247 16.483 68.7247 16.483L67.6149 26.5469C67.6149 26.5469 65.7106 24.5164 64.3233 25.6262C62.9361 26.7487 60.9308 15.0831 65.3827 12.8383V12.8383Z" fill="#2F2E41"/>
<path d="M236.024 21H133.184C127.661 21 123.184 25.4772 123.184 31V122.442C123.184 127.965 127.661 132.442 133.184 132.442H236.024C241.547 132.442 246.024 127.965 246.024 122.442V31C246.024 25.4772 241.547 21 236.024 21Z" fill="white"/>
<path d="M236.184 21.123H133.239C127.716 21.123 123.239 25.6002 123.239 31.1231V42.1244H246.184V31.123C246.184 25.6002 241.707 21.123 236.184 21.123Z" fill="#2F2E41"/>
<path d="M246.184 38.1865L123.239 38.1865V42.1243L246.184 42.1243V38.1865Z" fill="#2D74AA"/>
<g opacity="0.1">
<path d="M200.1 61.6289H141.094C140.062 61.6289 139.225 62.4656 139.225 63.4977C139.225 64.5298 140.062 65.3665 141.094 65.3665H200.1C201.132 65.3665 201.969 64.5298 201.969 63.4977C201.969 62.4656 201.132 61.6289 200.1 61.6289Z" fill="black"/>
</g>
<circle cx="222.819" cy="63.5981" r="6.34415" fill="#07D8B4"/>
<path d="M226.421 61.1617L225.775 60.654C225.71 60.6031 225.628 60.5802 225.547 60.5903C225.465 60.6005 225.391 60.6427 225.341 60.7078L222.178 64.7398L220.46 63.3883C220.326 63.284 220.134 63.3079 220.03 63.4418L219.52 64.0899C219.416 64.2251 219.441 64.4189 219.574 64.5245L222.183 66.5775C222.318 66.6816 222.511 66.6576 222.616 66.5238L226.475 61.5962C226.526 61.5316 226.549 61.4493 226.539 61.3678C226.529 61.2862 226.486 61.2119 226.421 61.1617Z" fill="white"/>
<g opacity="0.1">
<path d="M198.234 84.6709H141.094C140.062 84.6709 139.225 85.5076 139.225 86.5397C139.225 87.5719 140.062 88.4086 141.094 88.4086H198.234C199.267 88.4086 200.103 87.5719 200.103 86.5397C200.103 85.5076 199.267 84.6709 198.234 84.6709Z" fill="black"/>
</g>
<circle cx="222.819" cy="86.349" r="6.34415" fill="#07D8B4"/>
<path d="M226.421 83.9132L225.775 83.4054C225.71 83.3546 225.628 83.3317 225.547 83.3418C225.465 83.3519 225.391 83.3942 225.341 83.4593L222.178 87.4913L220.46 86.1398C220.326 86.0355 220.133 86.0594 220.029 86.1933L219.52 86.8414C219.416 86.9765 219.44 87.1703 219.574 87.276L222.183 89.329C222.318 89.4331 222.511 89.4091 222.616 89.2752L226.475 84.3477C226.526 84.2831 226.549 84.2007 226.539 84.1192C226.528 84.0376 226.486 83.9634 226.421 83.9132Z" fill="white"/>
<g opacity="0.1">
<path d="M198.234 107.422H141.094C140.062 107.422 139.225 108.259 139.225 109.291C139.225 110.323 140.062 111.16 141.094 111.16H198.234C199.267 111.16 200.103 110.323 200.103 109.291C200.103 108.259 199.267 107.422 198.234 107.422Z" fill="black"/>
</g>
<circle cx="222.819" cy="109.1" r="6.34415" fill="#07D8B4"/>
<path d="M226.421 106.665L225.775 106.157C225.71 106.106 225.628 106.083 225.547 106.093C225.465 106.103 225.391 106.146 225.341 106.211L222.178 110.243L220.46 108.891C220.326 108.787 220.134 108.811 220.03 108.945L219.52 109.593C219.416 109.728 219.441 109.922 219.574 110.027L222.183 112.08C222.318 112.185 222.511 112.161 222.616 112.027L226.475 107.099C226.526 107.035 226.549 106.952 226.539 106.871C226.529 106.789 226.486 106.715 226.421 106.665Z" fill="white"/>
<path d="M137.722 27.7003C137.321 27.7003 136.921 27.8607 136.52 28.1008C136.279 27.9407 135.959 27.8607 135.719 27.8607C135.478 27.8607 135.158 27.9407 134.917 28.1008C134.597 27.8607 134.196 27.7003 133.716 27.7003C132.513 27.7003 131.552 28.8221 131.552 30.2644C131.552 31.0658 131.872 31.7868 132.353 32.2676V33.2291H139.084V32.2676C139.565 31.7868 139.885 31.0658 139.885 30.2644C139.885 28.8221 138.924 27.7003 137.722 27.7003ZM132.914 32.1873C132.353 31.8668 131.872 31.0658 131.872 30.2644C131.872 29.0626 132.674 28.1008 133.635 28.1008C133.956 28.1008 134.196 28.1812 134.437 28.3412C133.956 28.7421 133.635 29.4631 133.635 30.2644C133.635 31.0658 133.956 31.7868 134.437 32.1873H132.914ZM138.443 32.1873H136.76C137.241 31.7868 137.562 31.0658 137.562 30.2644C137.562 29.4631 137.241 28.7421 136.76 28.3412C137.001 28.1812 137.321 28.1008 137.562 28.1008C138.523 28.1008 139.324 29.0626 139.324 30.2644C139.485 31.0658 139.084 31.8668 138.443 32.1873ZM136.6 26.4184V27.2194H136.44V26.9793H135.959V27.4598H136.119V27.6202H135.318V27.4598H135.478V26.9793H134.998V27.2194H134.837V26.4184H134.998V26.5785H135.478V26.0979H135.238V25.9375H136.039V26.0979H135.879V26.5785H136.36V26.4184H136.6Z" fill="white"/>
<path d="M162.722 31.6271L145.815 31.6271C144.693 31.6271 143.812 30.7457 143.812 29.6238C143.812 28.502 144.693 27.6206 145.815 27.6206L162.722 27.6206C163.843 27.6206 164.725 28.502 164.725 29.6238C164.805 30.6653 163.843 31.6271 162.722 31.6271Z" fill="white"/>
<path d="M167.066 200.418V205.8C167.066 210.51 178.544 214.323 192.713 214.323C206.884 214.323 218.361 210.51 218.361 205.8V200.418H167.066Z" fill="#F2BA2A"/>
<path d="M192.714 208.941C178.549 208.941 167.066 205.125 167.066 200.418C167.066 195.711 178.549 191.896 192.714 191.896C206.879 191.896 218.362 195.711 218.362 200.418C218.362 205.125 206.879 208.941 192.714 208.941Z" fill="#FFD037"/>
<path d="M192.714 207.352C181.186 207.352 171.841 204.247 171.841 200.418C171.841 196.588 181.186 193.484 192.714 193.484C204.242 193.484 213.587 196.588 213.587 200.418C213.587 204.247 204.242 207.352 192.714 207.352Z" fill="#F2BA2A"/>
<path d="M165.432 192.5V197.883C165.432 202.593 176.909 206.405 191.08 206.405C205.25 206.405 216.728 202.593 216.728 197.883V192.5H165.432Z" fill="#F2BA2A"/>
<path d="M191.099 201.022C176.934 201.022 165.451 197.206 165.451 192.5C165.451 187.793 176.934 183.977 191.099 183.977C205.264 183.977 216.747 187.793 216.747 192.5C216.747 197.206 205.264 201.022 191.099 201.022Z" fill="#FFD037"/>
<path d="M211.972 192.5C211.972 196.331 202.614 199.434 191.099 199.434C179.583 199.434 170.207 196.331 170.207 192.5C170.207 188.669 179.565 185.566 191.08 185.566C202.596 185.566 211.972 188.669 211.972 192.5Z" fill="#F0B238"/>
<path d="M168.106 185.473V190.856C168.106 195.565 179.584 199.378 193.754 199.378C207.924 199.378 219.401 195.565 219.401 190.856V185.473H168.106Z" fill="#F2BA2A"/>
<path d="M193.754 193.995C179.589 193.995 168.106 190.179 168.106 185.472C168.106 180.765 179.589 176.95 193.754 176.95C207.919 176.95 219.401 180.765 219.401 185.472C219.401 190.179 207.919 193.995 193.754 193.995Z" fill="#FFD037"/>
<path d="M166.33 178.464V183.846C166.33 188.556 177.808 192.369 191.978 192.369C206.148 192.369 217.625 188.556 217.625 183.846V178.464H166.33Z" fill="#F2BA2A"/>
<path d="M191.978 186.986C177.813 186.986 166.33 183.171 166.33 178.464C166.33 173.757 177.813 169.941 191.978 169.941C206.143 169.941 217.625 173.757 217.625 178.464C217.625 183.171 206.143 186.986 191.978 186.986Z" fill="#FFD037"/>
<path d="M161.9 171.437V176.819C161.9 181.529 173.377 185.342 187.547 185.342C201.717 185.342 213.195 181.529 213.195 176.819V171.437H161.9Z" fill="#F2BA2A"/>
<path d="M187.547 179.959C173.382 179.959 161.899 176.143 161.899 171.437C161.899 166.73 173.382 162.914 187.547 162.914C201.712 162.914 213.195 166.73 213.195 171.437C213.195 176.143 201.712 179.959 187.547 179.959Z" fill="#FFD037"/>
<path d="M187.547 178.371C176.019 178.371 166.674 175.266 166.674 171.437C166.674 167.607 176.019 164.503 187.547 164.503C199.075 164.503 208.421 167.607 208.421 171.437C208.421 175.266 199.075 178.371 187.547 178.371Z" fill="#F2BA2A"/>
<path d="M206.185 206.471V211.853C206.185 216.563 217.662 220.376 231.833 220.376C246.003 220.376 257.48 216.563 257.48 211.853V206.471H206.185Z" fill="#F2BA2A"/>
<path d="M231.833 214.993C217.668 214.993 206.185 211.178 206.185 206.471C206.185 201.764 217.668 197.948 231.833 197.948C245.997 197.948 257.48 201.764 257.48 206.471C257.48 211.178 245.997 214.993 231.833 214.993Z" fill="#FFD037"/>
<path d="M201.755 199.443V204.826C201.755 209.536 213.232 213.349 227.402 213.349C241.572 213.349 253.05 209.536 253.05 204.826V199.443H201.755Z" fill="#F2BA2A"/>
<path d="M227.402 207.965C213.237 207.965 201.754 204.15 201.754 199.443C201.754 194.736 213.237 190.92 227.402 190.92C241.567 190.92 253.049 194.736 253.049 199.443C253.049 204.15 241.567 207.965 227.402 207.965Z" fill="#FFD037"/>
<path d="M227.402 206.378C215.874 206.378 206.529 203.273 206.529 199.444C206.529 195.614 215.874 192.51 227.402 192.51C238.93 192.51 248.276 195.614 248.276 199.444C248.276 203.273 238.93 206.378 227.402 206.378Z" fill="#F2BA2A"/>
<path d="M218.531 163.757L224.748 162.178C230.859 160.628 237.841 165.249 241.302 173.651C245.256 183.252 243.11 194.149 236.513 197.997L230.297 199.575C236.894 195.727 239.04 184.83 235.085 175.229C231.624 166.827 224.643 162.206 218.531 163.76V163.757Z" fill="#FFC910"/>
<path d="M233.956 199.043L227.739 200.621C228.613 200.399 229.47 200.051 230.293 199.571L236.509 197.993C235.683 198.473 234.829 198.821 233.956 199.043Z" fill="#FFC910"/>
<path d="M218.531 163.756L224.747 162.178C223.874 162.401 223.021 162.749 222.194 163.229L215.977 164.807C216.804 164.327 217.658 163.979 218.531 163.756Z" fill="#FFAB01"/>
<path d="M233.956 199.043L227.739 200.621C221.628 202.172 214.646 197.551 211.185 189.149C207.231 179.548 209.377 168.651 215.974 164.803L222.19 163.225C215.589 167.073 213.447 177.97 217.402 187.571C220.859 195.973 227.844 200.594 233.956 199.043Z" fill="#FFAB01"/>
<path d="M237.065 202.056L230.848 203.634C223.468 205.509 215.039 199.931 210.864 189.787C206.603 179.442 208.208 167.845 214.272 162.171C215.713 160.823 217.62 160.148 219.532 159.663L222.866 158.816C214.899 163.461 212.307 176.616 217.08 188.209C221.256 198.349 229.684 203.927 237.065 202.056Z" fill="#F2BA2A"/>
<path d="M220.711 159.628C228.678 154.984 239.004 160.616 243.777 172.205C248.55 183.795 245.962 196.954 237.995 201.598C230.029 206.243 219.699 200.61 214.926 189.021C210.153 177.432 212.741 164.272 220.711 159.628ZM236.513 197.997C243.11 194.153 245.256 183.252 241.302 173.651C237.347 164.05 228.791 159.386 222.194 163.229C215.593 167.077 213.451 177.975 217.405 187.576C221.36 197.177 229.912 201.84 236.513 197.997Z" fill="#FFD037"/>
<path d="M222.194 163.229C228.791 159.386 237.348 164.049 241.302 173.65C245.256 183.251 243.11 194.149 236.513 197.997C229.912 201.844 221.36 197.176 217.405 187.575C213.451 177.974 215.597 167.077 222.194 163.229Z" fill="#F2BA2A"/>
</svg>
