<svg width="302" height="241" viewBox="0 0 302 241" fill="none" xmlns="http://www.w3.org/2000/svg">
<path fill-rule="evenodd" clip-rule="evenodd" d="M264.003 103.022C261.394 124.013 239.4 140.268 216.774 154.519C195.605 167.852 170.921 177.447 142.437 179.589C110.312 182.005 74.3102 182.377 51.1165 166.976C27.7806 151.481 31.3736 126.617 29.0817 104.32C26.5237 79.4329 7.67115 46.9888 37.2938 32.4981C67.6615 17.6429 104.634 47.4162 141.717 49.221C172.692 50.7285 204.65 30.4234 230.768 41.9142C258.439 54.0884 266.808 80.4558 264.003 103.022Z" fill="#D3F1FF"/>
<ellipse cx="151.014" cy="230.054" rx="150.561" ry="10.9458" fill="#D3F1FF"/>
<path d="M186.918 64.5139H209.775V30.74H186.918V64.5139Z" fill="#2F2E41"/>
<path d="M204.644 54.2158L203.844 44.5424L194.597 45.8185C195.168 50.3803 196.551 52.3481 193.879 55.6946L204.644 54.2158Z" fill="#A0616A"/>
<path d="M198.368 46.8957C201.78 45.8183 208.48 42.4113 208.48 35.986C208.48 29.5607 203.271 24.3519 196.846 24.3519C190.421 24.3519 189.39 30.2351 189.39 36.6604C189.39 43.0857 187.712 50.2607 198.368 46.8957Z" fill="#A0616A"/>
<path d="M193.911 23.7462C193.911 23.7462 193.911 18.9701 198.346 19.9935C202.781 21.017 204.146 22.7227 204.146 22.7227C204.146 22.7227 205.851 25.4519 208.581 25.7931C211.31 26.1342 213.698 33.9807 213.357 35.6864C213.016 37.3922 211.31 41.8271 213.698 43.874C216.086 45.9209 219.497 48.9913 218.474 52.0617C217.451 55.132 220.993 59.8244 220.993 59.8244C220.993 59.8244 222.944 64.2303 222.244 69.5745C222.244 69.5745 217.114 75.6262 211.656 75.6262C206.198 75.6262 207.898 56.4872 207.898 56.4872C207.898 56.4872 204.599 50.3971 203.576 48.6913C197.026 44.9616 205.999 38.1864 200.882 33.0691C184.744 36.9159 193.911 23.7462 193.911 23.7462Z" fill="#2F2E41"/>
<path d="M195.276 22.7228C195.276 22.7228 188.794 24.0874 186.406 30.5692C184.018 37.0511 185.224 38.2572 185.224 38.2572C185.224 38.2572 184.696 42.1603 181.798 43.5289C178.901 44.8976 181.289 50.6971 181.289 50.6971C181.289 50.6971 180.606 56.4967 171.395 58.5436C162.184 60.5905 182.946 76.2872 182.946 76.2872C182.946 76.2872 181.453 68.8788 191.006 68.5377C200.558 68.1965 189.135 50.6971 189.135 50.6971L188.112 39.4392C188.112 39.4392 190.159 26.4754 196.299 24.7697C202.44 23.0639 195.276 22.7228 195.276 22.7228L195.276 22.7228Z" fill="#2F2E41"/>
<path d="M203.777 229.771L195.847 229.77L192.075 199.182L203.779 199.183L203.777 229.771Z" fill="#A0616A"/>
<path d="M176.607 229.59C176.361 230.006 176.23 231.349 176.23 231.832C176.23 233.319 177.435 234.524 178.922 234.524H203.481C204.495 234.524 205.317 233.702 205.317 232.688V231.665C205.317 231.665 206.532 228.592 204.031 224.804C204.031 224.804 200.922 227.77 196.277 223.125L194.907 220.643L184.991 227.895L179.495 228.572C178.292 228.72 177.226 228.549 176.608 229.59H176.607H176.607Z" fill="#2F2E41"/>
<path d="M235.018 220.425L227.687 223.449L212.532 196.613L223.351 192.149L235.018 220.425Z" fill="#A0616A"/>
<path d="M209.834 230.623C209.764 231.101 210.155 232.392 210.34 232.839C210.907 234.213 212.481 234.867 213.855 234.3L236.557 224.932C237.494 224.545 237.941 223.472 237.554 222.534L237.164 221.589C237.164 221.589 237.115 218.285 233.358 215.738C233.358 215.738 231.615 219.665 225.549 217.143L223.336 215.372L216.936 225.858L212.114 228.58C211.059 229.175 210.008 229.424 209.834 230.623Z" fill="#2F2E41"/>
<path d="M207.416 124.842L204.18 137.198L205.042 157.248L206.471 190.549L206.511 191.488L206.672 195.233L207.416 212.524H191.471L184.372 164.219L178.761 126.039L179.35 106.597L179.381 105.58C179.381 105.58 206.222 102.567 209.322 106.597C213.093 113.694 207.416 124.842 207.416 124.842Z" fill="#3669A4"/>
<path d="M229.601 200.093L226.898 201.491L216.901 206.665L215.438 207.421L206.672 195.233L184.372 164.219L178.761 126.039L179.35 106.597C181.874 105.794 183.892 105.465 184.914 105.943C189.521 108.097 189.301 122.22 189.301 122.22L192.106 134.681L205.042 157.248L229.601 200.093V200.093Z" fill="#3669A4"/>
<path d="M192.802 53.7193L204.335 50.2488L207.843 55.0246C212.698 61.6319 214.412 70.0349 212.534 78.0159L208.054 97.0558L210.844 109.765C210.844 109.765 188.216 103.875 179.226 108.835C179.226 108.835 178.606 106.009 179.226 104.632C179.846 103.255 180.776 97.5269 179.846 94.9665C178.916 92.4061 181.706 80.3169 181.706 80.3169C181.706 80.3169 180.776 72.2574 184.806 68.2277C188.836 64.1979 192.802 53.7193 192.802 53.7193Z" fill="#FFD037"/>
<path d="M152.449 79.0762C149.137 76.8133 147.62 73.2703 149.061 71.1631C150.501 69.0558 154.353 69.1825 157.665 71.4467C159.001 72.333 160.105 73.5262 160.885 74.9266L174.795 84.692L170.073 91.1219L156.862 80.8123C155.273 80.5944 153.76 79.9991 152.449 79.0762Z" fill="#A0616A"/>
<path d="M213.959 71.6137L194.266 100.142C194.266 100.142 189.784 106.152 179.978 99.9427C170.172 93.733 158.67 82.8526 158.67 82.8526L163.189 76.1503L174.058 83.2491C174.058 83.2491 180.091 84.6783 180.71 86.0993C181.329 87.5202 180.316 88.2996 182.021 87.5567C183.726 86.8139 183.601 85.7503 183.955 87.3386C184.308 88.927 183.507 90.9669 185.285 88.8397C187.063 86.7125 187.842 87.7255 187.842 87.7255L199.84 65.5926C199.84 65.5926 208.374 56.4648 212.197 62.9138C216.021 69.3627 213.959 71.6137 213.959 71.6137V71.6137Z" fill="#FFD037"/>
<path d="M227.613 115.743C228.615 119.627 227.423 123.292 224.951 123.93C222.48 124.567 219.664 121.935 218.663 118.05C218.241 116.504 218.196 114.879 218.531 113.311L214.493 96.8021L222.281 95.0723L225.435 111.531C226.487 112.741 227.234 114.185 227.613 115.743Z" fill="#A0616A"/>
<path d="M225.418 108.804C225.418 108.804 219.916 76.3444 214.098 64.3135C214.098 64.3135 200.118 70.6691 202.857 70.2392C205.596 69.8092 210.123 87.3499 209.343 88.7782C208.563 90.2066 209.17 89.3237 210.942 89.8874C212.714 90.4512 211.439 90.3707 210.969 91.8477C210.499 93.3247 214.098 98.3728 214.098 98.3728L217.604 110.873L225.418 108.804Z" fill="#FFD037"/>
<path d="M103.144 56.1133C103.144 56.1133 102.548 63.0638 105.944 64.1548C109.341 65.2457 91.7173 62.7377 91.7173 62.7377C91.7173 62.7377 96.3285 59.4199 95.4287 55.0449C94.529 50.6699 103.144 56.1021 103.144 56.1021V56.1133Z" fill="#FFB8B8"/>
<path d="M149.604 94.5444C148.064 92.1601 144.892 91.474 142.508 93.0149C142.339 93.1161 142.193 93.2398 142.035 93.3635C141.855 93.5097 141.698 93.6672 141.54 93.8359L121.375 92.1601L120.25 75.6723C120.07 73.243 117.967 71.4211 115.538 71.601C113.12 71.781 111.298 73.8953 111.478 76.3246C111.478 76.3471 111.478 76.3809 111.478 76.4034L113.446 97.761V97.806C113.986 99.493 115.549 100.629 117.304 100.606L141.023 100.19C141.113 100.336 141.214 100.471 141.315 100.595C143.115 102.788 146.354 103.114 148.536 101.304C148.682 101.18 148.828 101.045 148.963 100.91C149.064 100.809 149.166 100.696 149.256 100.584C150.662 98.8519 150.796 96.4114 149.593 94.5332L149.604 94.5444Z" fill="#FFB8B8"/>
<path d="M108.936 224.287H114.694L117.427 202.029H108.936V224.287Z" fill="#FFB8B8"/>
<path d="M107.474 229.887H126.02V229.651C126.02 225.647 122.792 222.408 118.799 222.408H107.474V229.887Z" fill="#2F2E41"/>
<path d="M68.7401 219.057L74.1835 220.924L83.9345 200.736L75.9043 197.991L68.7401 219.057Z" fill="#FFB8B8"/>
<path d="M65.6811 226.075L83.8334 229.944L83.8783 229.719C84.6994 225.805 82.2138 221.958 78.3112 221.126L67.2219 218.764L65.6811 226.075V226.075Z" fill="#2F2E41"/>
<path d="M102.604 29.6385C102.604 29.6385 108.329 27.7378 112.006 35.3293C115.684 42.9209 121.409 51.266 121.409 51.266L118.136 52.0195C118.136 52.0195 117.315 46.711 115.268 45.9463L116.089 52.7731C116.089 52.7731 91.5484 60.7358 80.5041 52.0195L80.909 49.3653C80.909 49.3653 79.2782 49.7477 79.2782 52.0195L78.0523 50.8836C78.0523 50.8836 79.2782 48.6117 82.9559 45.5751C85.3739 43.5844 86.2062 39.7943 86.4874 37.4212C86.7123 35.4193 87.5671 33.5298 88.9392 32.0453C91.391 29.4135 95.8447 26.6243 102.593 29.6385H102.604Z" fill="#2F2E41"/>
<path d="M100.49 35.1715C94.7088 35.1715 90.2101 39.4003 90.2101 45.1924C90.2101 50.9845 94.1915 58.8235 99.9723 58.8235C105.753 58.8235 110.454 50.2422 109.633 44.0452C108.868 38.2981 106.259 35.1715 100.478 35.1715H100.49Z" fill="#FFB8B8"/>
<path d="M114.436 64.7959L116.336 64.1548C116.336 64.1548 120.138 65.7406 120.138 68.6085C120.138 71.4764 120.768 82.9144 120.768 82.9144L112.209 83.8704L114.424 64.7959H114.436Z" fill="#07D8B4"/>
<path d="M80.4031 127.328C82.0339 125.495 82.0788 122.74 80.5155 120.85L85.8578 75.9982C85.9702 73.7938 84.272 71.9156 82.0676 71.8144C79.8745 71.7019 78.0075 73.4002 77.8951 75.5933C77.8951 75.6045 77.8951 75.627 77.8951 75.6383L73.1152 120.535C72.9465 120.715 72.7778 120.895 72.6428 121.098C71.0345 123.336 71.5294 126.451 73.7562 128.071C73.8125 128.116 73.8687 128.149 73.9249 128.183C75.1621 129.004 76.7141 129.229 78.1312 128.79C79.0085 128.521 79.7958 128.014 80.4031 127.328V127.328Z" fill="#FFB8B8"/>
<path d="M85.2953 82.9139L76.7365 81.958C76.7365 81.958 77.3663 70.5088 77.3663 67.6521C77.3663 64.7954 81.1677 63.1984 81.1677 63.1984L83.0684 63.8394L85.284 82.9139H85.2953Z" fill="#07D8B4"/>
<path d="M113.165 98.795C113.165 98.795 120.453 112.167 120.453 128.385C120.453 144.603 120.846 216.774 120.846 216.774C120.846 216.774 111.849 222.397 105.877 218.044L100.805 135.696L80.8416 216.459C80.8416 216.459 71.3381 218.371 66.8956 215.188L75.4544 158.909C75.4544 158.909 78.9409 106.128 88.4444 102.315C97.9479 98.5026 113.165 98.8062 113.165 98.8062V98.795Z" fill="#2F2E41"/>
<path d="M111.793 45.7329C108.093 43.045 105.09 39.9521 103.11 36.2632C103.11 36.2632 96.3173 43.8322 92.1672 44.2146C88.0172 44.597 91.7848 35.1272 91.7848 35.1272L99.3314 33.2378L106.507 33.9913L112.164 37.7815L111.782 45.7329H111.793Z" fill="#2F2E41"/>
<path d="M90.0302 61.2979C90.0302 61.2979 89.7266 61.1405 107.778 61.7928L115.335 63.8847L116.336 64.1659C116.336 64.1659 115.38 83.2404 112.85 86.7381C110.319 90.2359 110.949 92.1478 111.579 92.4627C112.209 92.7776 113.12 92.5302 112.175 94.116C111.23 95.7018 110.634 94.3634 111.894 95.3194C113.154 96.2754 113.795 99.7731 113.795 99.7731L85.9026 103.586C85.9026 103.586 84.9467 91.1806 82.4162 84.8262C79.8856 78.4717 79.2446 75.9187 79.2446 75.9187L81.1453 63.1986L90.019 61.2867L90.0302 61.2979Z" fill="#07D8B4"/>
<path d="M226.687 28.1674C229.265 27.9651 232.154 27.1487 234.957 25.8174L235.193 25.7058L235.436 25.799C237.502 26.5897 239.687 26.9905 241.931 26.9905C250.676 26.9905 257.791 20.9408 257.791 13.5058C257.791 6.07075 250.676 0.0209961 241.931 0.0209961C233.186 0.0209961 226.071 6.07075 226.071 13.5058C226.071 16.6073 227.342 19.6364 229.652 22.0355L229.947 22.342L229.763 22.7269C228.765 24.8134 227.732 26.6362 226.687 28.1674Z" fill="#4EC2F5"/>
<path d="M277.136 213.068C269.154 218.978 266.864 229.414 266.864 229.414C266.864 229.414 277.514 230.268 285.495 224.359C293.476 218.449 295.766 208.013 295.766 208.013C295.766 208.013 285.116 207.158 277.136 213.068Z" fill="#07D8B4"/>
<path d="M280.635 215.621C276.779 224.773 267.18 229.465 267.18 229.465C267.18 229.465 263.833 219.318 267.69 210.166C271.546 201.015 281.145 196.323 281.145 196.323C281.145 196.323 284.491 206.47 280.635 215.621Z" fill="#2F2E41"/>
<circle cx="234.559" cy="13.8708" r="2.23384" fill="white"/>
<circle cx="242.154" cy="13.8708" r="2.23384" fill="white"/>
<circle cx="249.75" cy="13.8708" r="2.23384" fill="white"/>
</svg>
