<?xml version="1.0" encoding="utf-8"?>
<!-- Generator: Adobe Illustrator 23.0.3, SVG Export Plug-In . SVG Version: 6.00 Build 0)  -->
<svg version="1.1" id="Layer_1" xmlns="http://www.w3.org/2000/svg" xmlns:xlink="http://www.w3.org/1999/xlink" x="0px" y="0px"
	 viewBox="0 0 2699.6 613.1" style="enable-background:new 0 0 2699.6 613.1;" xml:space="preserve">
<style type="text/css">
	.st0{fill:url(#SVGID_1_);}
	.st1{opacity:0.12;fill:url(#Path_1713_3_);enable-background:new    ;}
	.st2{opacity:0.22;fill:url(#Path_1713_4_);enable-background:new    ;}
	.st3{opacity:8.000000e-02;fill:url(#Path_1713_5_);enable-background:new    ;}
</style>
<title>footer-bg</title>
<linearGradient id="SVGID_1_" gradientUnits="userSpaceOnUse" x1="-812.0668" y1="783.6204" x2="3375.6653" y2="850.5477" gradientTransform="matrix(1 0 0 1 0 -456)">
	<stop  offset="0" style="stop-color:#FFFFFF"/>
	<stop  offset="0.1784" style="stop-color:#C6E6FF"/>
	<stop  offset="0.3065" style="stop-color:#8DCEFF"/>
	<stop  offset="0.5277" style="stop-color:#49B8F0"/>
	<stop  offset="0.5833" style="stop-color:#55BDF1"/>
	<stop  offset="0.659" style="stop-color:#75C9F4"/>
	<stop  offset="0.7412" style="stop-color:#93D5F6"/>
	<stop  offset="0.8065" style="stop-color:#9AD8F7"/>
	<stop  offset="0.9236" style="stop-color:#E2F4FD"/>
	<stop  offset="1" style="stop-color:#FFFFFF"/>
</linearGradient>
<path class="st0" d="M3652.7,662.6c0,0-598.2,0-2263.3,0s-2263.3,0-2263.3,0V267.1c0,0,907.6-238.4,2263.3-238.4
	S3652.7,227,3652.7,227V662.6z"/>
<linearGradient id="Path_1713_3_" gradientUnits="userSpaceOnUse" x1="8248.3926" y1="-7964.1865" x2="8246.0088" y2="-7964.2739" gradientTransform="matrix(-334.9903 347.1344 -304.6073 -293.951 337130.375 -5203524)">
	<stop  offset="0" style="stop-color:#FFFFFF"/>
	<stop  offset="1" style="stop-color:#FFFFFF;stop-opacity:0"/>
</linearGradient>
<path id="Path_1713" class="st1" d="M696.7,435.8c-31.9,118.1-339.3,180.6-411.9,135.4c-72.4-45.1-112.3-220.7-48.9-312.5
	c63.7-91.8,136.4-61.7,297.6-57.4C734.3,216.9,735.6,291.9,696.7,435.8z"/>
<linearGradient id="Path_1713_4_" gradientUnits="userSpaceOnUse" x1="8245.1104" y1="-7965.353" x2="8243.3809" y2="-7965.417" gradientTransform="matrix(-183.1619 396.4842 -338.2707 -220.7641 -1182353.75 -5026657)">
	<stop  offset="0" style="stop-color:#FFFFFF"/>
	<stop  offset="1" style="stop-color:#FFFFFF;stop-opacity:0"/>
</linearGradient>
<path id="Path_1713_1_" class="st2" d="M2313.4,452.4c7.9,110.1-220,69.3-354.9,74.2c-116,4.2-73.6-89-13.1-136.4
	c60.6-47.4,110.9-85.3,213.3-68C2261.2,339.3,2308.8,388.4,2313.4,452.4z"/>
<linearGradient id="Path_1713_5_" gradientUnits="userSpaceOnUse" x1="8245.8867" y1="-7963.2168" x2="8244.3301" y2="-7963.2734" gradientTransform="matrix(-183.1619 396.4842 -338.2707 -220.7641 -1182353.75 -5026657)">
	<stop  offset="0" style="stop-color:#FFFFFF"/>
	<stop  offset="1" style="stop-color:#FFFFFF;stop-opacity:0"/>
</linearGradient>
<path id="Path_1713_2_" class="st3" d="M1368.7,300.8c32.5,107.1-14.7,121.3-146.4,151.9c-111.7,25.9-232.2-93.4-164.2-133.5
	c97.3-57.2,34.5-158.7,136.9-141.5C1297.5,195.1,1340.5,207.8,1368.7,300.8z"/>
</svg>
