<?xml version="1.0" encoding="utf-8"?>
<!-- Generator: Adobe Illustrator 23.0.2, SVG Export Plug-In . SVG Version: 6.00 Build 0)  -->
<svg version="1.1" id="Layer_1" xmlns="http://www.w3.org/2000/svg" xmlns:xlink="http://www.w3.org/1999/xlink" x="0px" y="0px"
	 viewBox="0 0 48.2 43" style="enable-background:new 0 0 48.2 43;" xml:space="preserve">
<style type="text/css">
	.st0{fill:#E3A73E;}
	.st1{fill:#E6B359;}
	.st2{fill:#D8931B;}
	.st3{fill:#DE9A25;}
	.st4{fill:url(#Ellipse_50_1_);}
	.st5{fill:url(#Ellipse_50-2_1_);}
	.st6{fill:url(#Ellipse_50-3_1_);}
	.st7{fill:url(#Ellipse_50-4_1_);}
	.st8{fill:url(#Ellipse_50-5_1_);}
	.st9{fill:url(#Ellipse_50-6_1_);}
	.st10{fill:url(#Ellipse_50-7_1_);}
	.st11{fill:url(#Ellipse_50-8_1_);}
	.st12{fill:url(#Ellipse_50-9_1_);}
	.st13{fill:url(#Ellipse_50-10_1_);}
	.st14{fill:url(#Ellipse_50-11_1_);}
	.st15{fill:url(#Ellipse_50-12_1_);}
	.st16{fill:url(#Ellipse_50-13_1_);}
	.st17{fill:url(#Ellipse_50-14_1_);}
</style>
<g id="Group_637" transform="translate(0)">
	<path id="Path_105" class="st0" d="M0.2,11.9c0,0-0.6-4.5,0.7-6.5C1.1,5,1.5,4.7,2.6,4.9c0.8,0.3,1.7,0.6,2.5,0.8
		c0.9,0,1.6-0.6,2.4-0.7c0.6-0.2,1.3-0.1,1.7,0.4c0.5,0.5,0.6,6.5,0.6,6.5H8l0-4.2H7.7v5.1L5,17.3l-2.7-4.5V7.7H2l0,4.2L0.2,11.9z"
		/>
	<path id="Path_106" class="st1" d="M0.1,11.6c0,0-0.6-4.2,0.7-6.2C1.1,5,1.5,4.7,2.6,4.9c0.8,0.3,1.7,0.5,2.5,0.6
		C6,5.4,6.8,5.3,7.6,5c0.6-0.2,1.3-0.1,1.7,0.4c0.5,0.5,0.6,6.2,0.6,6.2H8.1l0-3.9H7.7v5.1L5,13l-2.7-0.2V7.7H2v3.9H0.1z"/>
	<path id="Path_107" class="st2" d="M5,13l0,4.3c0,0,2.8-4.5,2.7-4.5S5,13,5,13z"/>
	<path id="Path_108" class="st3" d="M5.2,5.5C6,5.5,6.8,5.3,7.6,5c0.6-0.2,1.3-0.1,1.7,0.4c0.5,0.5,0.6,6.2,0.6,6.2H8.1V7.7H7.7v5.1
		L5,13C5,13,5.2,6.4,5.2,5.5z"/>
	
		<radialGradient id="Ellipse_50_1_" cx="-298.7159" cy="342.8984" r="0.525" gradientTransform="matrix(3.1368 -3.6475 -3.5609 -3.0604 2161.7983 -37.7423)" gradientUnits="userSpaceOnUse">
		<stop  offset="0" style="stop-color:#E2AE55"/>
		<stop  offset="1" style="stop-color:#D8931B"/>
	</radialGradient>
	<ellipse id="Ellipse_50" class="st4" cx="5.3" cy="2.4" rx="2.5" ry="2.4"/>
	<path id="Path_105-2" class="st0" d="M14.2,13.1c0,0-0.6-4.5,0.7-6.5c0.3-0.4,0.7-0.7,1.8-0.5c0.8,0.3,1.7,0.6,2.5,0.8
		c0.9,0,1.6-0.6,2.4-0.7c0.6-0.2,1.3-0.1,1.7,0.4c0.5,0.5,0.6,6.5,0.6,6.5h-1.8l0-4.2h-0.3V14L19,18.5L16.3,14V8.9h-0.3l0,4.2
		L14.2,13.1z"/>
	<path id="Path_106-2" class="st1" d="M14.2,12.8c0,0-0.6-4.2,0.7-6.2c0.3-0.4,0.7-0.7,1.8-0.5c0.8,0.3,1.7,0.5,2.5,0.6
		c0.8-0.1,1.6-0.3,2.4-0.5c0.6-0.2,1.3-0.1,1.7,0.4c0.5,0.5,0.6,6.2,0.6,6.2h-1.8l0-3.9h-0.3V14L19,14.2L16.3,14V8.9h-0.3v3.9H14.2z
		"/>
	<path id="Path_107-2" class="st2" d="M19,14.2l0,4.3c0,0,2.8-4.5,2.7-4.5S19,14.2,19,14.2z"/>
	<path id="Path_108-2" class="st3" d="M19.2,6.7c0.8-0.1,1.6-0.2,2.4-0.5c0.6-0.2,1.3-0.1,1.7,0.4c0.5,0.5,0.6,6.2,0.6,6.2h-1.8V8.9
		h-0.3V14L19,14.2C19,14.2,19.2,7.6,19.2,6.7z"/>
	
		<radialGradient id="Ellipse_50-2_1_" cx="-298.7159" cy="342.8984" r="0.525" gradientTransform="matrix(3.1368 -3.6475 -3.5609 -3.0604 2175.8323 -36.5553)" gradientUnits="userSpaceOnUse">
		<stop  offset="0" style="stop-color:#E2AE55"/>
		<stop  offset="1" style="stop-color:#D8931B"/>
	</radialGradient>
	<ellipse id="Ellipse_50-2" class="st5" cx="19.3" cy="3.6" rx="2.5" ry="2.4"/>
	<path id="Path_105-3" class="st0" d="M25.2,13.1c0,0-0.6-4.5,0.7-6.5c0.3-0.4,0.7-0.7,1.8-0.5c0.8,0.3,1.7,0.6,2.5,0.8
		c0.9,0,1.6-0.6,2.4-0.7c0.6-0.2,1.3-0.1,1.7,0.4c0.5,0.5,0.6,6.5,0.6,6.5h-1.8l0-4.2h-0.3V14l-2.8,4.5L27.4,14V8.9h-0.3l0,4.2
		L25.2,13.1z"/>
	<path id="Path_106-3" class="st1" d="M25.2,12.8c0,0-0.6-4.2,0.7-6.2c0.3-0.4,0.7-0.7,1.8-0.5c0.8,0.3,1.7,0.5,2.5,0.6
		c0.8-0.1,1.6-0.3,2.4-0.5c0.6-0.2,1.3-0.1,1.7,0.4c0.5,0.5,0.6,6.2,0.6,6.2h-1.8l0-3.9h-0.3V14l-2.7,0.2L27.4,14V8.9h-0.3v3.9H25.2
		z"/>
	<path id="Path_107-3" class="st2" d="M30.1,14.2l0,4.3c0,0,2.8-4.5,2.7-4.5S30.1,14.2,30.1,14.2z"/>
	<path id="Path_108-3" class="st3" d="M30.2,6.7c0.8-0.1,1.6-0.2,2.4-0.5c0.6-0.2,1.3-0.1,1.7,0.4c0.5,0.5,0.6,6.2,0.6,6.2h-1.8V8.9
		h-0.3V14l-2.7,0.2C30.1,14.2,30.2,7.6,30.2,6.7z"/>
	
		<radialGradient id="Ellipse_50-3_1_" cx="-298.7159" cy="342.8984" r="0.525" gradientTransform="matrix(3.1368 -3.6475 -3.5609 -3.0604 2186.8623 -36.5553)" gradientUnits="userSpaceOnUse">
		<stop  offset="0" style="stop-color:#E2AE55"/>
		<stop  offset="1" style="stop-color:#D8931B"/>
	</radialGradient>
	<ellipse id="Ellipse_50-3" class="st6" cx="30.3" cy="3.6" rx="2.5" ry="2.4"/>
	<path id="Path_105-4" class="st0" d="M38.5,11.9c0,0-0.6-4.5,0.7-6.5c0.3-0.4,0.7-0.7,1.8-0.5c0.8,0.3,1.7,0.6,2.5,0.8
		c0.9,0,1.6-0.6,2.4-0.7c0.6-0.2,1.3-0.1,1.7,0.4c0.5,0.5,0.6,6.5,0.6,6.5h-1.8l0-4.2h-0.3v5.1l-2.8,4.5l-2.7-4.5V7.7h-0.3l0,4.2
		L38.5,11.9z"/>
	<path id="Path_106-4" class="st1" d="M38.5,11.6c0,0-0.6-4.2,0.7-6.2c0.3-0.4,0.7-0.7,1.8-0.5c0.8,0.3,1.7,0.5,2.5,0.6
		c0.8-0.1,1.6-0.3,2.4-0.5c0.6-0.2,1.3-0.1,1.7,0.4c0.5,0.5,0.6,6.2,0.6,6.2h-1.8l0-3.9h-0.3v5.1L43.3,13l-2.7-0.2V7.7h-0.3v3.9
		H38.5z"/>
	<path id="Path_107-4" class="st2" d="M43.3,13l0,4.3c0,0,2.8-4.5,2.7-4.5S43.3,13,43.3,13z"/>
	<path id="Path_108-4" class="st3" d="M43.5,5.5c0.8-0.1,1.6-0.2,2.4-0.5c0.6-0.2,1.3-0.1,1.7,0.4c0.5,0.5,0.6,6.2,0.6,6.2h-1.8V7.7
		h-0.3v5.1L43.3,13C43.3,13,43.5,6.4,43.5,5.5z"/>
	
		<radialGradient id="Ellipse_50-4_1_" cx="-298.7159" cy="342.8984" r="0.525" gradientTransform="matrix(3.1368 -3.6475 -3.5609 -3.0604 2200.1091 -37.7423)" gradientUnits="userSpaceOnUse">
		<stop  offset="0" style="stop-color:#E2AE55"/>
		<stop  offset="1" style="stop-color:#D8931B"/>
	</radialGradient>
	<ellipse id="Ellipse_50-4" class="st7" cx="43.6" cy="2.4" rx="2.5" ry="2.4"/>
	<path id="Path_105-5" class="st0" d="M2.8,32.1c0,0-1-7.2,1-10.4C4.3,21,5,20.5,6.8,20.9s2.6,1.2,4,1.3s2.6-0.9,3.8-1.2
		c0.9-0.3,2-0.1,2.7,0.7c0.9,0.8,1,10.3,1,10.3h-2.9l0-6.7h-0.5v8.2l-4.4,7.1l-4.3-7.1v-8.2H5.8l0,6.7H2.8z"/>
	<path id="Path_106-5" class="st1" d="M2.8,31.6c0,0-1-6.7,1.1-9.9C4.3,21,5,20.5,6.8,20.9s2.6,1,4,1c1.3-0.1,2.6-0.4,3.8-0.9
		c0.9-0.3,2-0.1,2.7,0.7c0.9,0.8,1,9.9,1,9.9h-2.8l0-6.2h-0.5v8.2l-4.4,0.3l-4.3-0.3v-8.2H5.8v6.3L2.8,31.6z"/>
	<path id="Path_107-5" class="st2" d="M10.5,33.7l0,6.9c0,0,4.4-7.1,4.3-7.1S10.5,33.7,10.5,33.7z"/>
	<path id="Path_108-5" class="st3" d="M10.8,21.9c1.4,0.1,2.6-0.6,3.8-0.9c0.9-0.3,2-0.1,2.7,0.7c0.9,0.8,1,9.9,1,9.9h-2.8v-6.2
		h-0.5v8.2l-4.4,0.3C10.6,33.8,10.8,23.3,10.8,21.9z"/>
	
		<radialGradient id="Ellipse_50-5_1_" cx="-238.08" cy="390.3689" r="0.525" gradientTransform="matrix(7.862 0 0 -7.67 1880.3679 3011.0276)" gradientUnits="userSpaceOnUse">
		<stop  offset="0" style="stop-color:#E2AE55"/>
		<stop  offset="1" style="stop-color:#D8931B"/>
	</radialGradient>
	<ellipse id="Ellipse_50-5" class="st8" cx="11" cy="16.9" rx="3.9" ry="3.8"/>
	<path id="Path_105-6" class="st0" d="M29.5,32.1c0,0-1-7.2,1-10.4c0.5-0.7,1.1-1.2,2.9-0.7s2.6,1.2,4,1.3s2.6-0.9,3.8-1.2
		c0.9-0.3,2-0.1,2.7,0.7c0.9,0.8,1,10.3,1,10.3h-2.9l0-6.7h-0.5v8.2l-4.4,7.1l-4.3-7.1v-8.2h-0.4l0,6.7H29.5z"/>
	<path id="Path_106-6" class="st1" d="M29.5,31.6c0,0-1-6.7,1.1-9.9c0.5-0.7,1.1-1.2,2.9-0.7s2.6,1,4,1c1.3-0.1,2.6-0.4,3.8-0.9
		c0.9-0.3,2-0.1,2.7,0.7c0.9,0.8,1,9.9,1,9.9h-2.8l0-6.2h-0.5v8.2l-4.4,0.3l-4.3-0.3v-8.2h-0.4v6.3L29.5,31.6z"/>
	<path id="Path_107-6" class="st2" d="M37.2,33.7l0,6.9c0,0,4.4-7.1,4.3-7.1S37.2,33.7,37.2,33.7z"/>
	<path id="Path_108-6" class="st3" d="M37.5,21.9c1.4,0.1,2.6-0.6,3.8-0.9c0.9-0.3,2-0.1,2.7,0.7c0.9,0.8,1,9.9,1,9.9h-2.8v-6.2
		h-0.5v8.2l-4.4,0.3C37.2,33.8,37.5,23.3,37.5,21.9z"/>
	
		<radialGradient id="Ellipse_50-6_1_" cx="-238.08" cy="390.3689" r="0.525" gradientTransform="matrix(7.862 0 0 -7.67 1907.0439 3011.0276)" gradientUnits="userSpaceOnUse">
		<stop  offset="0" style="stop-color:#E2AE55"/>
		<stop  offset="1" style="stop-color:#D8931B"/>
	</radialGradient>
	<ellipse id="Ellipse_50-6" class="st9" cx="37.6" cy="16.9" rx="3.9" ry="3.8"/>
	<path id="Path_105-7" class="st0" d="M16.5,34.4c0,0-1-7.2,1-10.4c0.5-0.7,1.1-1.2,2.9-0.7s2.6,1.2,4,1.3s2.6-0.9,3.8-1.2
		c0.9-0.3,2-0.1,2.7,0.7c0.9,0.8,1,10.3,1,10.3H29l0-6.7h-0.5v8.2L24.2,43l-4.3-7.1v-8.2h-0.4l0,6.7H16.5z"/>
	<path id="Path_106-7" class="st1" d="M16.4,34c0,0-1-6.7,1.1-9.9c0.5-0.7,1.1-1.2,2.9-0.7s2.6,1,4,1c1.3-0.1,2.6-0.4,3.8-0.9
		c0.9-0.3,2-0.1,2.7,0.7c0.9,0.8,1,9.9,1,9.9H29l0-6.2h-0.5v8.2l-4.4,0.3l-4.3-0.3v-8.2h-0.4V34L16.4,34z"/>
	<path id="Path_107-7" class="st2" d="M24.2,36.1l0,6.9c0,0,4.4-7.1,4.3-7.1S24.2,36.1,24.2,36.1z"/>
	<path id="Path_108-7" class="st3" d="M24.4,24.2c1.4,0.1,2.6-0.6,3.8-0.9c0.9-0.3,2-0.1,2.7,0.7c0.9,0.8,1,9.9,1,9.9h-2.8v-6.2
		h-0.5v8.2l-4.4,0.3C24.2,36.2,24.4,25.6,24.4,24.2z"/>
	
		<radialGradient id="Ellipse_50-7_1_" cx="-238.08" cy="390.3689" r="0.525" gradientTransform="matrix(7.862 0 0 -7.67 1894.002 3013.4036)" gradientUnits="userSpaceOnUse">
		<stop  offset="0" style="stop-color:#E2AE55"/>
		<stop  offset="1" style="stop-color:#D8931B"/>
	</radialGradient>
	<ellipse id="Ellipse_50-7" class="st10" cx="24.6" cy="19.3" rx="3.9" ry="3.8"/>
	<path id="Path_105-8" class="st0" d="M0.2,11.9c0,0-0.6-4.5,0.7-6.5C1.1,5,1.5,4.7,2.6,4.9c0.8,0.3,1.7,0.6,2.5,0.8
		c0.9,0,1.6-0.6,2.4-0.7c0.6-0.2,1.3-0.1,1.7,0.4c0.5,0.5,0.6,6.5,0.6,6.5H8l0-4.2H7.7v5.1L5,17.3l-2.7-4.5V7.7H2l0,4.2L0.2,11.9z"
		/>
	<path id="Path_106-8" class="st1" d="M0.1,11.6c0,0-0.6-4.2,0.7-6.2C1.1,5,1.5,4.7,2.6,4.9c0.8,0.3,1.7,0.5,2.5,0.6
		C6,5.4,6.8,5.3,7.6,5c0.6-0.2,1.3-0.1,1.7,0.4c0.5,0.5,0.6,6.2,0.6,6.2H8.1l0-3.9H7.7v5.1L5,13l-2.7-0.2V7.7H2v3.9H0.1z"/>
	<path id="Path_107-8" class="st2" d="M5,13l0,4.3c0,0,2.8-4.5,2.7-4.5S5,13,5,13z"/>
	<path id="Path_108-8" class="st3" d="M5.2,5.5C6,5.5,6.8,5.3,7.6,5c0.6-0.2,1.3-0.1,1.7,0.4c0.5,0.5,0.6,6.2,0.6,6.2H8.1V7.7H7.7
		v5.1L5,13C5,13,5.2,6.4,5.2,5.5z"/>
	
		<radialGradient id="Ellipse_50-8_1_" cx="-298.7159" cy="342.8984" r="0.525" gradientTransform="matrix(3.1368 -3.6475 -3.5609 -3.0604 2161.7983 -37.7423)" gradientUnits="userSpaceOnUse">
		<stop  offset="0" style="stop-color:#E2AE55"/>
		<stop  offset="1" style="stop-color:#D8931B"/>
	</radialGradient>
	<ellipse id="Ellipse_50-8" class="st11" cx="5.3" cy="2.4" rx="2.5" ry="2.4"/>
	<path id="Path_105-9" class="st0" d="M14.2,13.1c0,0-0.6-4.5,0.7-6.5c0.3-0.4,0.7-0.7,1.8-0.5c0.8,0.3,1.7,0.6,2.5,0.8
		c0.9,0,1.6-0.6,2.4-0.7c0.6-0.2,1.3-0.1,1.7,0.4c0.5,0.5,0.6,6.5,0.6,6.5h-1.8l0-4.2h-0.3V14L19,18.5L16.3,14V8.9h-0.3l0,4.2
		L14.2,13.1z"/>
	<path id="Path_106-9" class="st1" d="M14.2,12.8c0,0-0.6-4.2,0.7-6.2c0.3-0.4,0.7-0.7,1.8-0.5c0.8,0.3,1.7,0.5,2.5,0.6
		c0.8-0.1,1.6-0.3,2.4-0.5c0.6-0.2,1.3-0.1,1.7,0.4c0.5,0.5,0.6,6.2,0.6,6.2h-1.8l0-3.9h-0.3V14L19,14.2L16.3,14V8.9h-0.3v3.9H14.2z
		"/>
	<path id="Path_107-9" class="st2" d="M19,14.2l0,4.3c0,0,2.8-4.5,2.7-4.5S19,14.2,19,14.2z"/>
	<path id="Path_108-9" class="st3" d="M19.2,6.7c0.8-0.1,1.6-0.2,2.4-0.5c0.6-0.2,1.3-0.1,1.7,0.4c0.5,0.5,0.6,6.2,0.6,6.2h-1.8V8.9
		h-0.3V14L19,14.2C19,14.2,19.2,7.6,19.2,6.7z"/>
	
		<radialGradient id="Ellipse_50-9_1_" cx="-298.7159" cy="342.8984" r="0.525" gradientTransform="matrix(3.1368 -3.6475 -3.5609 -3.0604 2175.8323 -36.5553)" gradientUnits="userSpaceOnUse">
		<stop  offset="0" style="stop-color:#E2AE55"/>
		<stop  offset="1" style="stop-color:#D8931B"/>
	</radialGradient>
	<ellipse id="Ellipse_50-9" class="st12" cx="19.3" cy="3.6" rx="2.5" ry="2.4"/>
	<path id="Path_105-10" class="st0" d="M25.2,13.1c0,0-0.6-4.5,0.7-6.5c0.3-0.4,0.7-0.7,1.8-0.5c0.8,0.3,1.7,0.6,2.5,0.8
		c0.9,0,1.6-0.6,2.4-0.7c0.6-0.2,1.3-0.1,1.7,0.4c0.5,0.5,0.6,6.5,0.6,6.5h-1.8l0-4.2h-0.3V14l-2.8,4.5L27.4,14V8.9h-0.3l0,4.2
		L25.2,13.1z"/>
	<path id="Path_106-10" class="st1" d="M25.2,12.8c0,0-0.6-4.2,0.7-6.2c0.3-0.4,0.7-0.7,1.8-0.5c0.8,0.3,1.7,0.5,2.5,0.6
		c0.8-0.1,1.6-0.3,2.4-0.5c0.6-0.2,1.3-0.1,1.7,0.4c0.5,0.5,0.6,6.2,0.6,6.2h-1.8l0-3.9h-0.3V14l-2.7,0.2L27.4,14V8.9h-0.3v3.9H25.2
		z"/>
	<path id="Path_107-10" class="st2" d="M30.1,14.2l0,4.3c0,0,2.8-4.5,2.7-4.5S30.1,14.2,30.1,14.2z"/>
	<path id="Path_108-10" class="st3" d="M30.2,6.7c0.8-0.1,1.6-0.2,2.4-0.5c0.6-0.2,1.3-0.1,1.7,0.4c0.5,0.5,0.6,6.2,0.6,6.2h-1.8
		V8.9h-0.3V14l-2.7,0.2C30.1,14.2,30.2,7.6,30.2,6.7z"/>
	
		<radialGradient id="Ellipse_50-10_1_" cx="-298.7159" cy="342.8984" r="0.525" gradientTransform="matrix(3.1368 -3.6475 -3.5609 -3.0604 2186.8623 -36.5553)" gradientUnits="userSpaceOnUse">
		<stop  offset="0" style="stop-color:#E2AE55"/>
		<stop  offset="1" style="stop-color:#D8931B"/>
	</radialGradient>
	<ellipse id="Ellipse_50-10" class="st13" cx="30.3" cy="3.6" rx="2.5" ry="2.4"/>
	<path id="Path_105-11" class="st0" d="M38.5,11.9c0,0-0.6-4.5,0.7-6.5c0.3-0.4,0.7-0.7,1.8-0.5c0.8,0.3,1.7,0.6,2.5,0.8
		c0.9,0,1.6-0.6,2.4-0.7c0.6-0.2,1.3-0.1,1.7,0.4c0.5,0.5,0.6,6.5,0.6,6.5h-1.8l0-4.2h-0.3v5.1l-2.8,4.5l-2.7-4.5V7.7h-0.3l0,4.2
		L38.5,11.9z"/>
	<path id="Path_106-11" class="st1" d="M38.5,11.6c0,0-0.6-4.2,0.7-6.2c0.3-0.4,0.7-0.7,1.8-0.5c0.8,0.3,1.7,0.5,2.5,0.6
		c0.8-0.1,1.6-0.3,2.4-0.5c0.6-0.2,1.3-0.1,1.7,0.4c0.5,0.5,0.6,6.2,0.6,6.2h-1.8l0-3.9h-0.3v5.1L43.3,13l-2.7-0.2V7.7h-0.3v3.9
		H38.5z"/>
	<path id="Path_107-11" class="st2" d="M43.3,13l0,4.3c0,0,2.8-4.5,2.7-4.5S43.3,13,43.3,13z"/>
	<path id="Path_108-11" class="st3" d="M43.5,5.5c0.8-0.1,1.6-0.2,2.4-0.5c0.6-0.2,1.3-0.1,1.7,0.4c0.5,0.5,0.6,6.2,0.6,6.2h-1.8
		V7.7h-0.3v5.1L43.3,13C43.3,13,43.5,6.4,43.5,5.5z"/>
	
		<radialGradient id="Ellipse_50-11_1_" cx="-298.7159" cy="342.8984" r="0.525" gradientTransform="matrix(3.1368 -3.6475 -3.5609 -3.0604 2200.1091 -37.7423)" gradientUnits="userSpaceOnUse">
		<stop  offset="0" style="stop-color:#E2AE55"/>
		<stop  offset="1" style="stop-color:#D8931B"/>
	</radialGradient>
	<ellipse id="Ellipse_50-11" class="st14" cx="43.6" cy="2.4" rx="2.5" ry="2.4"/>
	<path id="Path_105-12" class="st0" d="M2.8,32.1c0,0-1-7.2,1-10.4C4.3,21,5,20.5,6.8,20.9s2.6,1.2,4,1.3s2.6-0.9,3.8-1.2
		c0.9-0.3,2-0.1,2.7,0.7c0.9,0.8,1,10.3,1,10.3h-2.9l0-6.7h-0.5v8.2l-4.4,7.1l-4.3-7.1v-8.2H5.8l0,6.7H2.8z"/>
	<path id="Path_106-12" class="st1" d="M2.8,31.6c0,0-1-6.7,1.1-9.9C4.3,21,5,20.5,6.8,20.9s2.6,1,4,1c1.3-0.1,2.6-0.4,3.8-0.9
		c0.9-0.3,2-0.1,2.7,0.7c0.9,0.8,1,9.9,1,9.9h-2.8l0-6.2h-0.5v8.2l-4.4,0.3l-4.3-0.3v-8.2H5.8v6.3L2.8,31.6z"/>
	<path id="Path_107-12" class="st2" d="M10.5,33.7l0,6.9c0,0,4.4-7.1,4.3-7.1S10.5,33.7,10.5,33.7z"/>
	<path id="Path_108-12" class="st3" d="M10.8,21.9c1.4,0.1,2.6-0.6,3.8-0.9c0.9-0.3,2-0.1,2.7,0.7c0.9,0.8,1,9.9,1,9.9h-2.8v-6.2
		h-0.5v8.2l-4.4,0.3C10.6,33.8,10.8,23.3,10.8,21.9z"/>
	
		<radialGradient id="Ellipse_50-12_1_" cx="-238.08" cy="390.3689" r="0.525" gradientTransform="matrix(7.862 0 0 -7.67 1880.3679 3011.0276)" gradientUnits="userSpaceOnUse">
		<stop  offset="0" style="stop-color:#E2AE55"/>
		<stop  offset="1" style="stop-color:#D8931B"/>
	</radialGradient>
	<ellipse id="Ellipse_50-12" class="st15" cx="11" cy="16.9" rx="3.9" ry="3.8"/>
	<path id="Path_105-13" class="st0" d="M29.5,32.1c0,0-1-7.2,1-10.4c0.5-0.7,1.1-1.2,2.9-0.7s2.6,1.2,4,1.3s2.6-0.9,3.8-1.2
		c0.9-0.3,2-0.1,2.7,0.7c0.9,0.8,1,10.3,1,10.3h-2.9l0-6.7h-0.5v8.2l-4.4,7.1l-4.3-7.1v-8.2h-0.4l0,6.7H29.5z"/>
	<path id="Path_106-13" class="st1" d="M29.5,31.6c0,0-1-6.7,1.1-9.9c0.5-0.7,1.1-1.2,2.9-0.7s2.6,1,4,1c1.3-0.1,2.6-0.4,3.8-0.9
		c0.9-0.3,2-0.1,2.7,0.7c0.9,0.8,1,9.9,1,9.9h-2.8l0-6.2h-0.5v8.2l-4.4,0.3l-4.3-0.3v-8.2h-0.4v6.3L29.5,31.6z"/>
	<path id="Path_107-13" class="st2" d="M37.2,33.7l0,6.9c0,0,4.4-7.1,4.3-7.1S37.2,33.7,37.2,33.7z"/>
	<path id="Path_108-13" class="st3" d="M37.5,21.9c1.4,0.1,2.6-0.6,3.8-0.9c0.9-0.3,2-0.1,2.7,0.7c0.9,0.8,1,9.9,1,9.9h-2.8v-6.2
		h-0.5v8.2l-4.4,0.3C37.2,33.8,37.5,23.3,37.5,21.9z"/>
	
		<radialGradient id="Ellipse_50-13_1_" cx="-238.08" cy="390.3689" r="0.525" gradientTransform="matrix(7.862 0 0 -7.67 1907.0439 3011.0276)" gradientUnits="userSpaceOnUse">
		<stop  offset="0" style="stop-color:#E2AE55"/>
		<stop  offset="1" style="stop-color:#D8931B"/>
	</radialGradient>
	<ellipse id="Ellipse_50-13" class="st16" cx="37.6" cy="16.9" rx="3.9" ry="3.8"/>
	<path id="Path_105-14" class="st0" d="M16.5,34.4c0,0-1-7.2,1-10.4c0.5-0.7,1.1-1.2,2.9-0.7s2.6,1.2,4,1.3s2.6-0.9,3.8-1.2
		c0.9-0.3,2-0.1,2.7,0.7c0.9,0.8,1,10.3,1,10.3H29l0-6.7h-0.5v8.2L24.2,43l-4.3-7.1v-8.2h-0.4l0,6.7H16.5z"/>
	<path id="Path_106-14" class="st1" d="M16.4,34c0,0-1-6.7,1.1-9.9c0.5-0.7,1.1-1.2,2.9-0.7s2.6,1,4,1c1.3-0.1,2.6-0.4,3.8-0.9
		c0.9-0.3,2-0.1,2.7,0.7c0.9,0.8,1,9.9,1,9.9H29l0-6.2h-0.5v8.2l-4.4,0.3l-4.3-0.3v-8.2h-0.4V34L16.4,34z"/>
	<path id="Path_107-14" class="st2" d="M24.2,36.1l0,6.9c0,0,4.4-7.1,4.3-7.1S24.2,36.1,24.2,36.1z"/>
	<path id="Path_108-14" class="st3" d="M24.4,24.2c1.4,0.1,2.6-0.6,3.8-0.9c0.9-0.3,2-0.1,2.7,0.7c0.9,0.8,1,9.9,1,9.9h-2.8v-6.2
		h-0.5v8.2l-4.4,0.3C24.2,36.2,24.4,25.6,24.4,24.2z"/>
	
		<radialGradient id="Ellipse_50-14_1_" cx="-238.08" cy="390.3689" r="0.525" gradientTransform="matrix(7.862 0 0 -7.67 1894.002 3013.4036)" gradientUnits="userSpaceOnUse">
		<stop  offset="0" style="stop-color:#E2AE55"/>
		<stop  offset="1" style="stop-color:#D8931B"/>
	</radialGradient>
	<ellipse id="Ellipse_50-14" class="st17" cx="24.6" cy="19.3" rx="3.9" ry="3.8"/>
</g>
</svg>
