<svg xmlns="http://www.w3.org/2000/svg" xmlns:xlink="http://www.w3.org/1999/xlink" width="44.647" height="42.761" viewBox="0 0 44.647 42.761">
  <defs>
    <radialGradient id="radial-gradient" cx="0.198" cy="0.5" r="0.525" gradientTransform="matrix(0.636, -0.758, 0.722, 0.636, -0.289, 0.332)" gradientUnits="objectBoundingBox">
      <stop offset="0" stop-color="#b289c8"/>
      <stop offset="1" stop-color="#9461b1"/>
    </radialGradient>
    <radialGradient id="radial-gradient-2" cx="0.198" cy="0.5" r="0.525" xlink:href="#radial-gradient"/>
  </defs>
  <g id="Group_793" data-name="Group 793" transform="translate(-1375.085 -1365.688)">
    <g id="Group_639" data-name="Group 639" transform="translate(1375.085 1365.688)">
      <path id="Path_1015" data-name="Path 1015" d="M-2135.11,855s-1.578-11.173,1.608-16.131c.718-1.04,1.751-1.787,4.483-1.155s4.021,1.839,6.235,1.954,3.965-1.379,5.921-1.81a3.871,3.871,0,0,1,4.145,1.011c1.349,1.179,1.528,16.039,1.528,16.039h-4.467l.047-10.35h-.777v12.708l-6.807,11.018-6.64-11.018V844.555h-.667l.018,10.442Z" transform="translate(2135.543 -825.535)" fill="#b18bc7"/>
      <path id="Path_1016" data-name="Path 1016" d="M-2135.2,854.251s-1.5-10.427,1.69-15.386c.717-1.04,1.752-1.787,4.48-1.155s4.022,1.5,6.263,1.493,3.939-.918,5.9-1.349a3.872,3.872,0,0,1,4.145,1.011c1.349,1.179,1.5,15.333,1.5,15.333h-4.416l.021-9.644h-.775v12.708l-6.759.432-6.688-.432V844.555h-.669l.007,9.7Z" transform="translate(2135.551 -825.535)" fill="#a075b8"/>
      <path id="Path_1017" data-name="Path 1017" d="M-2113.544,861.955l-.024,10.7s6.819-11.051,6.67-11.014S-2113.544,861.955-2113.544,861.955Z" transform="translate(2125.918 -829.893)" fill="#8a59a5"/>
      <path id="Path_1018" data-name="Path 1018" d="M-2120.4,839.228c2.211.115,3.986-.907,5.941-1.339a3.87,3.87,0,0,1,4.145,1.012c1.352,1.178,1.525,15.327,1.525,15.327h-4.414l0-9.638h-.775V857.3l-6.759.432S-2120.393,841.4-2120.4,839.228Z" transform="translate(2133.138 -825.572)" fill="#9263ac"/>
      <ellipse id="Ellipse_219" data-name="Ellipse 219" cx="6.097" cy="5.948" rx="6.097" ry="5.948" transform="translate(6.92 0)" fill="url(#radial-gradient)"/>
    </g>
    <g id="Group_640" data-name="Group 640" transform="translate(1395.378 1365.688)">
      <path id="Path_1015-2" data-name="Path 1015" d="M-2135.11,855s-1.578-11.173,1.608-16.131c.718-1.04,1.751-1.787,4.483-1.155s4.021,1.839,6.235,1.954,3.965-1.379,5.921-1.81a3.871,3.871,0,0,1,4.145,1.011c1.349,1.179,1.528,16.039,1.528,16.039h-4.467l.047-10.35h-.777v12.708l-6.807,11.018-6.64-11.018V844.555h-.667l.018,10.442Z" transform="translate(2135.543 -825.535)" fill="#b18bc7"/>
      <path id="Path_1016-2" data-name="Path 1016" d="M-2135.2,854.251s-1.5-10.427,1.69-15.386c.717-1.04,1.752-1.787,4.48-1.155s4.022,1.5,6.263,1.493,3.939-.918,5.9-1.349a3.872,3.872,0,0,1,4.145,1.011c1.349,1.179,1.5,15.333,1.5,15.333h-4.416l.021-9.644h-.775v12.708l-6.759.432-6.688-.432V844.555h-.669l.007,9.7Z" transform="translate(2135.551 -825.535)" fill="#a075b8"/>
      <path id="Path_1017-2" data-name="Path 1017" d="M-2113.544,861.955l-.024,10.7s6.819-11.051,6.67-11.014S-2113.544,861.955-2113.544,861.955Z" transform="translate(2125.918 -829.893)" fill="#8a59a5"/>
      <path id="Path_1018-2" data-name="Path 1018" d="M-2120.4,839.228c2.211.115,3.986-.907,5.941-1.339a3.87,3.87,0,0,1,4.145,1.012c1.352,1.178,1.525,15.327,1.525,15.327h-4.414l0-9.638h-.775V857.3l-6.759.432S-2120.393,841.4-2120.4,839.228Z" transform="translate(2133.138 -825.572)" fill="#9263ac"/>
      <ellipse id="Ellipse_219-2" data-name="Ellipse 219" cx="6.097" cy="5.948" rx="6.097" ry="5.948" transform="translate(6.92 0)" fill="url(#radial-gradient-2)"/>
    </g>
  </g>
</svg>
