<?xml version="1.0" encoding="UTF-8" standalone="no"?>
<svg
   xmlns:dc="http://purl.org/dc/elements/1.1/"
   xmlns:cc="http://creativecommons.org/ns#"
   xmlns:rdf="http://www.w3.org/1999/02/22-rdf-syntax-ns#"
   xmlns:svg="http://www.w3.org/2000/svg"
   xmlns="http://www.w3.org/2000/svg"
   xmlns:sodipodi="http://sodipodi.sourceforge.net/DTD/sodipodi-0.dtd"
   xmlns:inkscape="http://www.inkscape.org/namespaces/inkscape"
   version="1.1"
   id="svg2"
   xml:space="preserve"
   width="1510.4268"
   height="370.95999"
   viewBox="0 0 1510.4268 370.95999"
   sodipodi:docname="Trustpilot_brandmark_gr-blk_RGB.eps"><metadata
     id="metadata8"><rdf:RDF><cc:Work
         rdf:about=""><dc:format>image/svg+xml</dc:format><dc:type
           rdf:resource="http://purl.org/dc/dcmitype/StillImage" /></cc:Work></rdf:RDF></metadata><defs
     id="defs6" /><sodipodi:namedview
     pagecolor="#ffffff"
     bordercolor="#666666"
     borderopacity="1"
     objecttolerance="10"
     gridtolerance="10"
     guidetolerance="10"
     inkscape:pageopacity="0"
     inkscape:pageshadow="2"
     inkscape:window-width="640"
     inkscape:window-height="480"
     id="namedview4" /><g
     id="g10"
     inkscape:groupmode="layer"
     inkscape:label="ink_ext_XXXXXX"
     transform="matrix(1.3333333,0,0,-1.3333333,0,370.96)"><g
       id="g12"
       transform="scale(0.1)"><path
         d="m 10726.8,1405.38 h 170.7 v 307.67 h 226.3 v -307.67 h 204.4 v -168.72 h -204.4 V 688.801 c 0,-23.821 1,-44.352 3,-61.531 2,-17.219 6.6,-31.758 13.9,-43.668 7.2,-11.922 18.1,-20.84 32.7,-26.801 14.6,-5.961 34.4,-8.942 59.6,-8.942 15.9,0 31.7,0.321 47.6,1 15.9,0.653 31.8,2.981 47.6,6.942 v -174.68 c -25.1,-2.633 -49.6,-5.269 -73.4,-7.93 -23.8,-2.64 -48.3,-3.98 -73.4,-3.98 -59.6,0 -107.6,5.648 -144,16.879 -36.4,11.23 -64.8,27.789 -85.3,49.621 -20.5,21.84 -34.4,49.277 -41.7,82.379 -7.3,33.058 -11.6,70.781 -12.9,113.14 v 605.43 h -170.7 z M 10143.2,530 c 50.3,0 94,10.578 131,31.762 37.1,21.148 67.5,48.937 91.4,83.367 23.8,34.391 41.3,73.101 52.5,116.121 11.3,42.988 16.9,87 16.9,132 0,43.68 -5.6,87.352 -16.9,131.02 -11.2,43.66 -28.7,82.37 -52.5,116.12 -23.9,33.74 -54.3,61.19 -91.4,82.38 -37,21.15 -80.7,31.75 -131,31.75 -50.3,0 -93.9,-10.6 -131,-31.75 -37.04,-21.19 -67.47,-48.64 -91.29,-82.38 -23.82,-33.75 -41.37,-72.46 -52.6,-116.12 -11.26,-43.668 -16.87,-87.34 -16.87,-131.02 0,-45 5.61,-89.012 16.87,-132 11.23,-43.02 28.78,-81.73 52.6,-116.121 23.82,-34.43 54.25,-62.219 91.29,-83.367 37.1,-21.184 80.7,-31.762 131,-31.762 z m 0,-178.648 c -82,0 -155.14,13.578 -219.31,40.687 -64.21,27.109 -118.45,64.512 -162.77,112.152 -44.36,47.649 -78.1,104.528 -101.23,170.707 -23.18,66.161 -34.74,138.961 -34.74,218.352 0,78.07 11.56,150.18 34.74,216.37 23.13,66.15 56.87,123.07 101.23,170.71 44.32,47.63 98.56,85.01 162.77,112.15 64.17,27.1 137.31,40.69 219.31,40.69 82.1,0 155.2,-13.59 219.4,-40.69 64.1,-27.14 118.4,-64.52 162.7,-112.15 44.4,-47.64 78.1,-104.56 101.3,-170.71 23.1,-66.19 34.7,-138.3 34.7,-216.37 0,-79.391 -11.6,-152.191 -34.7,-218.352 -23.2,-66.179 -56.9,-123.058 -101.3,-170.707 -44.3,-47.64 -98.6,-85.043 -162.7,-112.152 -64.2,-27.109 -137.3,-40.687 -219.4,-40.687 z M 9224.18,1796.42 h 226.29 V 379.141 h -226.29 z m -428.52,-391.04 h 226.29 V 379.141 h -226.29 z m 0,391.04 h 226.29 V 1582.04 H 8795.66 Z M 8396.68,891.27 c 0,46.308 -5.95,91.308 -17.87,134.98 -11.9,43.67 -29.77,82.37 -53.59,116.12 -23.82,33.75 -53.59,60.85 -89.33,81.39 -35.72,20.5 -76.75,30.76 -123.06,30.76 -95.29,0 -167.08,-33.09 -215.37,-99.24 -48.32,-66.2 -72.46,-154.18 -72.46,-264.01 0,-51.61 6.26,-99.59 18.86,-143.911 12.56,-44.347 31.42,-82.379 56.57,-114.14 25.12,-31.758 55.24,-56.91 90.32,-75.43 35.05,-18.551 75.74,-27.789 122.08,-27.789 51.61,0 95.28,10.578 131,31.762 35.73,21.148 65.17,48.629 88.34,82.367 23.14,33.75 39.7,72.121 49.62,115.141 9.93,42.992 14.89,86.992 14.89,132 z m -790.03,514.11 h 214.38 v -138.94 h 3.97 c 31.76,59.54 76.08,102.21 132.99,128.02 56.89,25.81 118.42,38.71 184.61,38.71 80.71,0 151.17,-14.24 211.41,-42.68 60.19,-28.47 110.16,-67.49 149.86,-117.11 39.7,-49.62 69.47,-107.53 89.33,-173.68 19.84,-66.19 29.77,-136.97 29.77,-212.399 0,-68.821 -8.93,-135.66 -26.79,-200.481 -17.87,-64.859 -45.01,-122.082 -81.39,-171.711 -36.42,-49.621 -82.38,-89.328 -137.96,-119.097 -55.58,-29.774 -121.08,-44.66 -196.51,-44.66 -33.1,0 -66.19,2.976 -99.25,8.937 -33.1,5.949 -64.85,15.563 -95.28,28.77 -30.46,13.222 -58.56,30.089 -84.37,50.621 -25.8,20.511 -47.32,44.672 -64.51,72.449 h -3.97 V 0 h -226.29 z m -760.24,0 h 170.71 v 307.67 h 226.29 v -307.67 h 204.46 V 1236.66 H 7243.41 V 688.801 c 0,-23.821 1,-44.352 2.98,-61.531 1.98,-17.219 6.6,-31.758 13.9,-43.668 7.25,-11.922 18.17,-20.84 32.75,-26.801 14.54,-5.961 34.4,-8.942 59.54,-8.942 15.89,0 31.77,0.321 47.65,1 15.88,0.653 31.76,2.981 47.64,6.942 v -174.68 c -25.16,-2.633 -49.62,-5.269 -73.45,-7.93 -23.82,-2.64 -48.32,-3.98 -73.44,-3.98 -59.55,0 -107.54,5.648 -143.92,16.879 -36.41,11.23 -64.85,27.789 -85.35,49.621 -20.53,21.84 -34.43,49.277 -41.69,82.379 -7.28,33.058 -11.6,70.781 -12.9,113.14 v 605.43 H 6846.41 Z M 6100.06,708.648 c 6.6,-66.187 31.76,-112.5 75.43,-138.949 43.66,-26.488 95.93,-39.699 156.81,-39.699 21.15,0 45.32,1.641 72.46,4.961 27.1,3.289 52.6,9.578 76.42,18.859 23.81,9.239 43.33,22.828 58.56,40.692 15.2,17.859 22.14,41.347 20.84,70.468 -1.34,29.09 -11.91,52.911 -31.76,71.461 -19.85,18.508 -45.35,33.411 -76.42,44.668 -31.12,11.219 -66.5,20.84 -106.2,28.77 -39.7,7.941 -80.08,16.539 -121.09,25.812 -42.36,9.239 -83.05,20.5 -122.08,33.75 -39.04,13.207 -74.12,31.067 -105.2,53.59 -31.11,22.489 -55.92,51.27 -74.44,86.349 -18.54,35.05 -27.79,78.4 -27.79,130.02 0,55.57 13.55,102.22 40.69,139.94 27.11,37.7 61.54,68.13 103.23,91.3 41.69,23.14 87.98,39.36 138.94,48.63 50.93,9.25 99.56,13.9 145.9,13.9 52.92,0 103.53,-5.65 151.86,-16.87 48.29,-11.26 91.96,-29.47 131,-54.59 39.02,-25.16 71.47,-57.91 97.27,-98.25 25.81,-40.38 42,-89.01 48.63,-145.9 h -236.21 c -10.61,54.25 -35.42,90.63 -74.44,109.17 -39.05,18.53 -83.71,27.79 -133.99,27.79 -15.88,0 -34.74,-1.32 -56.57,-3.96 -21.84,-2.67 -42.36,-7.64 -61.53,-14.89 -19.2,-7.29 -35.42,-17.87 -48.64,-31.76 -13.24,-13.9 -19.85,-32.1 -19.85,-54.59 0,-27.79 9.59,-50.3 28.79,-67.49 19.17,-17.21 44.31,-31.45 75.43,-42.68 31.07,-11.26 66.49,-20.84 106.19,-28.78 39.71,-7.94 80.7,-16.561 123.08,-25.811 40.99,-9.27 81.38,-20.528 121.08,-33.739 39.7,-13.242 75.09,-31.109 106.2,-53.59 31.07,-22.519 56.23,-50.968 75.43,-85.359 19.16,-34.43 28.78,-76.762 28.78,-127.043 0,-60.879 -13.9,-112.488 -41.69,-154.828 -27.78,-42.371 -63.86,-76.77 -108.18,-103.219 -44.35,-26.492 -93.64,-45.66 -147.88,-57.57 -54.28,-11.902 -107.88,-17.859 -160.79,-17.859 -64.85,0 -124.74,7.277 -179.63,21.839 -54.94,14.547 -102.58,36.707 -142.92,66.489 -40.39,29.769 -72.15,66.808 -95.29,111.16 -23.17,44.328 -35.42,96.93 -36.73,157.808 z M 5714.98,379.141 h -222.31 v 142.918 h -3.97 C 5460.91,470.449 5419.53,429.07 5364.64,398 c -54.93,-31.082 -110.85,-46.648 -167.74,-46.648 -134.98,0 -232.58,33.41 -292.79,100.238 -60.22,66.808 -90.31,167.738 -90.31,302.719 v 651.071 h 226.29 V 776.141 c 0,-90.012 17.18,-153.532 51.61,-190.563 34.39,-37.058 82.68,-55.578 144.9,-55.578 47.64,0 87.34,7.262 119.1,21.84 31.76,14.539 57.57,34.051 77.41,58.551 19.86,24.468 34.06,53.91 42.68,88.328 8.59,34.402 12.91,71.472 12.91,111.16 v 595.501 h 226.28 z M 4075.1,1405.38 h 212.39 v -198.49 h 3.98 c 6.6,27.79 19.5,54.89 38.7,81.37 19.17,26.46 42.34,50.62 69.48,72.45 27.1,21.84 57.22,39.37 90.32,52.61 33.06,13.21 66.8,19.85 101.23,19.85 26.46,0 44.66,-0.68 54.59,-1.99 9.93,-1.33 20.16,-2.66 30.77,-3.97 v -218.34 c -15.88,2.64 -32.1,4.96 -48.64,6.95 -16.56,1.98 -32.75,2.97 -48.63,2.97 -38.4,0 -74.44,-7.63 -108.18,-22.82 -33.74,-15.24 -63.21,-37.72 -88.33,-67.49 -25.16,-29.78 -45.01,-66.5 -59.55,-110.17 -14.58,-43.669 -21.84,-93.982 -21.84,-150.861 V 379.141 H 4075.1 Z m -1097.68,391.04 h 1147.33 v -214.38 h -450.6 V 379.141 H 3426.03 V 1582.04 h -448.61 v 214.38"
         style="fill:#1a1918;fill-opacity:1;fill-rule:nonzero;stroke:none"
         id="path14" /><path
         d="M 2713.21,1796.42 1676.8,1796.6 1356.61,2782.22 1036.45,1796.71 0,1796.88 838.535,1187.48 518.309,201.762 1356.72,810.891 2194.9,201.762 l -320.15,985.498 838.46,609.16 v 0 0 0"
         style="fill:#3aba72;fill-opacity:1;fill-rule:nonzero;stroke:none"
         id="path16" /><path
         d="m 1947.33,963.84 -72.58,223.42 -518.03,-376.369 z"
         style="fill:#1a4d26;fill-opacity:1;fill-rule:nonzero;stroke:none"
         id="path18" /></g></g></svg>
