<svg xmlns="http://www.w3.org/2000/svg" width="49.949" height="50.969" viewBox="0 0 49.949 50.969"><path d="M155.015,111.971a21.838,21.838,0,0,0-.538-5.21H130.55v9.457h14.045a12.454,12.454,0,0,1-5.21,8.268l-.048.317,7.565,5.861.524.052c4.814-4.446,7.589-10.987,7.589-18.745" transform="translate(-105.066 -85.92)" fill="#4285f4"/><path d="M36.691,176.814c6.881,0,12.657-2.265,16.876-6.173l-8.042-6.23a15.083,15.083,0,0,1-8.835,2.548,15.342,15.342,0,0,1-14.5-10.59l-.3.025-7.866,6.088-.1.286a25.466,25.466,0,0,0,22.766,14.045" transform="translate(-11.207 -125.845)" fill="#34a853"/><path d="M10.987,87.916a15.689,15.689,0,0,1-.849-5.04,16.486,16.486,0,0,1,.821-5.04l-.014-.338L2.979,71.312l-.261.124a25.431,25.431,0,0,0,0,22.879l8.268-6.4" transform="translate(0 -57.391)" fill="#fbbc05"/><path d="M36.691,9.854a14.124,14.124,0,0,1,9.854,3.794l7.192-7.022A24.485,24.485,0,0,0,36.691,0,25.466,25.466,0,0,0,13.925,14.045l8.24,6.4A15.4,15.4,0,0,1,36.691,9.854" transform="translate(-11.207)" fill="#eb4335"/></svg>