<svg xmlns="http://www.w3.org/2000/svg" xmlns:xlink="http://www.w3.org/1999/xlink" width="192.283" height="30.808" viewBox="0 0 192.283 30.808"><defs><clipPath id="a"><path d="M39.2,22.939a10.454,10.454,0,0,1,3.945,7.773c-.19,6.084-3.06,9.994-7.991,11.671-5.7,1.716-9.306.328-12.8-3.231l-.582,3.618c6.074,3.992,14.9,5.976,20.483.467A14.448,14.448,0,0,0,41.23,21.919Z" transform="translate(-21.769 -21.919)" clip-rule="evenodd"/></clipPath><clipPath id="b"><path d="M4.811,24.292l1.562-1.364C2.807,17.874,2.658,10.477,7.538,6.4a12.791,12.791,0,0,1,16.536.472l.889-1.563A15.168,15.168,0,0,0,8.633,1.233C-2.521,5.62-.8,20.313,4.811,24.292Z" transform="translate(-0.41 -0.336)" clip-rule="evenodd"/></clipPath></defs><rect width="192.283" height="30.808" fill="none"/><g transform="translate(0.104 0.086)"><path d="M141.694,28.612c3.128,0,5.364-1.609,5.364-4.291v-.059c0-2.562-1.968-4.112-5.334-4.112h-6.435v8.462Zm-8.759-9.445a1.19,1.19,0,0,1,1.162-1.192H141.9a8.224,8.224,0,0,1,5.929,2.086,5.765,5.765,0,0,1,1.608,4.112v.058c0,3.427-2.324,5.423-5.572,6.049l5.185,6.675a1.275,1.275,0,0,1,.387.863,1.231,1.231,0,0,1-1.192,1.163,1.369,1.369,0,0,1-1.1-.627l-5.87-7.627h-5.988v7.061a1.177,1.177,0,1,1-2.353,0V19.167Z" transform="translate(-99.146 -13.478)"/><path d="M216.244,37.641V19.168a1.19,1.19,0,0,1,1.162-1.192h12.961a1.073,1.073,0,0,1,0,2.146H218.6v7.12h10.429a1.088,1.088,0,0,1,1.073,1.073,1.068,1.068,0,0,1-1.073,1.072H218.6v7.3h11.918a1.072,1.072,0,0,1,0,2.145H217.406a1.189,1.189,0,0,1-1.162-1.191" transform="translate(-161.215 -13.479)"/><path d="M295.8,37.652,287.751,19.09a1.091,1.091,0,0,1-.12-.536,1.21,1.21,0,0,1,1.193-1.161,1.316,1.316,0,0,1,1.221.893l7.211,17.28,7.239-17.339a1.39,1.39,0,0,1,1.162-.834,1.158,1.158,0,0,1,1.162,1.133,1.233,1.233,0,0,1-.089.476l-8.075,18.652a1.44,1.44,0,0,1-1.37.984h-.119a1.413,1.413,0,0,1-1.37-.984" transform="translate(-214.401 -13.043)"/><path d="M379.94,18.583a1.177,1.177,0,1,1,2.353,0V37.353a1.177,1.177,0,1,1-2.353,0V18.583Z" transform="translate(-283.174 -13.043)"/><path d="M411.955,37.641V19.168a1.19,1.19,0,0,1,1.161-1.192h12.961a1.073,1.073,0,0,1,0,2.146h-11.77v7.12h10.428a1.087,1.087,0,0,1,1.073,1.073,1.067,1.067,0,0,1-1.073,1.072H414.308v7.3h11.918a1.072,1.072,0,0,1,0,2.145h-13.11a1.189,1.189,0,0,1-1.161-1.191" transform="translate(-307.027 -13.479)"/><path d="M483.815,19.122a1.736,1.736,0,0,1-.118-.536,1.24,1.24,0,0,1,1.221-1.191,1.333,1.333,0,0,1,1.222.982l5.75,16.567,5.452-16.626A1.183,1.183,0,0,1,498.5,17.4h.15a1.207,1.207,0,0,1,1.161.923l5.452,16.626,5.78-16.626a1.2,1.2,0,0,1,1.133-.923,1.231,1.231,0,0,1,1.192,1.161,2.034,2.034,0,0,1-.149.566l-6.675,18.531a1.319,1.319,0,0,1-1.221,1.013h-.179a1.32,1.32,0,0,1-1.221-1.013L498.5,21.625,493.11,37.654a1.318,1.318,0,0,1-1.221,1.013h-.178a1.286,1.286,0,0,1-1.222-1.013Z" transform="translate(-360.477 -13.046)"/><path d="M610.331,35.459a1.064,1.064,0,0,1-.447-.895,1.14,1.14,0,0,1,1.134-1.162,1.04,1.04,0,0,1,.714.268,9.481,9.481,0,0,0,6.585,2.474c2.8,0,4.648-1.491,4.648-3.546v-.059c0-1.937-1.043-3.038-5.422-3.963-4.8-1.042-7-2.592-7-6.019V22.5c0-3.277,2.89-5.691,6.853-5.691a10.635,10.635,0,0,1,6.644,2.056,1.21,1.21,0,0,1,.507.953,1.131,1.131,0,0,1-1.131,1.132,1.1,1.1,0,0,1-.685-.208,8.726,8.726,0,0,0-5.394-1.818c-2.711,0-4.439,1.489-4.439,3.367v.059c0,1.968,1.073,3.069,5.661,4.053,4.648,1.013,6.793,2.71,6.793,5.9v.061c0,3.575-2.979,5.9-7.12,5.9a12.194,12.194,0,0,1-7.9-2.8" transform="translate(-454.492 -12.608)"/><path d="M682.017,90.531a.762.762,0,0,1,.783.783v.333a.792.792,0,1,1-1.583,0v-.333a.766.766,0,0,1,.8-.783" transform="translate(-507.637 -67.535)"/><path d="M698.072,54.61a.648.648,0,0,1,.633-.65.64.64,0,0,1,.65.65v7.482a.627.627,0,0,1-.634.65.641.641,0,0,1-.649-.65V54.61Zm-.117-3.266a.762.762,0,0,1,1.516,0v.216a.762.762,0,0,1-1.516,0Z" transform="translate(-520.108 -37.829)"/><path d="M720.723,67.743V67.71a3.262,3.262,0,0,0-3.2-3.368,3.181,3.181,0,0,0-3.15,3.335v.033a3.232,3.232,0,0,0,3.184,3.349,3.179,3.179,0,0,0,3.166-3.316m-7.666,0V67.71a4.491,4.491,0,0,1,8.982-.033v.033a4.473,4.473,0,0,1-4.516,4.5,4.414,4.414,0,0,1-4.466-4.466" transform="translate(-531.359 -47.18)"/><path d="M39.2,22.939a10.454,10.454,0,0,1,3.945,7.773c-.19,6.084-3.06,9.994-7.991,11.671-5.7,1.716-9.306.328-12.8-3.231l-.582,3.618c6.074,3.992,14.9,5.976,20.483.467A14.448,14.448,0,0,0,41.23,21.919Z" transform="translate(-16.323 -16.416)" fill="none" fill-rule="evenodd"/><g transform="translate(5.446 5.503)" clip-path="url(#a)"><path d="M21.6,2.9A12.927,12.927,0,1,0,2.941,20.8l3.9,4.067A12.927,12.927,0,1,0,25.5,6.968L21.6,2.9Z" transform="translate(-5.061 -4.789)" fill="#feef7c" fill-rule="evenodd"/></g><path d="M4.811,24.292l1.562-1.364C2.807,17.874,2.658,10.477,7.538,6.4a12.791,12.791,0,0,1,16.536.472l.889-1.563A15.168,15.168,0,0,0,8.633,1.233C-2.521,5.62-.8,20.313,4.811,24.292Z" transform="translate(-0.41 -0.336)" fill="none" fill-rule="evenodd"/><g clip-path="url(#b)"><path d="M24.393,5.7A12.927,12.927,0,0,0,5.738,23.6l3.9,4.067A12.927,12.927,0,1,0,28.3,9.766L24.393,5.7Z" transform="translate(-1.699 -1.371)" fill="#5cd3cb" fill-rule="evenodd"/></g><path d="M8.333,21.286A12.953,12.953,0,1,0,21.285,8.333,12.953,12.953,0,0,0,8.333,21.286Zm9.015,2.343a1.062,1.062,0,0,0-.377-1.171l-4.119-3.076a.531.531,0,0,1,.318-.957h4.922A1.063,1.063,0,0,0,19.1,17.7l1.671-5.045a.531.531,0,0,1,1.008,0l1.689,5.05a1.063,1.063,0,0,0,1.008.725h4.935a.531.531,0,0,1,.319.955l-4.114,3.1a1.062,1.062,0,0,0-.374,1.169l1.613,5.094a.531.531,0,0,1-.83.582l-4.1-3.15a1.062,1.062,0,0,0-1.3,0l-4.058,3.138a.531.531,0,0,1-.831-.58l1.612-5.105Z" transform="translate(-6.313 -6.294)"/></g></svg>