<?xml version="1.0" encoding="utf-8"?>
<!-- Generator: Adobe Illustrator 23.0.3, SVG Export Plug-In . SVG Version: 6.00 Build 0)  -->
<svg version="1.1" id="Layer_1" xmlns="http://www.w3.org/2000/svg" xmlns:xlink="http://www.w3.org/1999/xlink" x="0px" y="0px"
	 viewBox="0 0 200 200" style="enable-background:new 0 0 200 200;" xml:space="preserve">
<style type="text/css">
	.st0{fill:#4EC2F5;}
	.st1{fill:#28AEE9;}
	.st2{fill:#FFFFFF;}
	.st3{fill:none;}
	.st4{fill:#D1F1FF;}
	.st5{fill:#F3F3F3;}
	.st6{fill:none;stroke:#4EC2F5;stroke-width:3;stroke-miterlimit:10;}
	.st7{clip-path:url(#SVGID_2_);}
	.st8{fill:#AFB6BB;}
	.st9{clip-path:url(#SVGID_4_);}
</style>
<g>
	<g>
		<path class="st4" d="M142.7,198.8H57.3c-6.4,0-11.5-5.2-11.5-11.5V13.7c0-6.4,5.2-11.5,11.5-11.5h85.4c6.4,0,11.6,5.2,11.6,11.5
			v173.6C154.3,193.7,149.1,198.8,142.7,198.8L142.7,198.8z M142.7,198.8"/>
	</g>
	<g>
		<path class="st0" d="M107.7,185c0,4.3-3.4,7.7-7.7,7.7c-4.3,0-7.7-3.4-7.7-7.7c0-4.2,3.4-7.7,7.7-7.7
			C104.2,177.3,107.7,180.7,107.7,185L107.7,185z M107.7,185"/>
	</g>
	<g>
		<rect x="45.7" y="22.5" class="st0" width="108.5" height="150.3"/>
	</g>
	<line class="st6" x1="89.6" y1="13.2" x2="110.4" y2="13.2"/>
</g>
</svg>
