<?xml version="1.0" encoding="utf-8"?>
<!-- Generator: Adobe Illustrator 25.2.3, SVG Export Plug-In . SVG Version: 6.00 Build 0)  -->
<svg version="1.1" id="Layer_1" xmlns="http://www.w3.org/2000/svg" xmlns:xlink="http://www.w3.org/1999/xlink" x="0px" y="0px"
	 viewBox="0 0 178 202" style="enable-background:new 0 0 178 202;" xml:space="preserve">
<style type="text/css">
	.st0{clip-path:url(#SVGID_2_);fill:url(#SVGID_3_);}
	.st1{clip-path:url(#SVGID_2_);}
	.st2{fill:#FFFFFF;}
	.st3{fill:#CCCCCC;}
	.st4{fill:#EBEBEB;}
	.st5{fill:#4CAF50;}
	.st6{fill:#2196F3;}
	.st7{fill:none;stroke:#EDEDED;stroke-width:0.5;}
</style>
<g>
	<defs>
		<path id="SVGID_1_" d="M88.5,201.2C39.7,201.2,0,161.5,0,112.6S0-20.5,88.5,5.5c88.5-27.5,88.5,58.2,88.5,107.1
			S137.4,201.2,88.5,201.2z"/>
	</defs>
	<clipPath id="SVGID_2_">
		<use xlink:href="#SVGID_1_"  style="overflow:visible;"/>
	</clipPath>
	
		<linearGradient id="SVGID_3_" gradientUnits="userSpaceOnUse" x1="88.528" y1="2.784" x2="88.528" y2="180" gradientTransform="matrix(1 0 0 -1 0 204)">
		<stop  offset="0" style="stop-color:#A3E3FF"/>
		<stop  offset="1" style="stop-color:#A3E3FF;stop-opacity:0"/>
	</linearGradient>
	<path class="st0" d="M88.5,201.2C39.7,201.2,0,161.5,0,112.6S39.7,24,88.5,24c48.9,0,88.5,39.7,88.5,88.6S137.4,201.2,88.5,201.2z"
		/>
	<g class="st1">
		<g>
			<path class="st2" d="M150,20H27c-2.2,0-4,1.8-4,4v178c0,2.2,1.8,4,4,4h123c2.2,0,4-1.8,4-4V24C154,21.8,152.2,20,150,20z"/>
			<path class="st3" d="M108,33.3c0-0.7,0.6-1.3,1.3-1.3h34.5c0.7,0,1.3,0.6,1.3,1.3v2.2c0,0.7-0.6,1.3-1.3,1.3h-34.5
				c-0.7,0-1.3-0.6-1.3-1.3V33.3z"/>
			<path class="st3" d="M33,33.3c0-0.7,0.6-1.3,1.3-1.3h34.5c0.7,0,1.3,0.6,1.3,1.3v2.2c0,0.7-0.6,1.3-1.3,1.3H34.3
				c-0.7,0-1.3-0.6-1.3-1.3V33.3z"/>
			<path class="st3" d="M116.4,42.2c0-0.7,0.6-1.3,1.3-1.3h26.1c0.7,0,1.3,0.6,1.3,1.3v2.2c0,0.7-0.6,1.3-1.3,1.3h-26.1
				c-0.7,0-1.3-0.6-1.3-1.3V42.2z"/>
			<path class="st3" d="M39,91.3c0-0.7,0.6-1.3,1.3-1.3h21.5c0.7,0,1.3,0.6,1.3,1.3v2.2c0,0.7-0.6,1.3-1.3,1.3H40.3
				c-0.7,0-1.3-0.6-1.3-1.3V91.3z"/>
			<path class="st3" d="M39,98.3c0-0.7,0.6-1.3,1.3-1.3L55,97c0.7,0,1.3,0.6,1.3,1.3v2.2c0,0.7-0.6,1.3-1.3,1.3H40.3
				c-0.7,0-1.3-0.6-1.3-1.3V98.3z"/>
			<path class="st3" d="M39,105.3c0-0.7,0.6-1.3,1.3-1.3h18.3c0.7,0,1.3,0.6,1.3,1.3v2.2c0,0.7-0.6,1.3-1.3,1.3l-18.3,0
				c-0.7,0-1.3-0.6-1.3-1.3V105.3z"/>
			<path class="st3" d="M98,91.3c0-0.7,0.6-1.3,1.3-1.3h21.5c0.7,0,1.3,0.6,1.3,1.3v2.2c0,0.7-0.6,1.3-1.3,1.3H99.3
				c-0.7,0-1.3-0.6-1.3-1.3V91.3z"/>
			<path class="st3" d="M98,98.3c0-0.7,0.6-1.3,1.3-1.3l14.7,0c0.7,0,1.3,0.6,1.3,1.3v2.2c0,0.7-0.6,1.3-1.3,1.3H99.3
				c-0.7,0-1.3-0.6-1.3-1.3V98.3z"/>
			<path class="st3" d="M98,105.3c0-0.7,0.6-1.3,1.3-1.3h18.3c0.7,0,1.3,0.6,1.3,1.3v2.2c0,0.7-0.6,1.3-1.3,1.3l-18.3,0
				c-0.7,0-1.3-0.6-1.3-1.3V105.3z"/>
			<path class="st3" d="M39,132.3c0-0.7,0.6-1.3,1.3-1.3h20.9c0.7,0,1.3,0.6,1.3,1.3l0,2.6c0,0.7-0.6,1.3-1.3,1.3H40.3
				c-0.7,0-1.3-0.6-1.3-1.3L39,132.3z"/>
			<path class="st4" d="M33.4,143.3c0-0.7,0.6-1.3,1.3-1.3h106.9c0.7,0,1.3,0.6,1.3,1.3v14.2c0,0.7-0.6,1.3-1.3,1.3H34.8
				c-0.7,0-1.3-0.6-1.3-1.3V143.3z"/>
			<path class="st3" d="M39,149.3c0-0.7,0.6-1.3,1.3-1.3h14.9c0.7,0,1.3,0.6,1.3,1.3l0,2.6c0,0.7-0.6,1.3-1.3,1.3H40.3
				c-0.7,0-1.3-0.6-1.3-1.3L39,149.3z"/>
			<path class="st3" d="M66,149.3c0-0.7,0.6-1.3,1.3-1.3h14.9c0.7,0,1.3,0.6,1.3,1.3l0,2.6c0,0.7-0.6,1.3-1.3,1.3H67.3
				c-0.7,0-1.3-0.6-1.3-1.3L66,149.3z"/>
			<path class="st3" d="M93,149.3c0-0.7,0.6-1.3,1.3-1.3h14.9c0.7,0,1.3,0.6,1.3,1.3v2.6c0,0.7-0.6,1.3-1.3,1.3H94.3
				c-0.7,0-1.3-0.6-1.3-1.3L93,149.3z"/>
			<path class="st3" d="M120,149.3c0-0.7,0.6-1.3,1.3-1.3h14.9c0.7,0,1.3,0.6,1.3,1.3v2.6c0,0.7-0.6,1.3-1.3,1.3h-14.9
				c-0.7,0-1.3-0.6-1.3-1.3V149.3z"/>
			<path class="st3" d="M120,177.3c0-0.7,0.6-1.3,1.3-1.3h14.9c0.7,0,1.3,0.6,1.3,1.3v2.6c0,0.7-0.6,1.3-1.3,1.3h-14.9
				c-0.7,0-1.3-0.6-1.3-1.3V177.3z"/>
			<path class="st3" d="M91,64.3c0-0.7,0.6-1.3,1.3-1.3h20.2c0.7,0,1.3,0.6,1.3,1.3v2.2c0,0.7-0.6,1.3-1.3,1.3H92.3
				c-0.7,0-1.3-0.6-1.3-1.3V64.3z"/>
			<path class="st3" d="M33,64.3c0-0.7,0.6-1.3,1.3-1.3h20.2c0.7,0,1.3,0.6,1.3,1.3v2.2c0,0.7-0.6,1.3-1.3,1.3H34.3
				c-0.7,0-1.3-0.6-1.3-1.3V64.3z"/>
			<path class="st5" d="M33,73.3c0-0.7,0.6-1.3,1.3-1.3l51.8,0c0.7,0,1.3,0.6,1.3,1.3v8c0,0.7-0.6,1.3-1.3,1.3l-51.8,0
				c-0.7,0-1.3-0.6-1.3-1.3V73.3z"/>
			<path class="st2" d="M54,76.3c0-0.7,0.6-1.3,1.3-1.3l9.8,0c0.7,0,1.3,0.6,1.3,1.3v2.2c0,0.7-0.6,1.3-1.3,1.3l-9.8,0
				c-0.7,0-1.3-0.6-1.3-1.3V76.3z"/>
			<path class="st6" d="M91,73.3c0-0.7,0.6-1.3,1.3-1.3l51.8,0c0.7,0,1.3,0.6,1.3,1.3v8c0,0.7-0.6,1.3-1.3,1.3l-51.8,0
				c-0.7,0-1.3-0.6-1.3-1.3V73.3z"/>
			<path class="st2" d="M112,76.3c0-0.7,0.6-1.3,1.3-1.3l9.8,0c0.7,0,1.3,0.6,1.3,1.3v2.2c0,0.7-0.6,1.3-1.3,1.3l-9.8,0
				c-0.7,0-1.3-0.6-1.3-1.3V76.3z"/>
		</g>
		<path class="st7" d="M23,121h131"/>
		<path class="st7" d="M23,169h131"/>
		<path class="st5" d="M164.1,120c-0.7,4.1-2.9,7.8-6.1,10.5c-3.2,2.6-7.3,4-11.5,3.9c-4.2-0.1-8.2-1.8-11.2-4.6
			c-3.1-2.8-5-6.7-5.5-10.8c-0.5-4.2,0.6-8.3,3-11.8c2.4-3.4,5.9-5.9,10-6.9c4-1,8.3-0.6,12.1,1.3c3.7,1.9,6.7,5,8.3,8.9
			C164.3,113.4,164.7,116.8,164.1,120z"/>
		<path class="st2" d="M140.1,116.9l6.1,5.3c0.8,0.7,0.9,2,0.2,2.9l0,0c-0.7,0.8-2,0.9-2.9,0.2l-6.1-5.3c-0.8-0.7-0.9-2-0.2-2.9l0,0
			C138,116.3,139.2,116.2,140.1,116.9z"/>
		<path class="st2" d="M157.6,112.2l-11.2,12.9c-0.7,0.8-2,0.9-2.9,0.2l0,0c-0.8-0.7-0.9-2-0.2-2.9l11.2-12.9c0.7-0.8,2-0.9,2.9-0.2
			l0,0C158.2,110.1,158.3,111.4,157.6,112.2z"/>
	</g>
</g>
</svg>
