<?xml version="1.0" encoding="utf-8"?>
<!-- Generator: Adobe Illustrator 25.2.3, SVG Export Plug-In . SVG Version: 6.00 Build 0)  -->
<svg version="1.1" id="Layer_1" xmlns="http://www.w3.org/2000/svg" xmlns:xlink="http://www.w3.org/1999/xlink" x="0px" y="0px"
	 viewBox="0 0 178 200" style="enable-background:new 0 0 178 200;" xml:space="preserve">
<style type="text/css">
	.st0{clip-path:url(#SVGID_2_);fill:url(#SVGID_3_);}
	.st1{clip-path:url(#SVGID_2_);}
	.st2{fill:#FFFFFF;}
	.st3{fill:#03A9F4;}
	.st4{fill:#808185;}
	.st5{fill:#CCCCCC;}
	.st6{fill:#4CAF50;}
	.st7{fill:#FF0000;}
</style>
<g>
	<defs>
		<path id="SVGID_1_" d="M88.5,199.2C39.7,199.2,0,159.5,0,110.6C0-13,39.7,13.5,88.5,13.5c48.9,0,88.5-30,88.5,97.1
			C177.1,159.5,137.4,199.2,88.5,199.2z"/>
	</defs>
	<clipPath id="SVGID_2_">
		<use xlink:href="#SVGID_1_"  style="overflow:visible;"/>
	</clipPath>
	
		<linearGradient id="SVGID_3_" gradientUnits="userSpaceOnUse" x1="88.528" y1="2.784" x2="88.528" y2="180" gradientTransform="matrix(1 0 0 -1 0 202)">
		<stop  offset="0" style="stop-color:#A3E3FF"/>
		<stop  offset="1" style="stop-color:#A3E3FF;stop-opacity:0"/>
	</linearGradient>
	<path class="st0" d="M88.5,199.2C39.7,199.2,0,159.5,0,110.6S39.7,22,88.5,22c48.9,0,88.5,39.7,88.5,88.6S137.4,199.2,88.5,199.2z"
		/>
	<g class="st1">
		<g>
			<path class="st2" d="M151,17.6H28c-2.2,0-4,1.8-4,4v178c0,2.2,1.8,4,4,4h123c2.2,0,4-1.8,4-4v-178C155,19.4,153.2,17.6,151,17.6z
				"/>
		</g>
		<path class="st3" d="M151,17.6H28c-2.2,0-4,1.8-4,4v62h131v-62C155,19.4,153.2,17.6,151,17.6z"/>
		<path class="st2" d="M39,28.3c0-0.7,0.6-1.3,1.3-1.3l68.8,0c0.7,0,1.3,0.6,1.3,1.3v8c0,0.7-0.6,1.3-1.3,1.3l-68.8,0
			c-0.7,0-1.3-0.6-1.3-1.3V28.3z"/>
		<circle class="st2" cx="134" cy="33" r="7"/>
		<path class="st3" d="M133.5,30.4c-0.3-0.3-0.8-0.2-1.1,0.1c-0.3,0.3-0.2,0.8,0.1,1.1L133.5,30.4z M132.5,35.4
			c-0.3,0.3-0.4,0.7-0.1,1.1c0.3,0.3,0.7,0.4,1.1,0.1L132.5,35.4z M136,33.5l0.5,0.6c0.2-0.1,0.3-0.4,0.3-0.6s-0.1-0.4-0.3-0.6
			L136,33.5z M132.5,31.6l3,2.5l1-1.2l-3-2.5L132.5,31.6z M135.5,32.9l-3,2.5l1,1.2l3-2.5L135.5,32.9z"/>
		<g>
			<path class="st2" d="M137,48.6H43c-2.2,0-4,1.8-4,4v143c0,2.2,1.8,4,4,4h94c2.2,0,4-1.8,4-4v-143C141,50.4,139.2,48.6,137,48.6z"
				/>
		</g>
		<path class="st4" d="M51,59.9c0-0.7,0.6-1.3,1.3-1.3h31.5c0.7,0,1.3,0.6,1.3,1.3v2.2c0,0.7-0.6,1.3-1.3,1.3H52.3
			c-0.7,0-1.3-0.6-1.3-1.3V59.9z"/>
		<path class="st5" d="M51,81.9c0-0.7,0.6-1.3,1.3-1.3h44.5c0.7,0,1.3,0.6,1.3,1.3v2.2c0,0.7-0.6,1.3-1.3,1.3H52.3
			c-0.7,0-1.3-0.6-1.3-1.3V81.9z"/>
		<path class="st6" d="M128.4,84.1c-0.2,1.2-0.8,2.2-1.7,2.9c-0.9,0.7-2.1,1.1-3.2,1.1c-1.2,0-2.3-0.5-3.2-1.3
			c-0.9-0.8-1.4-1.9-1.5-3c-0.1-1.2,0.2-2.3,0.8-3.3c0.7-1,1.7-1.7,2.8-2c1.1-0.3,2.3-0.2,3.4,0.4c1,0.5,1.9,1.4,2.3,2.5
			C128.5,82.2,128.6,83.2,128.4,84.1z"/>
		<path class="st2" d="M121.7,83.2l1.7,1.5c0.2,0.2,0.3,0.6,0.1,0.8h0c-0.2,0.2-0.6,0.3-0.8,0.1l-1.7-1.5c-0.2-0.2-0.3-0.6-0.1-0.8
			l0,0C121.1,83,121.4,83,121.7,83.2z"/>
		<path class="st2" d="M126.6,81.9l-3.1,3.6c-0.2,0.2-0.6,0.3-0.8,0.1l0,0c-0.2-0.2-0.3-0.6-0.1-0.8l3.1-3.6
			c0.2-0.2,0.6-0.3,0.8-0.1v0C126.8,81.3,126.8,81.6,126.6,81.9z"/>
		<path class="st5" d="M51,98.9c0-0.7,0.6-1.3,1.3-1.3h54.5c0.7,0,1.3,0.6,1.3,1.3v2.2c0,0.7-0.6,1.3-1.3,1.3H52.3
			c-0.7,0-1.3-0.6-1.3-1.3V98.9z"/>
		<path class="st6" d="M128.4,101.1c-0.2,1.2-0.8,2.2-1.7,2.9c-0.9,0.7-2.1,1.1-3.2,1.1c-1.2,0-2.3-0.5-3.2-1.3
			c-0.9-0.8-1.4-1.9-1.5-3c-0.1-1.2,0.2-2.3,0.8-3.3c0.7-1,1.7-1.7,2.8-2c1.1-0.3,2.3-0.2,3.4,0.4c1,0.5,1.9,1.4,2.3,2.5
			C128.5,99.2,128.6,100.2,128.4,101.1z"/>
		<path class="st2" d="M121.7,100.2l1.7,1.5c0.2,0.2,0.3,0.6,0.1,0.8l0,0c-0.2,0.2-0.6,0.3-0.8,0.1l-1.7-1.5
			c-0.2-0.2-0.3-0.6-0.1-0.8v0C121.1,100,121.4,100,121.7,100.2z"/>
		<path class="st2" d="M126.6,98.9l-3.1,3.6c-0.2,0.2-0.6,0.3-0.8,0.1l0,0c-0.2-0.2-0.3-0.6-0.1-0.8l3.1-3.6
			c0.2-0.2,0.6-0.3,0.8-0.1l0,0C126.8,98.3,126.8,98.6,126.6,98.9z"/>
		<path class="st5" d="M51,115.9c0-0.7,0.6-1.3,1.3-1.3h48.5c0.7,0,1.3,0.6,1.3,1.3v2.2c0,0.7-0.6,1.3-1.3,1.3H52.3
			c-0.7,0-1.3-0.6-1.3-1.3V115.9z"/>
		<path class="st6" d="M128.4,118.1c-0.2,1.2-0.8,2.2-1.7,2.9c-0.9,0.7-2.1,1.1-3.2,1.1c-1.2,0-2.3-0.5-3.2-1.3
			c-0.9-0.8-1.4-1.9-1.5-3c-0.1-1.2,0.2-2.3,0.8-3.3c0.7-1,1.7-1.7,2.8-1.9c1.1-0.3,2.3-0.2,3.4,0.4c1,0.5,1.9,1.4,2.3,2.5
			C128.5,116.2,128.6,117.2,128.4,118.1z"/>
		<path class="st2" d="M121.7,117.2l1.7,1.5c0.2,0.2,0.3,0.6,0.1,0.8h0c-0.2,0.2-0.6,0.3-0.8,0.1l-1.7-1.5c-0.2-0.2-0.3-0.6-0.1-0.8
			l0,0C121.1,117,121.4,117,121.7,117.2z"/>
		<path class="st2" d="M126.6,115.9l-3.1,3.6c-0.2,0.2-0.6,0.3-0.8,0.1h0c-0.2-0.2-0.3-0.6-0.1-0.8l3.1-3.6c0.2-0.2,0.6-0.3,0.8-0.1
			v0C126.8,115.3,126.8,115.6,126.6,115.9z"/>
		<path class="st5" d="M51,133.3c0-0.7,0.6-1.3,1.3-1.3h51.5c0.7,0,1.3,0.6,1.3,1.3v2.2c0,0.7-0.6,1.3-1.3,1.3H52.3
			c-0.7,0-1.3-0.6-1.3-1.3V133.3z"/>
		<path class="st6" d="M128.4,135.5c-0.2,1.2-0.8,2.2-1.7,2.9c-0.9,0.7-2.1,1.1-3.2,1.1c-1.2,0-2.3-0.5-3.2-1.3
			c-0.9-0.8-1.4-1.9-1.5-3c-0.1-1.2,0.2-2.3,0.8-3.3s1.7-1.7,2.8-2c1.1-0.3,2.3-0.2,3.4,0.4c1,0.5,1.9,1.4,2.3,2.5
			C128.5,133.6,128.6,134.6,128.4,135.5z"/>
		<path class="st2" d="M121.7,134.6l1.7,1.5c0.2,0.2,0.3,0.6,0.1,0.8l0,0c-0.2,0.2-0.6,0.3-0.8,0.1l-1.7-1.5
			c-0.2-0.2-0.3-0.6-0.1-0.8l0,0C121.1,134.4,121.4,134.4,121.7,134.6z"/>
		<path class="st2" d="M126.6,133.3l-3.1,3.6c-0.2,0.2-0.6,0.3-0.8,0.1l0,0c-0.2-0.2-0.3-0.6-0.1-0.8l3.1-3.6
			c0.2-0.2,0.6-0.3,0.8-0.1l0,0C126.8,132.7,126.8,133,126.6,133.3z"/>
		<path class="st5" d="M51,150.3c0-0.7,0.6-1.3,1.3-1.3h27.5c0.7,0,1.3,0.6,1.3,1.3v2.2c0,0.7-0.6,1.3-1.3,1.3H52.3
			c-0.7,0-1.3-0.6-1.3-1.3V150.3z"/>
		<path class="st7" d="M128.4,152.5c-0.2,1.2-0.8,2.2-1.7,2.9c-0.9,0.7-2.1,1.1-3.2,1.1c-1.2,0-2.3-0.5-3.2-1.3
			c-0.9-0.8-1.4-1.9-1.5-3c-0.1-1.2,0.2-2.3,0.8-3.3s1.7-1.7,2.8-2c1.1-0.3,2.3-0.2,3.4,0.4c1,0.5,1.9,1.4,2.3,2.5
			C128.5,150.6,128.6,151.6,128.4,152.5z"/>
		<path class="st2" d="M125.6,150.2l-3.2,3.7c-0.2,0.2-0.6,0.3-0.8,0.1l0,0c-0.2-0.2-0.3-0.6-0.1-0.8l3.2-3.7
			c0.2-0.2,0.6-0.3,0.8-0.1l0,0C125.8,149.6,125.8,150,125.6,150.2z"/>
		<path class="st2" d="M121.5,150.2l3.2,3.7c0.2,0.2,0.6,0.3,0.8,0.1l0,0c0.2-0.2,0.3-0.6,0.1-0.8l-3.2-3.7
			c-0.2-0.2-0.6-0.3-0.8-0.1l0,0C121.3,149.6,121.3,150,121.5,150.2z"/>
		<path class="st5" d="M51,167.3c0-0.7,0.6-1.3,1.3-1.3h42.5c0.7,0,1.3,0.6,1.3,1.3v2.2c0,0.7-0.6,1.3-1.3,1.3H52.3
			c-0.7,0-1.3-0.6-1.3-1.3V167.3z"/>
		<path class="st6" d="M128.4,169.5c-0.2,1.2-0.8,2.2-1.7,2.9c-0.9,0.7-2.1,1.1-3.2,1.1c-1.2,0-2.3-0.5-3.2-1.3
			c-0.9-0.8-1.4-1.9-1.5-3c-0.1-1.2,0.2-2.3,0.8-3.3s1.7-1.7,2.8-2c1.1-0.3,2.3-0.2,3.4,0.4c1,0.5,1.9,1.4,2.3,2.5
			C128.5,167.6,128.6,168.6,128.4,169.5z"/>
		<path class="st2" d="M121.7,168.6l1.7,1.5c0.2,0.2,0.3,0.6,0.1,0.8l0,0c-0.2,0.2-0.6,0.3-0.8,0.1l-1.7-1.5
			c-0.2-0.2-0.3-0.6-0.1-0.8l0,0C121.1,168.4,121.4,168.4,121.7,168.6z"/>
		<path class="st2" d="M126.6,167.3l-3.1,3.6c-0.2,0.2-0.6,0.3-0.8,0.1l0,0c-0.2-0.2-0.3-0.6-0.1-0.8l3.1-3.6
			c0.2-0.2,0.6-0.3,0.8-0.1h0C126.8,166.7,126.8,167,126.6,167.3z"/>
	</g>
</g>
</svg>
