<?xml version="1.0" encoding="utf-8"?>
<!-- Generator: Adobe Illustrator 23.0.2, SVG Export Plug-In . SVG Version: 6.00 Build 0)  -->
<svg version="1.1" id="Layer_1" xmlns="http://www.w3.org/2000/svg" xmlns:xlink="http://www.w3.org/1999/xlink" x="0px" y="0px"
	 viewBox="0 0 61.1 50" style="enable-background:new 0 0 61.1 50;" xml:space="preserve">
<style type="text/css">
	.st0{fill:#4EC2F5;}
	.st1{opacity:0.75;fill:#FFFFFF;enable-background:new    ;}
	.st2{opacity:0.75;fill:none;stroke:#FFFFFF;stroke-width:2;enable-background:new    ;}
	.st3{fill:#FFFFFF;}
	.st4{fill:none;stroke:#21AAE6;}
	.st5{fill:none;stroke:#21AAE6;stroke-width:1.5;}
	.st6{fill:none;stroke:#4EC2F5;}
</style>
<g id="Group_1239" transform="translate(-467 -1023)">
	<g id="Group_1231">
		<g id="Group_1226" transform="translate(467 1023)">
			<rect id="Rectangle_770" y="1.9" class="st0" width="61.1" height="48.1"/>
			<rect id="Rectangle_771" x="5.1" y="15.9" class="st1" width="5.1" height="5.1"/>
			<rect id="Rectangle_772" x="14.5" y="15.9" class="st1" width="5.1" height="5.1"/>
			<rect id="Rectangle_773" x="22.8" y="15.9" class="st1" width="5.1" height="5.1"/>
			<rect id="Rectangle_774" x="31.1" y="15.9" class="st1" width="5.1" height="5.1"/>
			<rect id="Rectangle_775" x="39.5" y="15.9" class="st1" width="5.1" height="5.1"/>
			<rect id="Rectangle_776" x="49.3" y="15.9" class="st1" width="5.1" height="5.1"/>
			<rect id="Rectangle_777" x="5.1" y="24.2" class="st1" width="5.1" height="5.1"/>
			<rect id="Rectangle_778" x="14.5" y="24.2" class="st1" width="5.1" height="5.1"/>
			<rect id="Rectangle_779" x="22.8" y="24.2" class="st1" width="5.1" height="5.1"/>
			<rect id="Rectangle_780" x="31.1" y="24.2" class="st1" width="5.1" height="5.1"/>
			<rect id="Rectangle_782" x="49.3" y="24.2" class="st1" width="5.1" height="5.1"/>
			<rect id="Rectangle_783" x="5.1" y="32.6" class="st1" width="5.1" height="5.1"/>
			<rect id="Rectangle_784" x="14.5" y="32.6" class="st1" width="5.1" height="5.1"/>
			<rect id="Rectangle_785" x="22.8" y="32.6" class="st1" width="5.1" height="5.1"/>
			<rect id="Rectangle_786" x="31.1" y="32.6" class="st1" width="5.1" height="5.1"/>
			<rect id="Rectangle_787" x="39.5" y="32.6" class="st1" width="5.1" height="5.1"/>
			<rect id="Rectangle_788" x="49.3" y="32.6" class="st1" width="5.1" height="5.1"/>
			<rect id="Rectangle_789" x="5.1" y="41.7" class="st1" width="5.1" height="5.1"/>
			<rect id="Rectangle_790" x="14.5" y="41.7" class="st1" width="5.1" height="5.1"/>
			<line id="Line_50" class="st2" x1="4.6" y1="7.4" x2="24.9" y2="7.4"/>
			<g id="Rectangle_781" transform="translate(35.907 18.939)">
				<rect x="0" y="0" class="st3" width="15.1" height="15.1"/>
				<rect x="0.5" y="0.5" class="st4" width="14.1" height="14.1"/>
			</g>
			<path id="Path_1495" class="st5" d="M39.1,26.3l2.7,2.7l5.3-5.3"/>
			<line id="Line_55" class="st6" x1="6.3" y1="1.9" x2="6.3" y2="0"/>
			<line id="Line_56" class="st6" x1="12.4" y1="1.9" x2="12.4" y2="0"/>
			<line id="Line_57" class="st6" x1="17.1" y1="1.9" x2="17.1" y2="0"/>
			<line id="Line_58" class="st6" x1="21.8" y1="1.9" x2="21.8" y2="0"/>
			<line id="Line_59" class="st6" x1="26.5" y1="1.9" x2="26.5" y2="0"/>
			<line id="Line_60" class="st6" x1="31.2" y1="1.9" x2="31.2" y2="0"/>
			<line id="Line_61" class="st6" x1="35.9" y1="1.9" x2="35.9" y2="0"/>
			<line id="Line_62" class="st6" x1="40.6" y1="1.9" x2="40.6" y2="0"/>
			<line id="Line_63" class="st6" x1="45.3" y1="1.9" x2="45.3" y2="0"/>
			<line id="Line_64" class="st6" x1="51.9" y1="1.9" x2="51.9" y2="0"/>
			<line id="Line_65" class="st6" x1="55.8" y1="1.9" x2="55.8" y2="0"/>
		</g>
	</g>
</g>
</svg>
