<?xml version="1.0" encoding="utf-8"?>
<!-- Generator: Adobe Illustrator 23.0.2, SVG Export Plug-In . SVG Version: 6.00 Build 0)  -->
<svg version="1.1" id="Layer_1" xmlns="http://www.w3.org/2000/svg" xmlns:xlink="http://www.w3.org/1999/xlink" x="0px" y="0px"
	 viewBox="0 0 28.6 50" style="enable-background:new 0 0 28.6 50;" xml:space="preserve">
<style type="text/css">
	.st0{fill:#4EC2F5;}
	.st1{fill:#32B8F3;}
	.st2{fill:#28AEE9;}
</style>
<g id="Group_1243" transform="translate(-791 -1307)">
	<g id="Group_1228">
		<g id="Group_1183" transform="translate(791 1307)">
			<g id="Group_1181">
				<path id="Path_300" class="st0" d="M0.6,34.2C0.2,33.1-1.2,21,2.5,15.1c0.8-1.2,2-2.1,5.2-1.4s4.7,2.2,7.3,2.3s4.6-1.6,6.9-2.1
					s3.3-0.2,4.8,1.2s1.8,19,1.8,19h-5.2l0.1-12.3h-0.9v15l-8,13l-7.8-13c0,0,0.2-11.3,0-15s-0.6-3.1-0.8,0s0.4,11.5,0,12.4
					S1,35.4,0.6,34.2z"/>
				<path id="Path_302" class="st1" d="M14.7,37.9V50l7.5-12.5L14.7,37.9z"/>
				<ellipse id="Ellipse_104" class="st0" cx="15.3" cy="6.7" rx="6.9" ry="6.7"/>
				<path id="Path_1338" class="st2" d="M15.3,16.8c2.5,0.1,4.6-1.5,6.8-2s3.2-0.2,4.7,1.1s1.7,17.3,1.7,17.3h-5V22.4h-0.9v14.4
					L15,37.2C15,37.2,15.4,19.2,15.3,16.8z"/>
			</g>
		</g>
	</g>
</g>
</svg>
