<?xml version="1.0" encoding="utf-8"?>
<!-- Generator: Adobe Illustrator 23.0.2, SVG Export Plug-In . SVG Version: 6.00 Build 0)  -->
<svg version="1.1" id="Layer_1" xmlns="http://www.w3.org/2000/svg" xmlns:xlink="http://www.w3.org/1999/xlink" x="0px" y="0px"
	 viewBox="0 0 57.6 62.2" style="enable-background:new 0 0 57.6 62.2;" xml:space="preserve">
<style type="text/css">
	.st0{fill:#4ABEF1;}
	.st1{fill:#21AAE6;}
</style>
<g>
	<path id="Path_1460" class="st0" d="M19.2,0v23.7H4.3l24.6,24.8l23.3-24.8H37.4V0H19.2z"/>
	<path id="Path_1461" class="st1" d="M28.9,6.8v41.6l23.3-24.8H37.4V0L28.9,6.8z"/>
	<path id="Rectangle_695" class="st0" d="M2.9,56.4h51.8c1.6,0,2.9,1.3,2.9,2.9v0c0,1.6-1.3,2.9-2.9,2.9H2.9c-1.6,0-2.9-1.3-2.9-2.9
		v0C0,57.7,1.3,56.4,2.9,56.4z"/>
	<path id="Path_1468" class="st1" d="M57.6,59.3c0,1.6-1.3,2.9-2.9,2.9c0,0,0,0,0,0H2.9c-1.6,0-2.9-1.3-2.9-2.9c0,0,0,0,0,0H57.6z"
		/>
</g>
</svg>
