<?xml version="1.0" encoding="utf-8"?>
<!-- Generator: Adobe Illustrator 23.0.2, SVG Export Plug-In . SVG Version: 6.00 Build 0)  -->
<svg version="1.1" id="Layer_1" xmlns="http://www.w3.org/2000/svg" xmlns:xlink="http://www.w3.org/1999/xlink" x="0px" y="0px"
	 viewBox="0 0 33.6 53.9" style="enable-background:new 0 0 33.6 53.9;" xml:space="preserve">
<style type="text/css">
	.st0{fill:#4EC2F5;}
	.st1{fill:#32B8F3;}
</style>
<g id="Group_1235" transform="translate(-1417 -756)">
	<g id="Group_1222" transform="translate(1417 756)">
		<path id="Path_1493" class="st0" d="M33.6,16.3c0-9-8-16.3-18-16.3C9.3-0.1,3.4,3,0,8.3l5.9,3.5c2-3.4,5.7-5.4,9.7-5.4
			c6,0,10.9,4.4,10.9,9.9s-4.9,9.9-10.9,9.9c-1.3,0-3.7,0-3.7,0v14.1h7.2v-7.9C27.4,30.9,33.6,24.3,33.6,16.3z"/>
		<ellipse id="Ellipse_325" class="st1" cx="15.5" cy="49.4" rx="4.6" ry="4.6"/>
		<path id="Path_1494" class="st1" d="M0,8.3l4.6-0.1c0,0,7.4-7.7,17.3-3.4s9.2,12.9,7.9,15.7c-1.2,2.5-4.2,9.6-14.1,9.6l0,6.1
			l-3.6,4.1V26.2c0,0,8.9,1.3,12.9-4.4c3-4.2,2.1-10.1-2.1-13.1c-0.4-0.3-0.9-0.6-1.3-0.8c-3.8-2-11-3.1-15.5,3.9L0,8.3z"/>
	</g>
</g>
</svg>
