<?xml version="1.0" encoding="utf-8"?>
<!-- Generator: Adobe Illustrator 25.2.3, SVG Export Plug-In . SVG Version: 6.00 Build 0)  -->
<svg version="1.1" id="Layer_1" xmlns="http://www.w3.org/2000/svg" xmlns:xlink="http://www.w3.org/1999/xlink" x="0px" y="0px"
	 viewBox="0 0 276.5 106.1" style="enable-background:new 0 0 276.5 106.1;" xml:space="preserve">
<style type="text/css">
	.st0{fill:#288CC1;}
	.st1{fill:#DA2B2E;}
	.st2{fill:#F3B21D;}
	.st3{fill:#78B829;}
	.st4{fill:#0B7ABF;}
	.st5{fill:#E62552;}
	.st6{fill:#FFFFFF;}
	.st7{fill:#306FB6;}
	.st8{fill-rule:evenodd;clip-rule:evenodd;fill:#55AF31;}
	.st9{fill:#48AA48;}
	.st10{clip-path:url(#SVGID_2_);fill:#1AB4D7;}
	.st11{clip-path:url(#SVGID_4_);fill:#FFFFFF;}
	.st12{clip-path:url(#SVGID_6_);fill:#FFFFFF;}
	.st13{clip-path:url(#SVGID_8_);fill:#FFFFFF;}
	.st14{clip-path:url(#SVGID_10_);fill:#FFFFFF;}
	.st15{clip-path:url(#SVGID_12_);fill:#FFFFFF;}
</style>
<g>
	<g>
		<path class="st0" d="M81.9,80.4H67.6c-2,0-3.6,1.6-3.6,3.6v18.5c0,2,1.6,3.6,3.6,3.6h14.2c2,0,3.6-1.6,3.6-3.6V84
			C85.5,82,83.8,80.4,81.9,80.4z M83.4,102.1c0,1-0.8,1.8-1.8,1.8H67.9c-1,0-1.8-0.8-1.8-1.8V84.4c0-1,0.8-1.8,1.8-1.8h13.8
			c1,0,1.8,0.8,1.8,1.8v17.7C83.5,102.1,83.4,102.1,83.4,102.1z"/>
		<path class="st1" d="M54.2,88.9c-1,0-1.8-0.8-1.8-1.8V69.4c0-1,0.8-1.8,1.8-1.8H68c1,0,1.8,0.8,1.8,1.8v2h2V69
			c0-2-1.6-3.6-3.6-3.6H54c-2,0-3.6,1.6-3.6,3.6v18.5c0,2,1.6,3.6,3.6,3.6h1.5v-2.2H54.2z"/>
		<path class="st2" d="M61.3,96.5c-1,0-1.8-0.8-1.8-1.8V77c0-1,0.8-1.8,1.8-1.8h13.8c1,0,1.8,0.8,1.8,1.8v1.7h2v-2.1
			c0-2-1.6-3.6-3.6-3.6H61c-2,0-3.6,1.6-3.6,3.6v18.5c0,2,1.6,3.6,3.6,3.6h1.1v-2.2H61.3z"/>
	</g>
	<g>
		<polygon class="st3" points="152.8,77 149.7,85.5 152.7,93 146.9,93 144.7,98.9 155,98.9 157,103.9 163.5,103.9 		"/>
		<path class="st4" d="M155.7,67.8c-5.9-1.2-8.8,2-9.8,4.6c-0.2,0.5-0.4,1.2-1.8,4.8c-1.1-12.1-12.6-0.7-18.3-7.1
			c-0.9,5.5,1.1,6.1,1.1,6.1c-0.4,1.8,1.3,3.7,2.7,3.5c1.3,5.9,13.7-2.6,10.8,7.1c-2.8,7.3-6.5,17.1-6.5,17.1h7
			c0,0,9.7-26.1,10.3-27.3c0.8-1.6,3.2-2.2,5.1-0.9l2.5-6.9C157.5,68.2,156.5,68,155.7,67.8z M141.2,80.2c-2.2-3.2-7.9,1.3-9.1-2.3
			c-1.4,0.3-1.9-1.3-1.6-1.9c0,0-1.2-0.2-1.1-1.9C133.8,77,142.1,69.8,141.2,80.2z"/>
	</g>
	<g>
		<path class="st5" d="M223.4,85l15.3-2.2l-9.9-14.7l-1.5,4.8c-13.4-8.4-22.4-0.2-22.4-0.2c-8.3,6.9-4.4,17.9-4.4,17.9
			c1.4-26.4,24.7-10.3,24.7-10.3C224.7,82.2,223.4,85,223.4,85z"/>
		<path class="st5" d="M218.9,86.6l-15.3,2.2l9.8,14.7l1.5-4.8c13.4,8.4,22.4,0.2,22.4,0.2c8.3-6.9,4.4-17.9,4.4-17.9
			c-1.4,26.4-24.7,10.3-24.7,10.3C217.7,89.3,218.9,86.5,218.9,86.6z"/>
	</g>
</g>
<g>
	<path class="st6" d="M168.7,8.9H190v31.7h-21.3V8.9z"/>
	<path class="st7" d="M173.9,4.5c-9.6,0-17.3,7.7-17.3,17.3v23.7h23.7c9.6,0,17.3-7.7,17.3-17.3V4.5H173.9z M187.9,11.7
		c0,3.2-2.6,5.6-5.6,5.6h-6.1v4.9h8.2v5.6h-8.1v11.8h-6.7V10.2h6.6v5.3c0.2-2.9,2.7-5.3,5.6-5.3h6.1V11.7z"/>
</g>
<g id="Symbols">
	<g id="logo_x2F_sage">
		<g id="logo-sage">
			<path id="Fill-6" class="st8" d="M266.5,23.5c0-2.4,1.8-3.6,3.7-3.6s3.7,1.2,3.7,3.6H266.5z M269.9,17.4c-4,0-6.5,2.8-6.5,7.3
				c0,5.6,4,7.2,6.8,7.2c3.6,0,5.6-2.4,5.6-2.4l-1.8-1.8c-1,0.9-2.1,1.4-3.8,1.4c-2.2,0-3.7-1.3-3.7-3.1h9.8
				C276.4,25.9,278.1,17.4,269.9,17.4L269.9,17.4z"/>
			<path id="Fill-7" class="st8" d="M234.3,23.2c-1.2-0.2-4.8,0-4.8-1.7c0-1,1.5-1.5,2.9-1.5c2.2,0,3.6,0.9,4.1,1.2l1.8-1.9
				c-0.5-0.5-2.6-1.9-5.9-1.9c-3,0-5.7,1.6-5.7,4.3c0,4,4.7,4,6.7,4.2c1.2,0.1,2.3,0.2,2.3,1.4c0,1.1-1.7,1.8-2.9,1.8
				c-2.1,0-3.4-0.7-4.6-1.9l-2,2.1c1.8,1.8,4.1,2.6,6.4,2.6c3.5,0,6.1-1.6,6.1-4.8C238.5,24.9,237.1,23.6,234.3,23.2"/>
			<path id="Fill-8" class="st8" d="M247.5,26.5c0,2.7-1.9,2.5-3.5,2.5c-1.7,0-2.7-0.5-2.7-1.7c0-1.1,0.9-1.5,2.7-1.5h3.6v0.7H247.5
				z M244.4,17.4c-3.1,0-5.1,1.6-5.4,1.9l1.9,1.9c0.4-0.3,1.6-1.2,3.6-1.2c2.4,0,3.1,1,3.1,2.1v1.4h-4.2c-1.6,0-4.6,0.4-4.6,3.9
				c0,2.6,1.4,4.5,4.9,4.5c1.7,0,3-0.6,3.9-1.7v1.4h3v-9.3C250.5,19,248.6,17.4,244.4,17.4L244.4,17.4z"/>
			<path id="Fill-9" class="st8" d="M260,24.4c0,1,0,1.8-0.1,2.2c-0.2,0.9-1.2,2-3,2c-0.5,0-2.8-0.3-3.1-2.3c0-0.4-0.1-0.9-0.1-2
				c0-1.6,0.1-2.1,0.1-2.5c0.2-0.8,1.2-1.9,3-1.9c2.2,0,3,1.5,3.1,2.1C260,22.5,260,23.3,260,24.4L260,24.4z M260,17.7v1.5
				c-1.1-1.2-2.3-1.8-4.1-1.8c-3,0-4.5,1.6-5,3.3c-0.2,0.6-0.3,1.9-0.3,3.7c0,1.7,0,3.2,0.6,4.5c0.9,1.7,2.9,2.6,4.6,2.6
				c1.7,0,3.1-0.6,4.1-1.7v0.8c0,1-0.4,1.7-1,2.2s-1.5,0.8-2.6,0.8c-1,0-2-0.5-2.6-0.9l-2.1,2c1.4,1.1,3,1.8,4.7,1.8
				c1.9,0,3.4-0.5,4.7-1.5c1.2-1,2-2.8,2-4.7V17.7H260z"/>
		</g>
	</g>
</g>
<g>
	<path class="st9" d="M103.2,0.8C90,0.7,78.9,11.4,78.9,24.8c0,13,10.5,24.1,24.2,24.1c13.4-0.1,23.9-11.1,23.9-24.2
		C127.1,11.7,116.4,1,103.2,0.8z M101.9,27.1c0,3.7,0,7.5,0,11.2c0,0.7,0,0.7-0.7,0.7s-1.4,0-2,0c-0.4,0-0.5-0.1-0.5-0.5
		c0-1.2,0-2.4,0-3.7c0-5.2,0-10.4,0-15.6c0-0.7,0-0.7-0.7-0.7c-1.3,0-2.5-0.1-3.8,0.2c-2.9,0.7-4.9,3.2-4.8,6.3
		c0.1,2.9,2.3,5.3,5,5.8c0.5,0.1,1.1,0.1,1.7,0.1c0.4,0,0.4,0.1,0.4,0.4c0,0.8,0,1.7,0,2.5c0,0.4-0.1,0.4-0.5,0.5
		c-3.9,0.1-7.6-2.1-9.2-5.7c-1.7-3.7-0.8-7.8,1.9-10.6c1.9-1.9,4.3-2.9,6.9-2.9c1.9,0,3.8,0,5.7,0c0.5,0,0.6,0.1,0.6,0.6
		C101.9,19.6,101.9,23.4,101.9,27.1z M111.8,34.4c-0.8,0.1-1.7,0.1-2.6,0.1c-1.6,0-3,0-4.5,0c-0.5,0-0.7-0.1-0.6-0.6l0,0
		c0-3.8,0-7.5,0-11.3c0-3.7,0-7.5,0-11.2c0-0.5,0.1-0.7,0.7-0.7c0.7,0,1.4,0,2,0c0.5,0,0.6,0.1,0.6,0.6c0,6.3,0,12.6,0,19
		c0,1-0.1,0.8,0.8,0.8c1.2,0,2.4,0.1,3.6-0.1c2.9-0.7,5-3.3,4.9-6.3c-0.1-3.1-2.4-5.5-5.3-6c-0.5-0.1-0.8-0.1-1.3-0.1
		c-0.4,0-0.5-0.1-0.5-0.5c0-0.8,0-1.7,0-2.5c0-0.2,0.1-0.4,0.4-0.4c5-0.1,9.2,3.3,9.9,8.1C120.7,28.8,117.1,33.4,111.8,34.4z"/>
</g>
<g>
	<g>
		<g>
			<defs>
				<polygon id="SVGID_1_" points="-10.1,-10.4 60.5,-11.4 60.5,59.2 -10.1,59.2 				"/>
			</defs>
			<clipPath id="SVGID_2_">
				<use xlink:href="#SVGID_1_"  style="overflow:visible;"/>
			</clipPath>
			<path id="path20" class="st10" d="M25.1,49.3c13.5,0,24.4-10.9,24.4-24.4S38.6,0.5,25.1,0.5S0.7,11.5,0.7,24.9
				C0.7,38.4,11.7,49.3,25.1,49.3"/>
		</g>
	</g>
	<g>
		<g>
			<defs>
				<polygon id="SVGID_3_" points="-10.1,-10.4 60.5,-11.4 60.5,59.2 -10.1,59.2 				"/>
			</defs>
			<clipPath id="SVGID_4_">
				<use xlink:href="#SVGID_3_"  style="overflow:visible;"/>
			</clipPath>
			<path id="path22" class="st11" d="M12.4,24.9l4.2-4.2c0.1-0.1,0.2-0.3,0.2-0.5c0-0.4-0.3-0.7-0.7-0.7c-0.2,0-0.4,0.1-0.5,0.2
				l-4.2,4.2l-4.2-4.3c-0.1-0.1-0.3-0.2-0.5-0.2c-0.4,0-0.7,0.3-0.7,0.7c0,0.2,0.1,0.4,0.2,0.5l4.2,4.2L6.2,29
				C6.1,29.1,6,29.3,6,29.5c0,0.4,0.3,0.7,0.7,0.7c0.2,0,0.4-0.1,0.5-0.2l4.2-4.2l4.2,4.2c0.1,0.2,0.3,0.2,0.5,0.2
				c0.4,0,0.7-0.3,0.7-0.7c0-0.2-0.1-0.4-0.2-0.5L12.4,24.9z"/>
		</g>
	</g>
	<g>
		<g>
			<defs>
				<polygon id="SVGID_5_" points="-10.1,-10.4 60.5,-11.4 60.5,59.2 -10.1,59.2 				"/>
			</defs>
			<clipPath id="SVGID_6_">
				<use xlink:href="#SVGID_5_"  style="overflow:visible;"/>
			</clipPath>
			<path id="path24" class="st12" d="M37.2,24.9c0,0.7,0.6,1.4,1.4,1.4c0.7,0,1.4-0.6,1.4-1.4c0-0.7-0.6-1.4-1.4-1.4
				S37.2,24.1,37.2,24.9"/>
		</g>
	</g>
	<g>
		<g>
			<defs>
				<polygon id="SVGID_7_" points="-10.1,-10.4 60.5,-11.4 60.5,59.2 -10.1,59.2 				"/>
			</defs>
			<clipPath id="SVGID_8_">
				<use xlink:href="#SVGID_7_"  style="overflow:visible;"/>
			</clipPath>
			<path id="path26" class="st13" d="M34.6,24.9c0-2.2,1.8-3.9,3.9-3.9c2.2,0,3.9,1.8,3.9,3.9c0,2.2-1.8,3.9-3.9,3.9
				S34.6,27,34.6,24.9 M33.1,24.9c0,3,2.5,5.5,5.5,5.5s5.5-2.5,5.5-5.5s-2.5-5.5-5.5-5.5C35.5,19.4,33.1,21.8,33.1,24.9"/>
		</g>
	</g>
	<g>
		<g>
			<defs>
				<polygon id="SVGID_9_" points="-10.1,-10.4 60.5,-11.4 60.5,59.2 -10.1,59.2 				"/>
			</defs>
			<clipPath id="SVGID_10_">
				<use xlink:href="#SVGID_9_"  style="overflow:visible;"/>
			</clipPath>
			<path id="path28" class="st14" d="M32.7,19.5h-0.2c-0.7,0-1.4,0.2-1.9,0.6c-0.1-0.3-0.4-0.6-0.7-0.6c-0.4,0-0.7,0.3-0.7,0.7v9.2
				c0,0.4,0.3,0.7,0.7,0.7s0.7-0.3,0.7-0.7v-5.7c0-1.9,0.2-2.7,1.8-2.9c0.1,0,0.3,0,0.3,0c0.4,0,0.8-0.3,0.8-0.7
				C33.4,19.8,33.1,19.5,32.7,19.5"/>
		</g>
	</g>
	<g>
		<g>
			<defs>
				<polygon id="SVGID_11_" points="-10.1,-10.4 60.5,-11.4 60.5,59.2 -10.1,59.2 				"/>
			</defs>
			<clipPath id="SVGID_12_">
				<use xlink:href="#SVGID_11_"  style="overflow:visible;"/>
			</clipPath>
			<path id="path30" class="st15" d="M18.3,24C18.3,23.9,18.3,23.9,18.3,24c0.4-1.8,2-3,3.8-3c1.9,0,3.4,1.3,3.8,3H18.3z M27.5,23.8
				c-0.3-1.5-1.2-2.8-2.4-3.6c-1.9-1.2-4.3-1.1-6.1,0.2c-1.5,1-2.3,2.7-2.3,4.5c0,0.4,0.1,0.9,0.2,1.3c0.6,2.2,2.4,3.8,4.6,4.1
				c0.7,0.1,1.3,0,2-0.1c0.6-0.1,1.1-0.4,1.6-0.7s1-0.8,1.4-1.3l0,0c0.3-0.4,0.2-0.9-0.1-1.1c-0.3-0.2-0.7-0.3-1.1,0.2
				c-0.1,0.1-0.2,0.2-0.3,0.3c-0.3,0.3-0.6,0.6-1.1,0.9S22.7,29,22.1,29c-2.2,0-3.3-1.5-3.7-2.6c-0.1-0.2-0.1-0.4-0.2-0.6v-0.1
				c0.4,0,7.8,0,7.8,0C27.1,25.4,27.7,24.7,27.5,23.8"/>
		</g>
	</g>
</g>
</svg>
