<?xml version="1.0" encoding="utf-8"?>
<!-- Generator: Adobe Illustrator 25.2.3, SVG Export Plug-In . SVG Version: 6.00 Build 0)  -->
<svg version="1.1" id="Layer_1" xmlns="http://www.w3.org/2000/svg" xmlns:xlink="http://www.w3.org/1999/xlink" x="0px" y="0px"
	 viewBox="0 0 503.6 51" style="enable-background:new 0 0 503.6 51;" xml:space="preserve">
<style type="text/css">
	.st0{fill:#FFFFFF;}
	.st1{fill:#306FB6;}
	.st2{fill-rule:evenodd;clip-rule:evenodd;fill:#55AF31;}
	.st3{fill:#288CC1;}
	.st4{fill:#DA2B2E;}
	.st5{fill:#F3B21D;}
	.st6{fill:#78B829;}
	.st7{fill:#0B7ABF;}
	.st8{fill:#E62552;}
	.st9{fill:#48AA48;}
	.st10{clip-path:url(#SVGID_2_);fill:#1AB4D7;}
	.st11{clip-path:url(#SVGID_4_);fill:#FFFFFF;}
	.st12{clip-path:url(#SVGID_6_);fill:#FFFFFF;}
	.st13{clip-path:url(#SVGID_8_);fill:#FFFFFF;}
	.st14{clip-path:url(#SVGID_10_);fill:#FFFFFF;}
	.st15{clip-path:url(#SVGID_12_);fill:#FFFFFF;}
</style>
<g>
	<path class="st0" d="M177,8.9h21.3v31.8H177V8.9z"/>
	<path class="st1" d="M182.2,4.5c-9.6,0-17.3,7.7-17.3,17.3v23.7h23.7c9.6,0,17.3-7.7,17.3-17.3V4.5H182.2z M196.2,11.8
		c0,3.2-2.6,5.6-5.6,5.6h-6.1v4.9h8.2v5.6h-8.1v11.8h-6.7V10.3h6.6v5.3c0.2-2.9,2.7-5.3,5.6-5.3h6.1V11.8z"/>
</g>
<g id="Symbols">
	<g id="logo_x2F_sage">
		<g id="logo-sage">
			<path id="Fill-6" class="st2" d="M274.8,23.6c0-2.4,1.8-3.6,3.7-3.6s3.7,1.2,3.7,3.6H274.8z M278.2,17.4c-4,0-6.5,2.8-6.5,7.3
				c0,5.6,4,7.2,6.8,7.2c3.6,0,5.6-2.4,5.6-2.4l-1.8-1.8c-1,0.9-2.1,1.4-3.8,1.4c-2.2,0-3.7-1.3-3.7-3.1h9.8
				C284.7,26,286.4,17.4,278.2,17.4L278.2,17.4z"/>
			<path id="Fill-7" class="st2" d="M242.6,23.3c-1.2-0.2-4.8,0-4.8-1.7c0-1,1.5-1.5,2.9-1.5c2.2,0,3.6,0.9,4.1,1.2l1.8-1.9
				c-0.5-0.5-2.6-1.9-5.9-1.9c-3,0-5.7,1.6-5.7,4.3c0,4,4.7,4,6.7,4.2c1.2,0.1,2.3,0.2,2.3,1.4c0,1.1-1.7,1.8-2.9,1.8
				c-2.1,0-3.4-0.7-4.6-1.9l-2,2.1c1.8,1.8,4.1,2.6,6.4,2.6c3.5,0,6.1-1.6,6.1-4.8C246.8,25,245.4,23.7,242.6,23.3"/>
			<path id="Fill-8" class="st2" d="M255.8,26.6c0,2.7-1.9,2.5-3.5,2.5c-1.7,0-2.7-0.5-2.7-1.7c0-1.1,0.9-1.5,2.7-1.5h3.6v0.7H255.8
				z M252.7,17.4c-3.1,0-5.1,1.6-5.4,1.9l1.9,1.9c0.4-0.3,1.6-1.2,3.6-1.2c2.4,0,3.1,1,3.1,2.1v1.4h-4.2c-1.6,0-4.6,0.4-4.6,3.9
				c0,2.6,1.4,4.5,4.9,4.5c1.7,0,3-0.6,3.9-1.7v1.4h3v-9.3C258.8,19.1,256.9,17.4,252.7,17.4L252.7,17.4z"/>
			<path id="Fill-9" class="st2" d="M268.3,24.5c0,1,0,1.8-0.1,2.2c-0.2,0.9-1.2,2-3,2c-0.5,0-2.8-0.3-3.1-2.3c0-0.4-0.1-0.9-0.1-2
				c0-1.6,0.1-2.1,0.1-2.5c0.2-0.8,1.2-1.9,3-1.9c2.2,0,3,1.5,3.1,2.1C268.3,22.5,268.3,23.4,268.3,24.5L268.3,24.5z M268.3,17.7
				v1.5c-1.1-1.2-2.3-1.8-4.1-1.8c-3,0-4.5,1.6-5,3.3c-0.2,0.6-0.3,1.9-0.3,3.7c0,1.7,0,3.2,0.6,4.5c0.9,1.7,2.9,2.6,4.6,2.6
				s3.1-0.6,4.1-1.7v0.8c0,1-0.4,1.7-1,2.2s-1.5,0.8-2.6,0.8c-1,0-2-0.5-2.6-0.9l-2.1,2c1.4,1.1,3,1.8,4.7,1.8
				c1.9,0,3.4-0.5,4.7-1.5c1.2-1,2-2.8,2-4.7V17.7H268.3z"/>
		</g>
	</g>
</g>
<g>
	<path class="st3" d="M347.6,19.7h-14.2c-2,0-3.6,1.6-3.6,3.6v18.5c0,2,1.6,3.6,3.6,3.6h14.2c2,0,3.6-1.6,3.6-3.6V23.3
		C351.2,21.3,349.6,19.7,347.6,19.7z M349.2,41.4c0,1-0.8,1.8-1.8,1.8h-13.8c-1,0-1.8-0.8-1.8-1.8V23.7c0-1,0.8-1.8,1.8-1.8h13.8
		c1,0,1.8,0.8,1.8,1.8V41.4L349.2,41.4z"/>
	<path class="st4" d="M320,28.1c-1,0-1.8-0.8-1.8-1.8V8.6c0-1,0.8-1.8,1.8-1.8h13.8c1,0,1.8,0.8,1.8,1.8v2h2V8.1
		c0-2-1.6-3.6-3.6-3.6h-14.2c-2,0-3.6,1.6-3.6,3.6v18.5c0,2,1.6,3.6,3.6,3.6h1.5V28H320V28.1z"/>
	<path class="st5" d="M327.1,35.8c-1,0-1.8-0.8-1.8-1.8V16.3c0-1,0.8-1.8,1.8-1.8h13.8c1,0,1.8,0.8,1.8,1.8V18h2v-2.1
		c0-2-1.6-3.6-3.6-3.6h-14.2c-2,0-3.6,1.6-3.6,3.6v18.5c0,2,1.6,3.6,3.6,3.6h1.1v-2.2C328,35.8,327.1,35.8,327.1,35.8z"/>
</g>
<g>
	<polygon class="st6" points="416.1,16.3 413,24.7 416,32.3 410.2,32.3 408.1,38.1 418.3,38.1 420.3,43.2 426.8,43.2 	"/>
	<path class="st7" d="M419,7.1c-5.9-1.1-8.8,2-9.8,4.6c-0.2,0.5-0.5,1.2-1.8,4.8c-1.1-12.1-12.6-0.7-18.3-7.1
		c-0.9,5.5,1.1,6.1,1.1,6.1c-0.4,1.8,1.3,3.7,2.7,3.5c1.3,5.9,13.7-2.6,10.8,7c-2.8,7.3-6.5,17.1-6.5,17.1h7c0,0,9.7-26.1,10.3-27.3
		c0.8-1.6,3.2-2.2,5.1-0.9l2.5-6.9C420.9,7.5,419.8,7.3,419,7.1z M404.6,19.5c-2.2-3.2-7.9,1.3-9.1-2.3c-1.4,0.3-2-1.3-1.6-1.9
		c0,0-1.2-0.2-1.1-1.9C397.1,16.3,405.5,9.1,404.6,19.5z"/>
</g>
<g id="kashflow">
	<g>
		<path class="st8" d="M484.3,24.3l15.3-2.3l-9.9-14.7l-1.5,4.9c-13.4-8.4-22.4-0.2-22.4-0.2c-8.3,6.9-4.4,17.9-4.4,17.9
			c1.4-26.4,24.7-10.3,24.7-10.3C485.6,21.4,484.3,24.2,484.3,24.3z"/>
		<path class="st8" d="M479.8,25.8L464.5,28l9.8,14.7l1.5-4.8c13.4,8.4,22.4,0.2,22.4,0.2c8.3-6.9,4.4-17.9,4.4-17.9
			C501.3,46.6,478,30.5,478,30.5C478.6,28.6,479.8,25.7,479.8,25.8z"/>
	</g>
</g>
<g>
	<path class="st9" d="M111.5,0.9c-13.2-0.1-24.3,10.6-24.3,24c0,13,10.5,24.1,24.2,24.1c13.4-0.1,23.9-11.1,23.9-24.2
		C135.4,11.8,124.7,1,111.5,0.9z M110.2,27.2c0,3.7,0,7.5,0,11.2c0,0.7,0,0.7-0.7,0.7s-1.4,0-2,0c-0.4,0-0.5-0.1-0.5-0.5
		c0-1.2,0-2.4,0-3.7c0-5.2,0-10.4,0-15.6c0-0.7,0-0.7-0.7-0.7c-1.3,0-2.5-0.1-3.8,0.2c-2.9,0.7-4.9,3.2-4.8,6.3
		c0.1,2.9,2.3,5.3,5,5.8c0.5,0.1,1.1,0.1,1.7,0.1c0.4,0,0.4,0.1,0.4,0.4c0,0.8,0,1.7,0,2.5c0,0.4-0.1,0.4-0.5,0.5
		c-3.9,0.1-7.6-2.1-9.2-5.7c-1.7-3.7-0.8-7.8,1.9-10.6c1.9-1.9,4.3-2.9,6.9-2.9c1.9,0,3.8,0,5.7,0c0.5,0,0.6,0.1,0.6,0.6
		C110.2,19.7,110.2,23.5,110.2,27.2z M120.1,34.5c-0.8,0.1-1.7,0.1-2.6,0.1c-1.6,0-3,0-4.5,0c-0.5,0-0.7-0.1-0.6-0.6l0,0
		c0-3.8,0-7.5,0-11.3c0-3.7,0-7.5,0-11.2c0-0.5,0.1-0.7,0.7-0.7c0.7,0,1.4,0,2,0c0.5,0,0.6,0.1,0.6,0.6c0,6.3,0,12.6,0,19
		c0,1-0.1,0.8,0.8,0.8c1.2,0,2.4,0.1,3.6-0.1c2.9-0.7,5-3.3,4.9-6.3c-0.1-3.1-2.4-5.5-5.3-6c-0.5-0.1-0.8-0.1-1.3-0.1
		c-0.4,0-0.5-0.1-0.5-0.5c0-0.8,0-1.7,0-2.5c0-0.2,0.1-0.4,0.4-0.4c5-0.1,9.2,3.3,9.9,8.1C129,28.9,125.4,33.5,120.1,34.5z"/>
</g>
<g>
	<g>
		<defs>
			<rect id="SVGID_1_" x="-9.2" y="-10" width="70.6" height="70.6"/>
		</defs>
		<clipPath id="SVGID_2_">
			<use xlink:href="#SVGID_1_"  style="overflow:visible;"/>
		</clipPath>
		<path id="path20" class="st10" d="M26.1,49.7c13.5,0,24.4-10.9,24.4-24.4S39.6,0.9,26.1,0.9S1.7,11.8,1.7,25.3
			S12.6,49.7,26.1,49.7"/>
	</g>
	<g>
		<defs>
			<rect id="SVGID_3_" x="-9.2" y="-10" width="70.6" height="70.6"/>
		</defs>
		<clipPath id="SVGID_4_">
			<use xlink:href="#SVGID_3_"  style="overflow:visible;"/>
		</clipPath>
		<path id="path22" class="st11" d="M13.4,25.3l4.2-4.2c0.1-0.1,0.2-0.3,0.2-0.5c0-0.4-0.3-0.7-0.7-0.7c-0.2,0-0.4,0.1-0.5,0.2
			l-4.2,4.2l-4.2-4.2c-0.2-0.2-0.4-0.3-0.6-0.3c-0.4,0-0.7,0.3-0.7,0.7c0,0.2,0.1,0.4,0.2,0.5l4.2,4.2l-4.2,4.2
			c-0.1,0.1-0.2,0.3-0.2,0.5c0,0.4,0.3,0.7,0.7,0.7c0.2,0,0.4-0.1,0.5-0.2l4.2-4.2l4.2,4.2c0.1,0.2,0.3,0.2,0.5,0.2
			c0.4,0,0.7-0.3,0.7-0.7c0-0.2-0.1-0.4-0.2-0.5L13.4,25.3z"/>
	</g>
	<g>
		<defs>
			<rect id="SVGID_5_" x="-9.2" y="-10" width="70.6" height="70.6"/>
		</defs>
		<clipPath id="SVGID_6_">
			<use xlink:href="#SVGID_5_"  style="overflow:visible;"/>
		</clipPath>
		<path id="path24" class="st12" d="M38.2,25.3c0,0.7,0.6,1.4,1.4,1.4c0.7,0,1.4-0.6,1.4-1.4c0-0.7-0.6-1.4-1.4-1.4
			S38.2,24.5,38.2,25.3"/>
	</g>
	<g>
		<defs>
			<rect id="SVGID_7_" x="-9.2" y="-10" width="70.6" height="70.6"/>
		</defs>
		<clipPath id="SVGID_8_">
			<use xlink:href="#SVGID_7_"  style="overflow:visible;"/>
		</clipPath>
		<path id="path26" class="st13" d="M35.6,25.3c0-2.2,1.8-3.9,3.9-3.9c2.2,0,3.9,1.8,3.9,3.9c0,2.2-1.8,3.9-3.9,3.9
			C37.4,29.2,35.6,27.4,35.6,25.3 M34,25.3c0,3,2.5,5.5,5.5,5.5s5.5-2.5,5.5-5.5s-2.5-5.5-5.5-5.5C36.5,19.8,34,22.2,34,25.3"/>
	</g>
	<g>
		<defs>
			<rect id="SVGID_9_" x="-9.2" y="-10" width="70.6" height="70.6"/>
		</defs>
		<clipPath id="SVGID_10_">
			<use xlink:href="#SVGID_9_"  style="overflow:visible;"/>
		</clipPath>
		<path id="path28" class="st14" d="M33.7,19.9h-0.2c-0.7,0-1.4,0.2-1.9,0.6c-0.1-0.3-0.4-0.6-0.7-0.6c-0.4,0-0.7,0.3-0.7,0.7v9.2
			c0,0.4,0.3,0.7,0.7,0.7c0.4,0,0.7-0.3,0.7-0.7v-5.7c0-1.9,0.2-2.7,1.8-2.9c0.1,0,0.3,0,0.3,0c0.4,0,0.8-0.3,0.8-0.7
			C34.4,20.2,34.1,19.9,33.7,19.9"/>
	</g>
	<g>
		<defs>
			<rect id="SVGID_11_" x="-9.2" y="-10" width="70.6" height="70.6"/>
		</defs>
		<clipPath id="SVGID_12_">
			<use xlink:href="#SVGID_11_"  style="overflow:visible;"/>
		</clipPath>
		<path id="path30" class="st15" d="M19.3,24.4C19.3,24.3,19.3,24.3,19.3,24.4c0.4-1.8,2-3,3.8-3c1.9,0,3.4,1.3,3.8,3H19.3z
			 M28.5,24.2c-0.3-1.5-1.2-2.8-2.4-3.6c-1.9-1.2-4.3-1.1-6.1,0.2c-1.5,1-2.3,2.7-2.3,4.5c0,0.4,0.1,0.9,0.2,1.3
			c0.6,2.2,2.4,3.8,4.6,4.1c0.7,0.1,1.3,0,2-0.1c0.6-0.1,1.1-0.4,1.6-0.7s1-0.8,1.4-1.3l0,0c0.3-0.4,0.2-0.9-0.1-1.1
			c-0.3-0.2-0.7-0.3-1.1,0.2c-0.1,0.1-0.2,0.2-0.3,0.3c-0.3,0.3-0.6,0.6-1.1,0.9c-0.5,0.3-1.2,0.5-1.8,0.5c-2.2,0-3.3-1.5-3.7-2.6
			c-0.1-0.2-0.1-0.4-0.2-0.6v-0.1c0.4,0,7.8,0,7.8,0C28.1,25.8,28.7,25.1,28.5,24.2"/>
	</g>
</g>
</svg>
