<?xml version="1.0" encoding="UTF-8" standalone="no"?><!-- Generator: Gravit.io --><svg xmlns="http://www.w3.org/2000/svg" xmlns:xlink="http://www.w3.org/1999/xlink" style="isolation:isolate" viewBox="0 0 200 200" width="200pt" height="200pt"><path d=" M 8.75 41.333 C 8.75 32.167 16.167 24.667 25.333 24.667 L 158.667 24.667 C 167.833 24.667 175.333 32.167 175.333 41.333 L 175.333 141.333 C 175.333 150.5 167.833 158 158.667 158 L 42 158 L 8.667 191.333 L 8.75 41.333 Z  M 42 124.667 L 142 124.667 L 142 108 L 42 108 L 42 124.667 Z  M 42 99.667 L 142 99.667 L 142 83 L 42 83 L 42 99.667 Z  M 42 74.667 L 142 74.667 L 142 58 L 42 58 L 42 74.667 Z " fill="rgb(209,241,255)"/><rect x="33.333" y="39" width="133.333" height="94.333" transform="matrix(1,0,0,1,0,0)" fill="rgb(255,255,255)"/><g><path d=" M 16.75 33.333 C 16.75 24.167 24.167 16.667 33.333 16.667 L 166.667 16.667 C 175.833 16.667 183.333 24.167 183.333 33.333 L 183.333 133.333 C 183.333 142.5 175.833 150 166.667 150 L 50 150 L 16.667 183.333 L 16.75 33.333 Z  M 50 116.667 L 150 116.667 L 150 100 L 50 100 L 50 116.667 Z  M 50 91.667 L 150 91.667 L 150 75 L 50 75 L 50 91.667 Z  M 50 66.667 L 150 66.667 L 150 50 L 50 50 L 50 66.667 Z " fill="rgb(78,194,245)"/><path d=" M 200 0 L 0 0 L 0 200 L 200 200 L 200 0 Z " fill="none"/></g></svg>