<svg width="13" height="13" viewBox="0 0 13 13" fill="none" xmlns="http://www.w3.org/2000/svg">
<g clip-path="url(#clip0_13_12)">
<circle cx="6.37" cy="6.37" r="6.37" fill="#FFD2DA"/>
<path d="M2.20631 1.16323C2.34077 1.02876 2.55879 1.02876 2.69326 1.16323L11.852 10.322C11.9865 10.4564 11.9865 10.6745 11.852 10.8089L10.8781 11.7828C10.7436 11.9173 10.5256 11.9173 10.3912 11.7828L1.23241 2.62407C1.09794 2.48961 1.09794 2.27159 1.23241 2.13712L2.20631 1.16323Z" fill="#FC6681"/>
<path d="M1.23241 10.8089C1.09794 10.6745 1.09794 10.4564 1.23241 10.322L10.3912 1.16323C10.5256 1.02876 10.7436 1.02876 10.8781 1.16323L11.852 2.13712C11.9865 2.27159 11.9865 2.4896 11.852 2.62407L2.69326 11.7828C2.55879 11.9173 2.34077 11.9173 2.20631 11.7828L1.23241 10.8089Z" fill="#FC6681"/>
</g>
<defs>
<clipPath id="clip0_13_12">
<rect width="12.756" height="12.789" fill="white"/>
</clipPath>
</defs>
</svg>
