<?xml version="1.0" encoding="UTF-8" standalone="no"?><!-- Generator: Gravit.io --><svg xmlns="http://www.w3.org/2000/svg" xmlns:xlink="http://www.w3.org/1999/xlink" style="isolation:isolate" viewBox="461.91 167.103 12.756 12.789" width="12.756pt" height="12.789pt"><g><g><g><path d=" M 474.653 173.49 C 474.653 177.005 471.799 179.858 468.284 179.858 C 464.77 179.858 461.916 177.005 461.916 173.49 C 461.916 169.976 464.77 167.122 468.284 167.122 C 471.799 167.122 474.653 169.969 474.653 173.49 L 474.653 173.49 Z " fill="rgb(209,241,255)"/></g></g><g><clipPath id="_clipPath_BmKUi2xiqwWgRfTFJM0TOuhh6UYWwv9e"><rect x="461.91" y="167.103" width="12.756" height="12.789" transform="matrix(1,0,0,1,0,0)" fill="rgb(255,255,255)"/></clipPath><g clip-path="url(#_clipPath_BmKUi2xiqwWgRfTFJM0TOuhh6UYWwv9e)"><g><g><path d=" M 474.528 169.734 L 473.403 168.621 C 473.252 168.47 473.003 168.47 472.846 168.621 L 468.042 173.589 L 465.961 171.54 C 465.811 171.389 465.562 171.389 465.405 171.54 L 464.41 172.522 C 464.259 172.672 464.259 172.921 464.41 173.071 L 467.735 176.364 C 467.826 176.455 467.944 176.481 468.062 176.475 C 468.18 176.488 468.298 176.455 468.389 176.364 L 474.528 170.296 C 474.679 170.133 474.679 169.884 474.528 169.734 L 474.528 169.734 Z " fill="rgb(54,105,164)"/></g></g></g></g></g></svg>