<?xml version="1.0" encoding="utf-8"?>
<!-- Generator: Adobe Illustrator 23.0.3, SVG Export Plug-In . SVG Version: 6.00 Build 0)  -->
<svg version="1.1" id="Layer_1" xmlns="http://www.w3.org/2000/svg" xmlns:xlink="http://www.w3.org/1999/xlink" x="0px" y="0px"
	 viewBox="0 0 2699.6 613.1" style="enable-background:new 0 0 2699.6 613.1;" xml:space="preserve">
<style type="text/css">
	.st0{fill:url(#SVGID_1_);}
	.st1{opacity:0.43;fill:url(#Subtraction_46_1_);enable-background:new    ;}
	.st2{opacity:0.12;fill:url(#Path_1713_3_);enable-background:new    ;}
	.st3{opacity:0.22;fill:url(#Path_1713_4_);enable-background:new    ;}
	.st4{opacity:8.000000e-02;fill:url(#Path_1713_5_);enable-background:new    ;}
</style>
<linearGradient id="SVGID_1_" gradientUnits="userSpaceOnUse" x1="26.3648" y1="969.7598" x2="2670.512" y2="1011.2974" gradientTransform="matrix(1 0 0 1 0 -684)">
	<stop  offset="0" style="stop-color:#FFFFFF"/>
	<stop  offset="0.3065" style="stop-color:#8DCEFF"/>
	<stop  offset="0.5026" style="stop-color:#49B8F0"/>
	<stop  offset="0.6084" style="stop-color:#55BDF1"/>
	<stop  offset="0.6942" style="stop-color:#75C9F4"/>
	<stop  offset="0.7663" style="stop-color:#93D5F6"/>
	<stop  offset="0.85" style="stop-color:#9AD8F7"/>
	<stop  offset="1" style="stop-color:#FFFFFF"/>
</linearGradient>
<path class="st0" d="M2699.6,613.1c0,0-356.6-81.5-1349.7-81.5S0,613.1,0,613.1V0c0,0,541.3,85.9,1349.8,85.9S2699.6,0,2699.6,0
	V613.1z"/>
<linearGradient id="Subtraction_46_1_" gradientUnits="userSpaceOnUse" x1="10522.8213" y1="-7881.0225" x2="10519.002" y2="-7881.1611" gradientTransform="matrix(203.4941 0 0 554.5615 -2138341.5 4370777.5)">
	<stop  offset="0" style="stop-color:#FFFFFF"/>
	<stop  offset="1" style="stop-color:#FFFFFF;stop-opacity:0"/>
</linearGradient>
<path id="Subtraction_46" class="st1" d="M2663.2,453.8L2663.2,453.8c-55.8-10.1-103.7-22-143.1-35.2c-19.5-6.5-37.7-13.8-54.2-21.7
	c-15.5-7.4-28.9-15.6-40.2-24.5c-18.7-14.9-34.2-30.4-46.8-46.4c-12-15.3-20.7-31.1-26.5-47.3c-5.3-15.6-7.7-31.3-6.5-47.1
	c1-15.5,5.6-30.8,13-45.9c7.7-15,18.2-29.6,31.9-43.8c13.9-14.4,31-28,50.5-40.9c20.3-13.2,43.2-25.6,68.7-36.8
	c26.7-11.8,55.3-22.5,86.1-31.9c15.6-4.8,32.2-8.8,49.7-11.6c16.6-2.7,33.8-4.4,51.4-5v430.1L2663.2,453.8L2663.2,453.8z"/>
<linearGradient id="Path_1713_3_" gradientUnits="userSpaceOnUse" x1="10571.8232" y1="-7862.3799" x2="10569.7637" y2="-7862.4551" gradientTransform="matrix(-334.9903 347.1344 -304.6073 -293.951 1146647 -5980358)">
	<stop  offset="0" style="stop-color:#FFFFFF"/>
	<stop  offset="1" style="stop-color:#FFFFFF;stop-opacity:0"/>
</linearGradient>
<path id="Path_1713" class="st2" d="M767.8,277.6C741.2,385,485.2,441.9,424.7,400.8c-60.3-41-93.6-200.8-40.7-284.3
	C437.1,33,497.6,60.4,631.9,64.3C799.1,78.5,800.2,146.7,767.8,277.6z"/>
<linearGradient id="Path_1713_4_" gradientUnits="userSpaceOnUse" x1="10568.873" y1="-7861.8481" x2="10567.3818" y2="-7861.9038" gradientTransform="matrix(-183.1619 396.4842 -338.2707 -220.7641 -721851.9375 -5925180)">
	<stop  offset="0" style="stop-color:#FFFFFF"/>
	<stop  offset="1" style="stop-color:#FFFFFF;stop-opacity:0"/>
</linearGradient>
<path id="Path_1713_1_" class="st3" d="M2114.5,471.4c6.6,100.2-183.3,63-295.7,67.5c-96.6,3.8-61.3-81-10.9-124.1
	c50.5-43.1,92.4-77.6,177.7-61.9C2071,368.5,2110.6,413.2,2114.5,471.4z"/>
<linearGradient id="Path_1713_5_" gradientUnits="userSpaceOnUse" x1="10569.5127" y1="-7860.0601" x2="10568.1475" y2="-7860.1099" gradientTransform="matrix(-183.1619 396.4842 -338.2707 -220.7641 -721851.9375 -5925180)">
	<stop  offset="0" style="stop-color:#FFFFFF"/>
	<stop  offset="1" style="stop-color:#FFFFFF;stop-opacity:0"/>
</linearGradient>
<path id="Path_1713_2_" class="st4" d="M1327.6,333.5c27,97.4-12.2,110.3-122,138.2c-93,23.6-193.4-85-136.8-121.4
	c81-52,28.7-144.4,114.1-128.7C1268.2,237.3,1304.1,248.9,1327.6,333.5z"/>
</svg>
